<?xml version="1.0" encoding="utf-8"?>
<!-- Generator: Adobe Illustrator 18.1.1, SVG Export Plug-In . SVG Version: 6.00 Build 0)  -->
<svg version="1.1" id="Layer_1" xmlns="http://www.w3.org/2000/svg" xmlns:xlink="http://www.w3.org/1999/xlink" x="0px" y="0px"
	 viewBox="0 0 260 50" enable-background="new 0 0 260 50" xml:space="preserve">
<g>
	<g>
		<path fill="#414042" d="M64.3,18.8h2.8v12.8h-2.8V18.8z"/>
		<path fill="#414042" d="M72.6,18.8h4.3l3,8.4h0l3-8.4h4.3v12.8h-2.8v-9.8h0l-3.4,9.8h-2.2l-3.2-9.8h0v9.8h-2.8V18.8z"/>
		<path fill="#414042" d="M95.1,18.8h2.3l5.6,12.8h-3.2l-1.1-2.7h-5l-1.1,2.7h-3.1L95.1,18.8z M96.2,22.6l-1.6,4h3.1L96.2,22.6z"/>
		<path fill="#414042" d="M117.1,30.8c-0.8,0.4-1.7,0.7-2.6,0.9c-0.9,0.2-1.8,0.3-2.8,0.3c-1,0-1.9-0.2-2.8-0.5
			c-0.8-0.3-1.6-0.8-2.2-1.4c-0.6-0.6-1.1-1.3-1.4-2.1c-0.3-0.8-0.5-1.8-0.5-2.8c0-1,0.2-2,0.5-2.8c0.3-0.8,0.8-1.5,1.4-2.1
			c0.6-0.6,1.3-1,2.2-1.4c0.8-0.3,1.8-0.5,2.8-0.5c1,0,2,0.1,2.8,0.4c0.9,0.2,1.6,0.7,2.3,1.3l-2,2.2c-0.4-0.4-0.8-0.7-1.3-0.9
			c-0.5-0.2-1.1-0.3-1.8-0.3c-0.6,0-1.2,0.1-1.6,0.3c-0.5,0.2-0.9,0.5-1.3,0.9c-0.4,0.4-0.6,0.8-0.8,1.3c-0.2,0.5-0.3,1.1-0.3,1.7
			c0,0.6,0.1,1.2,0.3,1.7c0.2,0.5,0.5,0.9,0.8,1.3c0.4,0.4,0.8,0.7,1.3,0.9c0.5,0.2,1,0.3,1.6,0.3c0.6,0,1.1-0.1,1.6-0.2
			c0.4-0.1,0.8-0.3,1.1-0.4v-2.1h-2.3V24h5V30.8z"/>
		<path fill="#414042" d="M122.6,18.8h8.7v2.6h-5.9v2.4h5.6v2.6h-5.6v2.6h6.2v2.6h-9.1V18.8z"/>
		<path fill="#414042" d="M145.2,18.8h2.8v10.2h5.2v2.6h-8.1V18.8z"/>
		<path fill="#414042" d="M161.1,18.8h2.3l5.6,12.8h-3.2l-1.1-2.7h-5l-1.1,2.7h-3.1L161.1,18.8z M162.2,22.6l-1.6,4h3.1L162.2,22.6z
			"/>
		<path fill="#414042" d="M173.3,26.2l-4.8-7.4h3.5l2.7,4.8l2.9-4.8h3.4l-4.8,7.4v5.5h-2.8V26.2z"/>
		<path fill="#414042" d="M183.2,18.8h8.7v2.6H186v2.4h5.6v2.6H186v2.6h6.2v2.6h-9.1V18.8z"/>
		<path fill="#414042" d="M197.4,18.8h5c0.7,0,1.3,0.1,1.9,0.2c0.6,0.1,1.1,0.3,1.5,0.6c0.4,0.3,0.8,0.7,1.1,1.2
			c0.3,0.5,0.4,1.1,0.4,1.9c0,0.9-0.2,1.7-0.7,2.3c-0.5,0.6-1.2,1-2.1,1.2l3.3,5.4h-3.4l-2.7-5.1h-1.4v5.1h-2.8V18.8z M200.3,24.1
			h1.7c0.3,0,0.5,0,0.8,0c0.3,0,0.5-0.1,0.8-0.2c0.2-0.1,0.4-0.2,0.6-0.4c0.2-0.2,0.2-0.5,0.2-0.8c0-0.3-0.1-0.6-0.2-0.8
			c-0.1-0.2-0.3-0.3-0.5-0.4c-0.2-0.1-0.4-0.2-0.7-0.2s-0.5-0.1-0.8-0.1h-1.9V24.1z"/>
		<path fill="#414042" d="M218.4,22c-0.2-0.3-0.5-0.5-0.9-0.6c-0.4-0.1-0.8-0.2-1.1-0.2c-0.2,0-0.4,0-0.6,0.1
			c-0.2,0-0.4,0.1-0.6,0.2c-0.2,0.1-0.4,0.2-0.5,0.4c-0.1,0.2-0.2,0.4-0.2,0.6c0,0.4,0.1,0.7,0.4,0.9c0.3,0.2,0.7,0.4,1.1,0.5
			c0.4,0.1,0.9,0.3,1.4,0.4c0.5,0.1,1,0.4,1.4,0.6c0.4,0.3,0.8,0.6,1.1,1.1c0.3,0.4,0.4,1,0.4,1.8c0,0.7-0.1,1.3-0.4,1.9
			c-0.3,0.5-0.6,1-1.1,1.3c-0.5,0.4-1,0.6-1.6,0.8c-0.6,0.2-1.2,0.3-1.9,0.3c-0.8,0-1.6-0.1-2.3-0.4c-0.7-0.3-1.4-0.7-2-1.2l2-2.2
			c0.3,0.4,0.7,0.7,1.1,0.9c0.4,0.2,0.9,0.3,1.4,0.3c0.2,0,0.5,0,0.7-0.1c0.2-0.1,0.4-0.1,0.6-0.2c0.2-0.1,0.3-0.2,0.5-0.4
			c0.1-0.2,0.2-0.4,0.2-0.6c0-0.4-0.1-0.7-0.4-0.9c-0.3-0.2-0.7-0.4-1.1-0.6c-0.4-0.2-0.9-0.3-1.5-0.5c-0.5-0.2-1-0.4-1.5-0.6
			s-0.8-0.6-1.1-1.1c-0.3-0.4-0.4-1-0.4-1.7c0-0.7,0.1-1.3,0.4-1.8c0.3-0.5,0.6-1,1.1-1.3c0.5-0.4,1-0.6,1.6-0.8s1.2-0.3,1.8-0.3
			c0.7,0,1.4,0.1,2.1,0.3c0.7,0.2,1.3,0.6,1.8,1L218.4,22z"/>
	</g>
	<polygon opacity="0.75" fill="#BE1E2D" points="56.3,37.3 29.4,48 2.5,37.3 29.4,26.6 	"/>
	<polygon opacity="0.75" fill="#1C75BC" points="56.3,29.1 29.4,39.8 2.5,29.1 29.4,18.4 	"/>
	<polygon opacity="0.75" fill="#F15A29" points="56.3,20.9 29.4,31.6 2.5,20.9 29.4,10.2 	"/>
	<polygon opacity="0.75" fill="#39B54A" points="56.3,12.7 29.4,23.4 2.5,12.7 29.4,2 	"/>
</g>
</svg>
