<?xml version="1.0" encoding="utf-8"?>
<!-- Generator: Adobe Illustrator 18.0.0, SVG Export Plug-In . SVG Version: 6.00 Build 0)  -->
<!DOCTYPE svg PUBLIC "-//W3C//DTD SVG 1.1//EN" "http://www.w3.org/Graphics/SVG/1.1/DTD/svg11.dtd">
<svg version="1.1" id="Layer_1" xmlns="http://www.w3.org/2000/svg" xmlns:xlink="http://www.w3.org/1999/xlink" x="0px" y="0px"
	 viewBox="0 0 612 792" enable-background="new 0 0 612 792" xml:space="preserve">
<path fill="none" d="M306,396.4v122.1l0.1,4.5c0,70-56.8,126.9-126.8,126.9S52.6,593.2,52.6,523.2c0-7.7,0.7-15.2,2-22.5
	c49.4,34.3,117.8,29.5,161.9-14.6L306,396.4L306,396.4L306,396.4z"/>
<g>
	<g>
		<path fill="#787878" d="M216.5,486l73.5-73.5l-110.3,0h-0.3c-61.1,0-110.7,49.6-110.7,110.7c0,61.1,49.6,110.7,110.7,110.7
			c4.6,0,9.2-0.3,13.7-0.8C168.9,585.4,176.7,525.8,216.5,486z"/>
	</g>
</g>
<g>
	<g>
		<path fill="#787878" d="M306,523.1V419.2l-78,78l-0.2,0.2c-43.2,43.2-43.2,113.3,0,156.5c43.2,43.2,113.3,43.2,156.5,0
			c3.3-3.3,6.3-6.7,9.1-10.3C342.7,627.1,306,579.3,306,523.1z"/>
	</g>
</g>
<g>
	<g>
		<path fill="#787878" d="M395.6,486l-73.5-73.5v110.6c0,61.1,49.6,110.7,110.7,110.7c61.1,0,110.7-49.6,110.7-110.7
			c0-4.6-0.3-9.2-0.8-13.7C495,533.6,435.4,525.8,395.6,486z"/>
	</g>
</g>
<g>
	<g>
		<path fill="#787878" d="M563.5,318.1c-3.3-3.3-6.7-6.3-10.3-9.1c-16.6,50.7-64.3,87.4-120.6,87.4l-103.9,0l78,78l0.2,0.2
			c43.2,43.2,113.3,43.2,156.5,0C606.7,431.4,606.7,361.3,563.5,318.1z"/>
	</g>
</g>
<g>
	<g>
		<path fill="#787878" d="M432.7,158.9c-4.6,0-9.2,0.3-13.7,0.8c24.2,47.6,16.4,107.3-23.4,147.1l-73.5,73.5h110.6
			c61.1,0,110.7-49.6,110.7-110.7C543.3,208.5,493.8,158.9,432.7,158.9z"/>
	</g>
</g>
<g>
	<g>
		<path fill="#787878" d="M384.2,138.9c-43.2-43.2-113.3-43.2-156.5,0c-3.3,3.3-6.3,6.7-9.1,10.3c50.7,16.6,87.4,64.3,87.4,120.5
			l0,103.9l78-78l0.2-0.2C427.4,252.2,427.4,182.2,384.2,138.9z"/>
	</g>
</g>
<path fill="#787878" d="M216.5,306.9l3.1,3.3l70.1,70.1h0.1l0-110.3v-0.3c0-61.1-49.6-110.7-110.7-110.7
	c-61.1,0-110.7,49.6-110.7,110.7c0,4.6,0.3,9.2,0.9,13.7C117,259.3,176.7,267.1,216.5,306.9z"/>
<path fill="none" d="M306,396.4L0,396.6c0-32.5,12.4-64.9,37.1-89.7c49.5-49.5,129.8-49.5,179.3,0L306,396.4L306,396.4z"/>
<path fill="none" d="M306,396.4v122.1l0.1,4.5c0,70-56.8,126.9-126.8,126.9S52.6,593.2,52.6,523.2s56.8-126.8,126.8-126.8L306,396.4
	L306,396.4z"/>
<path fill="#787878" d="M59.2,482.8c0.9-2.6,1.8-5.1,2.8-7.6c0.1-0.3,0.2-0.6,0.4-0.9c1.1-2.7,2.4-5.3,3.7-7.9
	c0.3-0.6,0.6-1.1,0.9-1.7c1.3-2.6,2.7-5.1,4.2-7.5c0.2-0.3,0.3-0.5,0.5-0.8c1.4-2.3,2.9-4.5,4.5-6.7c0.3-0.5,0.6-0.9,1-1.4
	c1.7-2.3,3.4-4.5,5.3-6.7c0.4-0.4,0.7-0.9,1.1-1.3c1.8-2.1,3.6-4.1,5.5-6c0.2-0.2,0.3-0.3,0.5-0.5c2-2,4.1-4,6.3-5.9
	c0.5-0.4,0.9-0.8,1.4-1.2c2.2-1.9,4.4-3.6,6.7-5.4c0.3-0.2,0.6-0.4,0.9-0.6c2.1-1.6,4.3-3,6.6-4.5c0.4-0.3,0.9-0.6,1.3-0.9
	c2.4-1.5,4.9-2.9,7.4-4.2c0.5-0.3,1.1-0.5,1.6-0.8c2.5-1.3,5.1-2.5,7.7-3.6c0.1-0.1,0.3-0.1,0.4-0.2c2.7-1.1,5.5-2.2,8.3-3.1
	c0.6-0.2,1.2-0.4,1.8-0.6c2.8-0.9,5.6-1.7,8.4-2.4c0.4-0.1,0.9-0.2,1.3-0.3c2.6-0.6,5.3-1.2,8-1.6c0.5-0.1,1-0.2,1.5-0.3
	c2.9-0.5,5.9-0.8,8.9-1.1c0.6-0.1,1.3-0.1,1.9-0.2c3.1-0.2,6.2-0.4,9.3-0.4l103.9,0L205,318.2c-43.2-43.2-113.3-43.2-156.5,0
	c-43.2,43.2-43.2,113.3,0,156.5c3.3,3.3,6.7,6.3,10.3,9.1C58.9,483.5,59,483.2,59.2,482.8z"/>
</svg>
