<?xml version="1.0" encoding="utf-8"?>
<!-- Generator: Adobe Illustrator 17.1.0, SVG Export Plug-In . SVG Version: 6.00 Build 0)  -->
<!DOCTYPE svg PUBLIC "-//W3C//DTD SVG 1.1//EN" "http://www.w3.org/Graphics/SVG/1.1/DTD/svg11.dtd">
<svg version="1.1" id="Layer_1" xmlns="http://www.w3.org/2000/svg" xmlns:xlink="http://www.w3.org/1999/xlink" x="0px" y="0px"
	 viewBox="0 0 40 40" enable-background="new 0 0 40 40" xml:space="preserve">
<path fill="#777777" d="M39.9,23.3L39.9,23.3l0-0.1l0-0.1l-0.1-0.1l-0.1-0.1l0,0l0,0l-0.1-0.1l-0.1-0.1l-0.1,0l0,0L39,22.5l-0.2-0.1
	l-0.2-0.1l-0.2-0.1l0,0l-0.2-0.2l-0.2-0.1l-0.2-0.1l-0.2-0.1l0,0l-0.2-0.1l-0.3-0.1l-0.1,0l-0.2-0.1l-0.2-0.1l-0.2,0l-0.2,0l-0.2,0
	l-0.1,0L36,21.2l-0.2-0.2L35.5,21h-0.3l-0.3,0.1l-0.1,0L34.5,21l-0.3-0.1l-0.3,0l-0.3,0l-0.3,0l0,0l-0.3-0.1l-0.3-0.1l-0.3,0l-0.2,0
	l-0.2-0.2l-0.3-0.2l-0.3-0.1L31.3,20L31,20l-0.1,0l-0.1-0.1l-0.2-0.1l-0.3,0l-0.2,0l-0.2-0.1l-0.2-0.1l-0.2,0l-0.1,0L29,19.5
	l-0.4-0.1l-0.4,0l0,0l-0.3-0.2l-0.4-0.1l-0.3,0L26.6,19l-0.4,0l-0.1,0l-0.2-0.2l-0.3-0.2l-0.3-0.1l-0.3,0l-0.2,0.1l-0.3,0l-0.3,0
	l-0.3,0l0,0l0,0l-0.5-0.1l-0.4-0.1l-0.4,0l-0.1,0l0,0l-0.3,0l-0.3,0l0,0l-0.3-0.1L21.2,18l-0.3,0l-0.2,0l-0.3-0.1L20,17.8l-0.3,0
	l0,0l-0.3-0.2L19,17.4l-0.2,0l-0.2-0.1l-0.4-0.1l-0.3,0L17.5,17L17.2,17L17,17l-0.3-0.2l-0.3-0.1l-0.3,0l-0.1,0l-0.4-0.2l-0.3-0.1
	l-0.4,0l0,0l-0.2-0.1L14.4,16L14.2,16l-0.2,0l-0.2,0l-0.2-0.2l-0.3-0.1l-0.3,0l-0.3,0l-0.3,0.1l0,0l-0.3-0.1l-0.3-0.1l-0.3,0
	l-0.2-0.2L11,15.3l-0.3,0l-0.3,0l-0.2,0.1l-0.2-0.2L9.9,15L9.6,15l-0.2,0l-0.2,0.1L9.1,15L9,15l-0.1,0l-0.1,0l-0.1,0l-0.1,0
	l-0.2,0.1l0,0L8,15l-0.3,0l-0.2,0.1l-0.2,0.1l-0.2,0.2l-0.1,0.2L7,15.9l-0.1,0.3l0,0.3l0,1.2c-0.1,0-0.2-0.1-0.3-0.1l0,0l0-0.4
	l0.1-0.8l0-0.6l0-0.2l-0.1-0.2l0,0l0.2-0.5l0.1-0.2l-0.2-0.1l-0.3,0.3l0,0l-0.1-0.1L6,14.6l0,0l0-0.2L6,14.1L5.8,14l-0.2,0.2
	l-0.1,0.2l-0.1,0.2l0,0.2l0,0.2l0,0.2l0,0.1l0,0l-0.1-0.3L5.2,15l0-0.2l0-0.5l-0.3,0.3l-0.1,0.2L4.6,15l0,0.2l0,0.2l0.1,0.2l0.1,0.1
	l-0.1,0L4.6,16l0.1,0.1l0.3,0.2l0.2,0.2l0.6,0.6L6,17.3c-1.8-0.7-3.7-1.6-6-2.7c0.5,0.8,2.3,1.6,3,2.2c0.7,0.4,1.7,0.8,2.6,1.2
	l-0.2,0l0,0L5,18l-0.6,0l-0.3,0l-0.6-0.1l-0.1,0.2l0.2,0.1l0.2,0.1l0.1,0l-0.1,0l-0.2,0.1l-0.2,0.1l-0.2,0.1L3.1,19l-0.1,0.2
	l-0.1,0.2l-0.1,0.2L3,19.7l0,0l0.5,0l0.2,0l0.2,0l-0.1,0.1l0,0.2l0,0.2L4,20.7l0.2-0.5l0.1-0.2l0.1-0.2l0.1-0.1l0.1-0.1l0.2-0.1
	l0,0.2l0,0.3l0,0.3L5,20.7l0.2,0L5.4,20l0.2-0.4L5.9,19l0.5-0.7c0.1,0,0.2,0.1,0.2,0.1l-0.4,0.7l-0.2,0.5L6,19.8L6,20l0,0.2l0,0.2
	l0.1,0.2l0.2,0.2L6.6,21l0.2,0.1l0.1,0.1L7,21.4l0.1,0.1l0.1,0.1l0.1,0.1l0.1,0.1l0.1,0l0.2,0l0,0L8,21.9l0.2,0.2l0.2,0.1l0.3,0
	l0.2-0.1l0,0l0.2,0.2l0.2,0.1l0.2,0.1l0.3,0l0.2,0l0.2,0.1l0.3,0.1l0.2,0.1l0.2,0.1l0.3,0.1l0.4,0.1l0.3,0l0,0l0.2,0.2l0.3,0.1
	l0.2,0.1l0.3,0l0.3,0l0.1,0.1l0.2,0.1l0.2,0l0.2,0l0.2,0l0.1,0l0.3,0.1l0.4,0l0.4,0l0.1,0.1l0.3,0.1l0.3,0l0.4,0l0,0l0.3,0.1
	l0.3,0.1l0.3,0l0.1,0.1l0.3,0.1l0.4,0.1l0.4,0l0,0l0.2,0l0.3,0l0.3-0.1l0.2,0.1l0.3,0.1l0.3,0l0.3,0l0.1,0l0.3,0.1l0.3,0.1l0.4,0
	l0.4,0l0,0l0.2,0l0.3,0l0.3,0l0,0l0.2,0.1l0.4,0.1l0.4,0l0.5,0l0,0l0.1,0l0.3,0.1l0.3,0l0.3,0l0,0l0.3,0.1l0.3,0.1l0.3,0l0.3-0.1
	l0.2-0.1l0.3,0.1l0.4,0l0.4,0l0,0l0.1,0l0.4,0.1l0.4,0l0.4-0.1l0.3,0l0.4,0l0.3,0l0.2,0l0.2,0l0.5-0.1l0.2,0.1l0.2,0l0.2,0l0.2-0.1
	l0,0l0.3,0.1l0.3,0h0.3l0.3-0.1l0.3-0.1l0.3-0.2l0.2,0l0.3,0l0.3,0l0.1,0l0.3,0l0.3,0l0.3,0l0.2,0l0,0l0.3,0.1l0.3,0.1l0.3,0
	l0.3-0.1L36,25l0.1,0l0.2,0l0.2,0l0.2,0l0.2,0l0.1,0l0.2,0l0.2,0l0.2-0.1l0,0l0.2,0l0.2,0l0.2-0.1l0.2-0.1l0.2,0l0.2,0l0.2-0.1
	l0.2-0.1l0.1,0l0.1,0l0.1,0l0,0h0l0.1,0l0.1-0.1l0.1-0.1l0-0.1l0,0l0.1-0.1l0-0.1l0,0l0-0.4L39.9,23.3z M5.2,15.9l-0.1,0l-0.1-0.1
	L5,15.6l-0.1-0.2l0-0.2l0-0.2l0-0.2L5,14.8L5,15l0.1,0.2l0.2,0.3l0.1,0.1L5.5,16l0,0l0,0.1l-0.1,0L5.4,16L5.2,15.9z M5.6,16.5
	l-0.2-0.2l0,0l-0.1-0.1l0,0L5.6,16.5L5.6,16.5l0.2,0.2l0,0L5.6,16.5z M5.8,15.6l-0.1,0.2l-0.1-0.3l0-0.2l0-0.2l0-0.2l0-0.2l0,0
	l0,0.4l0.1,0.3L5.8,15.6L5.8,15.6z M3.4,19l0.2-0.1l0.2-0.1l0.2-0.1l0.4-0.1l0,0l0.3,0l0,0l-0.1,0.1l-0.2,0.1l-0.2,0l-0.5,0.1
	L3.4,19l-0.1,0.1L3.4,19z M3.1,19.5l0.1-0.1l0.3-0.2L3.9,19L3.1,19.5z M3.8,19.4L3.8,19.4l0.4-0.2l0,0l-0.1,0.1L3.8,19.4z M5,19.2
	l-0.5,0.3l-0.1,0.1l-0.1,0.1l-0.1,0.2L4,20.1L4,20l0-0.2l0.1-0.1l0.1-0.2l0,0l0.3-0.2l0.3-0.2l0.3-0.3l0.2-0.2l0.1-0.1l-0.1,0.1
	l-0.1,0.1l-0.1,0.1l-0.1,0.2L5,19.2z M5.5,19.2l-0.3,0.6l-0.1,0.3l0-0.1l0-0.3l0-0.2l0-0.2l0.2-0.1L5.6,19L5.5,19.2z M5.9,18.1
	L5.9,18.1C5.9,18.1,5.9,18.1,5.9,18.1L5.9,18.1z M6,16.2L6,16.2L6,16.2l0-0.3l0,0L6,16.2L6,16.3L6,16.2z M6.3,15.5L6.3,15.5l0-0.2
	l0,0l0,0l0,0.1L6.3,15.5z M6.4,16.7l0-0.2l0-0.4l0,0l0,0.3L6.4,16.7z M39.2,23.1L39.2,23.1l0.3,0l0.1,0l0,0l0,0.1l-0.1,0l-0.1,0
	l-0.5,0.1l0,0l-0.3-0.1l0,0l0.4-0.2l0.1,0L39.2,23.1z M38.9,22.8l0.2,0l0,0l-0.1,0l0,0l0,0L38.9,22.8L38.9,22.8L38.8,23L38.5,23
	l-0.3,0.2l-0.1,0.1l0,0l-0.3,0l0.1-0.1l0,0L38,23l0.1,0l0.2-0.1l0.2,0L38.9,22.8L38.9,22.8z M38.3,22.5l0.2,0l0.2,0l0.1,0l0,0
	l-0.1,0l0,0l0,0l-0.2,0l0,0l0,0l-0.2,0.1l0,0l0,0l-0.1,0l0,0l0,0l-0.2,0.1L37.6,23l-0.1,0.1l-0.1,0.1l-0.2,0l-0.1,0l-0.4-0.1
	l0.1-0.1l0.1-0.1l0.1-0.1l0.2-0.1l0.2-0.1l0.2-0.1l0.3,0l0.3,0L38.3,22.5z M37.3,22l0.2,0l0,0l0.2,0l0.1,0l0.2,0.1l0.1,0.1l-0.2,0
	l-0.2,0l-0.2,0l-0.2,0.1l0,0l-0.1,0l-0.3,0.1l-0.1,0.1l-0.1,0l0,0l-0.1,0.1l0,0l0,0l0,0l-0.1,0.2l0,0.1L36,23l-0.3,0l0.1-0.1
	l0.6-0.4l0.2-0.1l0.4-0.2l0.2-0.1L37.3,22z M36.6,21.8l0.2,0l0.1,0l0.2,0l0,0L37,21.9l-0.2,0.1l-0.3,0.2l-0.3,0.2l-0.4,0.3l-0.2,0.2
	l-0.3,0.2l0,0l-0.7-0.1l0.5-0.4l0.6-0.3l0.4-0.2l0.2-0.1L36.6,21.8z M36.1,21.6l0.2,0l0.1,0l0.1,0l0,0l-0.1,0L36.1,21.6l-0.2,0.2
	l-0.3,0.1l-0.5,0.3l-0.6,0.4l-0.3,0.2l-0.5-0.1l0.2-0.1l1.5-0.7l0.1-0.1l0.4-0.1L36.1,21.6z M34.6,21.4l0.2-0.1l0.3-0.1l0.1,0l0.2,0
	l0.2,0l0.1,0.1l0,0.1l-0.1,0l-0.1,0l-0.2,0.1l-0.5,0.2l-1,0.5l-0.3,0.2l-0.4,0.2l-0.9-0.1l0.6-0.4l0.6-0.4l0.3-0.2l0.3-0.2
	L34.6,21.4z M33.2,21.2l0.3-0.1l0.3,0l0.2,0l0.2,0l0.2,0L34,21.3l-0.7,0.4l-1,0.6l-0.2,0.2l0,0l-0.8-0.1l0.1-0.1l0.1-0.1l0.4-0.3
	l0.5-0.3l0.5-0.2l0.3-0.1L33.2,21.2z M32.4,20.9l0.1,0l0.3,0L33,21l-0.4,0.1l-0.2,0.1L32,21.5l-0.4,0.3l-0.4,0.4l0,0L31,22.3
	l-0.1,0.1l-1.1-0.1l0.1-0.1l0.2-0.2l0.2-0.2l0.2-0.2l0.2-0.2l0.4-0.3l0.2-0.1l0.2-0.1l0.3-0.1l0.3,0L32.4,20.9z M30.9,20.3l0.1,0
	l0.2,0l0.2,0.1l0.2,0.1l0.3,0.2l0.1,0.1l0,0l-0.3,0l-0.3,0.1l-0.1,0.1l-0.1,0L31,20.9L30.8,21l-0.2,0.1l-0.4,0.3l-0.2,0.2l-0.2,0.2
	l-0.3,0.4l-0.6-0.1l-0.2,0l0.4-0.5l0.2-0.2l0.3-0.3l0.2-0.2l0.1-0.1l0.3-0.2l0.2-0.1L30.9,20.3z M29.9,20.2l0.2-0.1l0.2,0l0.2,0
	l0.1,0.1l-0.1,0l-0.3,0.1L30,20.5l-0.2,0.2l-0.2,0.2l0,0L29.4,21l-0.2,0.2l-0.2,0.2l-0.2,0.2l-0.5,0.6L27.8,22l0.3-0.3l0.6-0.6
	l0.1-0.1l0.4-0.3l0.1-0.1l0.2-0.1l0.2-0.1L29.9,20.2z M29,19.9l0.2,0l0.2,0l0,0l0,0l0.2,0l0.1,0l-0.2,0.1l-0.1,0l0,0l-0.2,0.1
	l-0.1,0.1L29,20.5l-0.1,0.1l-0.1,0.1l-0.2,0.1l-0.1,0.1l-0.2,0.2l-0.4,0.4l-0.4,0.4L27.4,22l-0.9-0.1l0.7-0.8l0.3-0.3l0.2-0.2
	l0.2-0.1l0.2-0.1l0.2-0.1l0,0l0.2-0.1l0,0l0.1,0l0.2-0.1L29,19.9z M28,19.7l0.2,0l0.3,0l0.2,0l-0.2,0.1l-0.1,0l-0.1,0l0,0l0,0
	l-0.1,0.1l-0.1,0l0,0l0,0L28,20l-0.2,0.2l-0.1,0l0,0l-0.2,0.2l-0.4,0.4l-0.5,0.6l-0.3,0.4l-1-0.1l-0.3,0l0,0l0.6-0.5l0.2-0.2
	l0.1-0.1l0.5-0.4l0.3-0.2L27,20l0.1,0l0.2-0.1l0.2-0.1l0.3-0.1L28,19.7z M26.8,19.4l0.3-0.1h0.3l0.3,0.1l0,0l-0.2,0.1l-0.3,0.1
	l-0.3,0.2l0,0l-0.2,0.1L26.5,20l-0.2,0.1l-0.5,0.5l-0.1,0.1l-0.3,0.3l-0.5,0.4l-0.2,0.2l-0.3,0l-0.6-0.1l0.2-0.1l0.2-0.1l0.3-0.3
	l1-0.8l0.3-0.2l0.3-0.2l0.3-0.2L26.8,19.4z M26.3,19.2l0.3,0l-0.3,0.1l-0.3,0.2l-0.3,0.2l-0.3,0.2l-0.3,0.2l-0.8,0.7l-0.5,0.4
	l-0.2,0.1l0,0l-0.2,0.1l-0.1,0l-0.1,0l-0.1,0l-0.6-0.1l0.3-0.2l0.5-0.5l0.5-0.5l0.5-0.4l0.3-0.2l0.3-0.2l0.3-0.1l0.3-0.1l0.2,0
	L26.3,19.2z M24.9,18.9l0.2,0l0.2,0l0.2,0l0.2,0.1l0,0L25.6,19l0,0l0,0l-0.3,0.1L25,19.2l-0.2,0.1l-0.2,0.1l-0.4,0.3l-1.1,1
	l-0.5,0.4l-0.2,0.2l-0.4,0l-0.3,0l0.1-0.1l0,0l0,0l0.3-0.2l0.3-0.3l0.8-0.7l0.5-0.4l0.2-0.2l0.5-0.3L24.9,18.9z M23.8,18.9l0.3,0
	l0.3,0l0.1,0L24.2,19l-0.3,0.2l-0.2,0.2l0,0l-1.7,1.5l-0.4,0.3l0,0l-0.2,0.1l0,0l-0.1,0l-0.5-0.1l0.1-0.2l0.2-0.3l0.2-0.3l0.2-0.3
	l0.3-0.2l0.3-0.2l0.3-0.2l0.2-0.1l0.5-0.2l0.4-0.1l0.1,0L23.8,18.9z M22,18.7l0.3-0.1l0.2,0l0.3,0l0.4,0l0.4,0.1l-0.3,0.1l-0.1,0
	l-0.3,0.1l-0.3,0.1l-0.1,0.1l0,0l-0.2,0.1l-0.2,0.2l-0.2,0.2l-0.2,0.2L21.2,20L21,20.2l-0.2,0.2l-0.2,0.2l-0.1,0.3l-0.1,0.2l-0.1,0
	L19.9,21l0,0l0.1-0.2l0.4-0.7l0.1-0.2l0.2-0.2l0.2-0.2l0.2-0.2l0.2-0.2l0.2-0.2l0.2-0.1l0,0L22,18.7z M21.6,18.5l0.2,0L21.6,18.5
	L21.6,18.5l-0.2,0.2l-0.2,0.1L21,19l-0.2,0.1l-0.2,0.2l-0.1,0.2l-0.3,0.4l0,0l-0.2,0.3l-0.2,0.3l-0.1,0.2l-0.2,0.3l-0.1,0l-0.4-0.1
	l0-0.2l0.2-0.5l0.1-0.2l0.1-0.2l0.3-0.4l0.2-0.2l0.2-0.2l0.4-0.3l0.2-0.1l0.5-0.2L21.6,18.5z M20.3,18.3l0.3,0l0.3,0l0.3,0l0.2,0
	l0,0L21,18.4l-0.3,0.1l-0.3,0.1l-0.3,0.2L20,18.9l-0.2,0.2l-0.2,0.2l-0.2,0.3l-0.2,0.3L19,20.2l-0.1,0.3l-0.1,0.2l-0.7-0.1l0.1-0.2
	l0.1-0.3l0.1-0.3l0.2-0.3l0.2-0.3L19,19l0.2-0.2l0.2-0.2l0.2-0.1l0,0l0.3-0.1L20.3,18.3L20.3,18.3z M19.5,18l0.2,0l0.3,0l0.1,0l0,0
	l-0.2,0.1l-0.3,0.1l-0.1,0l-0.2,0.1l-0.2,0.2l-0.2,0.2l-0.3,0.4l-0.1,0.2l-0.1,0.2l-0.2,0.4L18,20.3l0,0l0,0l-0.1,0.3l-0.5-0.1
	l-0.2,0l0-0.1l0.1-0.2l0.2-0.4l0.2-0.4l0-0.1l0.1-0.2l0.2-0.2l0.2-0.2l0.2-0.2l0.2-0.2l0.2-0.1l0.2-0.1L19.5,18z M18.6,17.7l0.2,0
	l0,0l0.1,0l0.3,0.1l0.1,0l-0.2,0.1L18.8,18l-0.2,0.1l-0.2,0.1l-0.2,0.2L18,18.6l-0.2,0.2l-0.2,0.2l-0.1,0.1l-0.1,0.1l-0.2,0.3
	L17,20.1l-0.1,0.3l-0.4-0.1l0.4-0.8l0.3-0.4l0.2-0.4l0.2-0.2l0.2-0.2l0.2-0.2l0.2-0.1l0.2-0.1l0.2-0.1L18.6,17.7z M17.6,17.5
	l0.3-0.1l0.3,0l0.2,0.1l-0.2,0.1l-0.3,0.2L17.6,18l-0.2,0.3l-0.2,0.3L17,18.8L16.9,19l-0.2,0.3l-0.5,0.9l-0.7-0.2l0-0.1l0.1-0.2
	l0.3-0.5l0.4-0.5l0.1-0.2l0.4-0.4l0.2-0.2l0.2-0.2l0.2-0.1l0.1-0.1L17.6,17.5z M16.9,17.2L16.9,17.2l0.3,0l0.3,0.1l0.1,0l-0.1,0.1
	l-0.1,0l-0.1,0.1l-0.3,0.2l-0.3,0.3l-0.3,0.3l-0.2,0.3l0,0.1l0,0L15.7,19l-0.1,0.2l-0.2,0.4l-0.1,0.2l0,0.1l-0.6-0.1l0.1-0.2
	l0.3-0.6l0.4-0.8l0.2-0.2l0.1-0.1l0.2-0.2l0.2-0.2l0.2-0.1l0.2-0.1L16.9,17.2z M16,16.9l0.3,0l0.3,0.1l0,0l-0.2,0.1l-0.2,0.1
	l-0.2,0.1l-0.2,0.1l-0.2,0.1l-0.2,0.2l-0.1,0.1L15.4,18l-0.2,0.3L15,18.6l-0.3,0.6l-0.2,0.6l0,0.1l-0.7-0.2l0.1-0.4l0.4-0.9l0.2-0.3
	l0.4-0.5l0.2-0.2l0.2-0.2l0,0l0.2-0.1l0.1,0l0.2-0.1L16,16.9z M14.8,16.5l0.3,0l0.3,0.1l0.2,0.1l-0.2,0.1l0,0l0,0l0,0L15.1,17
	l-0.2,0.2l-0.2,0.2l-0.3,0.3l-0.1,0.2L14,18.5l-0.5,1.1l-0.7-0.1l0.7-1.6l0.2-0.3l0.1-0.2l0.1-0.1l0.1-0.2l0.3-0.3l0.1-0.1l0.2-0.1
	L14.8,16.5z M13.7,16.2l0.2,0l0.2,0l0.2,0l0.1,0.1l-0.2,0.1l-0.2,0.1l0,0l-0.1,0l-0.2,0.2l-0.2,0.3l-0.1,0.1l-0.1,0.1l-0.1,0.2
	L13,18.2l-0.5,1.1l-0.9-0.3l-0.2,0l0.2-0.4l0.3-0.6l0.3-0.4l0.2-0.2l0.2-0.2l0.4-0.4l0.2-0.2l0.2-0.1l0.2-0.1l0.1-0.1L13.7,16.2z
	 M12.6,15.9l0.2,0l0.2,0l0.2,0l0.2,0.1l0,0l-0.1,0l-0.1,0.1L13,16.3l-0.2,0.2l-0.2,0.2L12.2,17L12,17.3l-0.2,0.4l-0.2,0.4l-0.2,0.5
	l-0.1,0.2l-0.1,0.2l-0.7-0.2l0-0.3l0,0l0-0.2l0.1-0.3l0-0.1l0.2-0.3l0.2-0.3l0.2-0.3l0.2-0.2l0.2-0.2l0.3-0.2l0.2-0.1L12.6,15.9z
	 M11.3,15.8l0.2,0l0.2,0l0.3,0.1l0.1,0l-0.1,0l-0.3,0.2l-0.3,0.2l-0.2,0.2L11,16.7L10.8,17l-0.1,0.3l-0.1,0.3l-0.1,0.3l0,0.1
	L10.4,18l0,0.1l0,0l-0.1,0.5l-0.5-0.2l0.4-1l0.3-0.7l0.1-0.3l0.2-0.4l0.1-0.1l0.1-0.1l0.1-0.1L11.3,15.8z M10.1,15.7L10.1,15.7
	l0.2-0.1l0.2-0.1l0.2,0l0.2,0l0.2,0.1l0,0L11,15.6l0,0l0,0l-0.2,0.2l-0.2,0.2l-0.2,0.2l-0.1,0.3l-0.1,0.2l-0.1,0.1l-0.5,1.2
	l-0.1,0.2l0,0.1l-0.1,0l-0.1,0l-0.1,0l-0.3-0.1l0-0.2l0.1-0.3L9,17.3L9.1,17l0.1-0.3l0.1-0.2l0.2-0.3l0.1-0.1L10.1,15.7z M9.1,15.4
	l0.1-0.1l0.2-0.1l0.2,0l0.2,0l0.2,0.1l0.1,0.1l0,0l0,0l-0.2,0.2l-0.2,0.2l-0.2,0.2l-0.2,0.3l0,0.1l0,0l-0.2,0.4l-0.2,0.4l-0.1,0.4
	l0,0.2l-0.1,0.3l-0.2-0.1L8,17.9l0-0.1l0.2-0.7l0.2-0.5l0.2-0.3l0.1-0.2l0.2-0.3l0.1-0.1L9.1,15.4z M8.2,15.5l0.1-0.2l0.1-0.1
	l0.1-0.1l0.1,0l0.1,0l0.2,0L9,15.2l-0.1,0.1l-0.2,0.2l-0.2,0.2L8.4,16l-0.1,0.3l-0.1,0.3L8,16.9l-0.1,0.3l-0.1,0.3l0,0.2l0,0.1
	l-0.1,0l-0.1-0.1l0-0.1l0.1-0.5l0.1-0.4l0.1-0.4L8,16l0.1-0.3L8.2,15.5z M7.1,16.5l0-0.3L7.2,16l0.1-0.2l0.1-0.2l0.1-0.2l0.1-0.1
	l0.2-0.1l0.2,0l0.1,0l-0.1,0.2l-0.1,0.2L7.7,16l-0.2,0.6l-0.1,0.6l0,0l0,0.1l-0.1,0.4l0,0l-0.1,0l0-0.6L7.1,16.5z M6.8,18.8
	L6.8,18.8l0,0.1l0,0.1l-0.1,0.5l0,0.4l0,0.4l0,0.3l0.1,0.3l0,0l-0.2-0.1l-0.1-0.1l-0.1-0.2l0-0.2l0-0.2l0-0.2l0.1-0.2l0.1-0.4
	l0.2-0.4l0.2-0.3l0.1,0L6.8,18.8z M7.6,21.5l-0.1,0l-0.1-0.1l-0.1-0.1l-0.1-0.1l-0.1-0.1L7,21L7,20.8l-0.1-0.4l0-0.3l0-0.3L7,19
	l0-0.1l0.1-0.2l0.5,0.2l-0.1,0.3l-0.1,0.4l0,0.4l0,0.2l0,0.4l0.1,0.4l0,0l0,0l0,0.1l0.1,0.3L7.6,21.5L7.6,21.5z M8.6,22l-0.2,0
	l-0.2-0.1l-0.1-0.1L8,21.6l-0.1-0.2l-0.1-0.3l-0.1-0.3l0-0.3l0-0.3l0-0.3l0-0.6l0-0.2L7.8,19l0-0.1l0.5,0.2l0,0.2l0,0l0,0l-0.1,0.3
	l0,0.4l0,0.2l0,0.4L8.3,21l0.1,0.4l0.2,0.4L8.6,22L8.6,22z M9.6,22.4l-0.2-0.1l-0.2-0.1L9.1,22L9,21.9l0-0.1l-0.1-0.2l-0.1-0.3
	l-0.1-0.3l-0.1-0.3l0-0.3l0-0.3l0-0.3l0-0.3l0.1-0.3l0-0.2l0.7,0.2l0,1.3l0,0.2l0,0.2l0,0.3l0,0.3l0.1,0.2l0.1,0.2l0.1,0.2l0,0
	l0.1,0.1L9.6,22.4z M10,22.4L10,22.4L10,22.4l-0.2-0.2L9.8,22l-0.1-0.2l-0.1-0.2l0-0.2l-0.1-0.6l0-1.3l0-0.1l0.1,0l0.1,0l0.3,0.1
	l0.1,1.7l0,0.4l0,0.1l0,0l0,0.1l0.1,0.3l0,0l0,0l0.1,0.2l0.1,0.1L10,22.4z M11.5,23L11.2,23L11,22.9l-0.2-0.1l-0.1,0l-0.1-0.2
	l-0.1-0.2l-0.1-0.2l-0.1-0.4l0-0.3l0-0.9l0-0.5l0-0.4l0.4,0.1l0.1,0l-0.1,0.2l0,0.4l0,0.1l0,0l0,0.2l0,0.3l0,0.3l0.1,0.3l0.1,0.3
	l0.1,0.2l0,0.1l0.2,0.3l0.2,0.3L11.5,23L11.5,23z M12.6,23.5l-0.2-0.1l-0.2-0.1L12,23.1L11.9,23l-0.2-0.3l-0.2-0.3l-0.2-0.3L11.2,22
	l-0.1-0.3L11,21.5l-0.1-0.3l0-0.3l0-0.2l0-0.3l0.1-0.3l0.6,0.2l0,0.1l0,0.1l0,0.2l0,0.5l0.1,0.5l0.1,0.2l0,0.1l0,0.1l0,0.1l0,0
	l0,0.1l0.1,0.3l0,0l0,0.1l0.1,0.1l0.1,0.1l0.1,0.1l0.1,0.1l0.2,0.2l0.2,0.2l0,0L12.6,23.5z M13.7,23.6l-0.2,0l-0.2-0.1l-0.2-0.1
	L13,23.3l-0.2-0.2l-0.2-0.2l0-0.1l-0.2-0.3l-0.1-0.1L12.1,22l-0.1-0.2l0-0.1L12,21.3l-0.1-0.4l0-0.5l0-0.3l0,0l0.9,0.3l0.2,0.1
	l0,0.8l0,0.2l0,0l0.1,0.6l0,0.3l0.1,0.3l0.1,0.3l0.1,0.3L13.7,23.6L13.7,23.6L13.7,23.6z M14.8,23.8l-0.3,0l-0.3-0.1L14,23.6
	l-0.1-0.1l-0.2-0.3L13.6,23l-0.1-0.2l-0.1-0.2l-0.1-0.2L13.3,22l-0.1-0.8l0-0.1l0-0.6l0-0.1l0.7,0.2l0.1,0.6l0.1,0.7l0.1,0.4
	l0.1,0.2l0,0l0,0l0.1,0.2l0,0l0,0l0.1,0.3l0.2,0.3L14.8,23.8L14.8,23.8L14.8,23.8z M15.9,24l-0.3,0l-0.3-0.1l-0.1-0.1l-0.1-0.1
	l-0.2-0.2l-0.3-0.4l-0.2-0.3l-0.1-0.2l0,0l-0.1-0.3L14.3,22l0-0.2L14.2,21l0-0.2l0.6,0.1l0,0l0.1,0.6l0,0l0,0l0,0l0,0.2l0.1,0.4
	l0.1,0.3l0,0l0,0l0.1,0.2l0,0.1l0,0l0,0.1l0,0l0,0l0.1,0.2l0,0l0.1,0.2l0.1,0.2l0.2,0.3L15.9,24L15.9,24L15.9,24z M17,24.2l-0.3,0
	L16.5,24l-0.2-0.1L16,23.7l-0.2-0.2l-0.2-0.2L15.6,23l-0.2-0.4l-0.1-0.2l-0.1-0.3l-0.1-0.5l0-0.1l0-0.1L15,21l0.6,0.2l0,0l0,0l0,0.1
	l0.1,0.4l0.1,0.5l0.3,0.7l0.1,0.1l0.1,0.1l0.2,0.3l0.2,0.3l0.1,0.2l0,0l0,0l0.1,0.1L17,24.2L17,24.2L17,24.2L17,24.2z M17.8,24.3
	l-0.3-0.1l-0.2-0.2l-0.2-0.2L17,23.8l-0.3-0.4l-0.1-0.2l-0.2-0.4l-0.1-0.2L16.1,22L16,21.7l-0.1-0.5l0.5,0.1l0.3,0.1l0.1,0.3
	l0.1,0.3l0,0l0,0.1l0.2,0.5l0,0l0.1,0.2l0.1,0.3l0.1,0.3l0.1,0.1l0,0.1l0.1,0.2l0.1,0.2L17.8,24.3l0.2,0L17.8,24.3z M18.7,24.4
	l-0.2-0.1l-0.2-0.1L18.1,24l-0.2-0.2l-0.2-0.2l-0.1-0.1l-0.1-0.2L17.4,23l-0.2-0.5l0,0l-0.2-0.6l-0.1-0.5l0.4,0.1l0,0.1l0,0.1l0,0.1
	l0,0.1l0.1,0.4l0.1,0.2l0,0.1l0,0.1l0.1,0.1l0,0.1l0.1,0.2l0.1,0.2l0,0l0,0l0.1,0.2l0,0l0.2,0.2l0.2,0.2l0.2,0.2l0.1,0l0.1,0.1
	L18.7,24.4z M19.6,24.4l-0.2-0.1l-0.2-0.1L19,24.1l0,0l-0.2-0.1l-0.2-0.2l-0.3-0.3l0,0l-0.1-0.2l0-0.1l-0.2-0.5l0,0l0-0.1l-0.1-0.2
	l-0.1-0.5l0-0.2l0-0.1l0.7,0.1l0,0.2l0,0.1l0.1,0.3l0.1,0.3l0,0.1l0,0.1l0.2,0.4l0.2,0.4l0.1,0.2l0.2,0.2l0.2,0.2l0,0l0.1,0.1
	l0.2,0.2L19.6,24.4z M21.1,24.6l-0.3-0.1l-0.3-0.1l-0.3-0.1l-0.1-0.1l0,0l-0.2-0.2L19.7,24l-0.1-0.1l-0.2-0.2l-0.2-0.2L19,23.1
	l-0.1-0.3l-0.1-0.2l-0.2-0.8l0-0.1l0.6,0.1l0,0.2l0,0.1l0,0l0,0l0,0.1l0,0.1l0,0.1l0.1,0.3l0.1,0.3l0.2,0.3l0.2,0.3l0.2,0.2l0.2,0.2
	l0.2,0.2l0.3,0.2L21.1,24.6l0.1,0l0,0l0,0L21.1,24.6z M21.8,24.6l-0.3-0.1l-0.2-0.1l-0.2-0.1l-0.2-0.1L20.7,24l-0.2-0.2l-0.2-0.2
	l-0.3-0.4l-0.1-0.2l-0.2-0.4l-0.1-0.2l0-0.2l0-0.2l0-0.1l0-0.1L20,22l0.2,0.5l0.1,0.3l0.1,0.3l0.1,0.3l0.1,0.2l0.3,0.4l0.3,0.3
	l0.1,0.1l0.1,0.1L21.8,24.6l0.2,0L21.8,24.6z M23.2,24.8l-0.4-0.1l-0.3-0.1l-0.2-0.1l-0.2-0.1l-0.2-0.1l-0.3-0.2L21.5,24l-0.2-0.2
	l-0.2-0.2l-0.2-0.3l-0.1-0.2l-0.5-1l0.6,0.1l0.2,0.5l0.3,0.5l0.3,0.4l0.2,0.2l0.2,0.2l0.2,0.2l0.4,0.3l0.2,0.1l0.2,0.1l0.2,0.1l0,0
	L23.2,24.8z M24.2,24.8l-0.3-0.1l-0.2-0.1l-0.3-0.1l-0.1-0.1l-0.3-0.2l-0.3-0.2l-0.3-0.2l-0.3-0.2l-0.2-0.2l-0.2-0.3l-0.2-0.3
	l-0.2-0.3l-0.2-0.3l0,0l0-0.1l0.5,0l0.2,0l0.3,0.3l0.3,0.3l0.4,0.4l0.5,0.6l0.7,0.7l0,0l0,0l0.1,0.1l0.3,0.3L24.2,24.8z M25.8,25.2
	l-0.2,0l-0.2-0.1L25.1,25l-0.2-0.2l-0.3-0.2l-0.2-0.2l0,0l-1.1-1.2l-0.6-0.6l-0.3-0.3l0,0l0.6,0.1l0.4,0.4l0.6,0.7l0.5,0.6l0.2,0.2
	l0.2,0.2l0.3,0.2l0.3,0.2l0.1,0.1l0.1,0.1l0.1,0.1L25.8,25.2z M26.6,25l-0.3-0.1L26,24.8l-0.1-0.1l-0.3-0.2l-0.2-0.1L25,24.1
	l-0.8-0.8l-0.4-0.5l-0.2-0.3l-0.2-0.2l0.4,0l0,0l0.1,0l0.1,0l0,0l0.1,0.1l0.2,0.2l0.2,0.2l0.8,0.9l0.3,0.3l0.3,0.3l0.3,0.3L26.6,25
	l0.2,0L26.6,25z M27.8,25.1l-0.3-0.1L27.3,25L27,24.9l-0.3-0.2l-0.3-0.2l-0.3-0.2L26,24.1l-0.2-0.2l-1-1.1l-0.2-0.2l-0.1-0.1
	l0.6,0.1l0.2,0.2l0.2,0.2l0.9,1l0.2,0.2l0,0l0,0l0.4,0.3l0,0l0.1,0l0.3,0.2l0.3,0.2l0.3,0.1L27.8,25.1z M28.8,25l-0.3,0l-0.2,0
	l-0.1,0l-0.3-0.1l-0.2-0.1l-0.4-0.3l-0.4-0.3l-1-1.1l-0.2-0.2l-0.2-0.2l1.1,0.1l0.1,0l0,0l0.2,0.3l0.2,0.3l0.5,0.6l0.4,0.5l0.2,0.2
	l0.2,0.2l0.1,0.1L28.8,25L28.8,25L28.8,25L28.8,25L28.8,25L28.8,25z M29.9,25l-0.2,0l-0.1,0l0,0h-0.1l-0.1,0l-0.2-0.1l-0.2-0.1l0,0
	l-0.1,0l-0.2-0.1l-0.2-0.2L28.1,24l-0.2-0.2l-0.5-0.6l-0.1-0.1l-0.3-0.4l0.6,0.1H28l0.6,0.7l0.1,0.2l0.1,0.1L29,24l0.6,0.6L30,25
	L29.9,25z M30.7,25.1l-0.2,0L30.4,25l-0.2-0.1L30,24.7l-0.2-0.2l-0.6-0.7l-0.6-0.7l-0.3-0.3l0.6,0.1l0.9,1.1l0.1,0.1l0.2,0.3
	l0.5,0.4l0.2,0.2L30.7,25.1z M32.1,25l-0.2,0.1l-0.2,0l-0.2,0L31.2,25l-0.1-0.1l-0.2-0.2l-0.4-0.4l-0.3-0.4L30,23.8l-0.1-0.1
	l-0.6-0.8l0.3,0l0.1,0l0.2,0l0.1,0.2l0.4,0.5l0.2,0.2l0.1,0.1l0.1,0.1l0.1,0.1l0.1,0.1l0,0l0,0l0.2,0.2l0.1,0l0.1,0l0.3,0.2l0,0l0,0
	l0.1,0l0.2,0.1l0.3,0.1l0.1,0L32.1,25z M33,24.7l-0.3,0l-0.3,0l-0.2-0.1L32,24.5l-0.2-0.1l0,0l-0.4-0.2L31.2,24L31.1,24l-0.3-0.3
	l0,0l-0.2-0.2L30.3,23l0,0l0.9,0.1l0.3,0.3l0.4,0.4L32,24l0.2,0.2l0.4,0.3L33,24.7L33,24.7L33,24.7z M34.2,24.8l-0.2,0l-0.2,0
	l-0.1,0l-0.3-0.1l-0.2-0.1l-0.4-0.3l-0.2-0.1l-0.5-0.4l-0.5-0.5l0.1,0l0.1,0l0.3,0l0.1,0l0.8,0.6l0.3,0.2l0.6,0.4l0.3,0.2l0,0
	L34.2,24.8l0.1,0L34.2,24.8z M35.6,24.9l-0.2,0l-0.2-0.1l-0.3-0.1l-0.3-0.2l-0.2-0.1L34,24.3l-1.1-0.8l-0.3-0.3l0.7,0.1l0.5,0.3
	l0.4,0.3l0,0l0,0l1,0.7l0.3,0.2l0.1,0.1l0,0L35.6,24.9z M36.2,24.8l-0.3-0.1l-0.2-0.1l-1.5-1l-0.1-0.1l-0.2-0.1l-0.2-0.2l0,0l0.4,0
	l0.1,0.1l0.4,0.4l0.4,0.3l0.5,0.3l0.3,0.1L36.2,24.8L36.2,24.8z M37.1,24.7l-0.2,0l-0.1,0l-0.2,0l0,0l-0.1,0l-0.2-0.1l-0.2-0.1
	l-0.4-0.2l-0.6-0.4l-0.5-0.4l0.7,0.1l0.7,0.6l0.5,0.4l0.3,0.2L37.1,24.7L37.1,24.7z M37.7,24.6l-0.2,0l-0.2,0l-0.2-0.1l-0.2-0.1
	l-0.2-0.1l-0.2-0.1L36.4,24l-0.6-0.5l0.6,0.1l0.1,0.1l0.1,0.1l0.1,0.1l0.1,0.1l0.2,0.1l0.2,0.1l0.1,0l0,0l0.1,0l0,0l0.1,0l0.1,0.1
	l0.1,0l0.3,0.1L37.7,24.6z M38.3,24.4L38.3,24.4l-0.2,0l-0.1,0l0,0l-0.3-0.1l-0.2-0.1L37.2,24l0,0l-0.2-0.2l-0.2-0.2l0-0.1l0-0.1
	l0.2,0l0.6,0l0,0.1l0.1,0.1l0.1,0.1l0.1,0.1l0,0l0.1,0.1l0.1,0.1l0,0l0.1,0L38.3,24.4L38.3,24.4l0.1,0l0.1,0L38.3,24.4z M38.9,24.2
	L38.9,24.2l-0.3-0.1L38.3,24l-0.1-0.1L38,23.8l0,0l-0.2-0.2l0.3,0l0.1,0.1l0.3,0.2l0.1,0.1l0.1,0.1L38.9,24.2L38.9,24.2z M39.5,24.1
	L39.5,24.1l-0.3,0L39,24l-0.4-0.2l-0.2-0.1l0.3,0l0.1,0.1L39.5,24.1L39.5,24.1L39.5,24.1L39.5,24.1z M39.7,23.8L39.7,23.8L39.7,23.8
	l-0.3-0.1l0,0l0.2,0l0,0L39.7,23.8L39.7,23.8z M39.8,23.6L39.8,23.6L39.8,23.6l-0.4-0.1l0.1,0l0.1,0L39.8,23.6L39.8,23.6L39.8,23.6z
	"/>
</svg>
