<?xml version="1.0" encoding="utf-8"?>
<!-- Generator: Adobe Illustrator 17.1.0, SVG Export Plug-In . SVG Version: 6.00 Build 0)  -->
<!DOCTYPE svg PUBLIC "-//W3C//DTD SVG 1.1//EN" "http://www.w3.org/Graphics/SVG/1.1/DTD/svg11.dtd">
<svg version="1.1" id="Layer_1" xmlns="http://www.w3.org/2000/svg" xmlns:xlink="http://www.w3.org/1999/xlink" x="0px" y="0px"
	 viewBox="0 0 40 40" enable-background="new 0 0 40 40" xml:space="preserve">
<g>
	<path fill-rule="evenodd" clip-rule="evenodd" fill="#777777" d="M6.9,12.4c-0.7,0-1.4,0-2.1,0c-0.1,0-0.1,0.1,0,0.1
		c0,1.1,0,2.1,0,3.2c-1.6-0.3-3,0.2-3.7,0.9c-1.4,1.4-1.3,4.6,0.5,5.6c1.4,0.8,3.4,0.6,5.4,0.2C6.9,19.1,6.9,15.7,6.9,12.4z M4.7,21
		c-1.5,0.4-2.5-0.4-2.5-1.8c0-1.3,0.9-2.2,2.5-1.8C4.7,18.6,4.7,19.8,4.7,21z"/>
	<path fill-rule="evenodd" clip-rule="evenodd" fill="#777777" d="M8.2,14.6c0.7,0,1.4,0,2.1,0c0-0.7,0-1.5,0-2.2
		c-0.7,0-1.4,0-2.1,0C8.2,13.1,8.2,13.9,8.2,14.6z"/>
	<path fill-rule="evenodd" clip-rule="evenodd" fill="#777777" d="M39.6,17.4c-0.5-1.2-1.9-2-3.6-1.8c-1.4,0.1-2.2,0.7-2.7,1.5
		c-0.1,0.1-0.2,0.4-0.3,0.8c-0.8,2.5,0.6,4.8,2.8,5c0.7,0.1,1.5,0,2.3-0.3C39.6,21.8,40.6,19.5,39.6,17.4z M35.9,21
		c-1.2-0.5-1.2-3.4,0.2-3.7C38.5,16.9,38.2,21.9,35.9,21z"/>
	<path fill-rule="evenodd" clip-rule="evenodd" fill="#777777" d="M11.7,16.2c0,0.6,0,1.1,0,1.7c0.8-0.4,2-0.8,3.2-0.5
		c0.1,0.2,0.2,0.7,0.1,0.9c-1.3,0.1-2.7,0.3-3.4,1.1c-0.5,0.6-0.6,2,0,2.7c1,1.2,3.6,0.6,5.4,0.5c0-1,0-2.1,0-3.2
		c0-1.1,0.2-2.3-0.3-3C15.9,15,13,15.6,11.7,16.2z M15.1,21.2c-1,0.3-2.4,0-1.8-0.9c0.3-0.5,1.1-0.4,1.8-0.5
		C15.1,20.2,15.1,20.7,15.1,21.2z"/>
	<path fill-rule="evenodd" clip-rule="evenodd" fill="#777777" d="M24.5,17.6c-0.3-2.7-4.2-2.1-6.4-1.6c0,2.2,0,4.4,0,6.6
		c0.7,0,1.4,0,2.1,0c0-1.7,0-3.4,0-5.2c0.5-0.1,1.4-0.3,1.8,0c0.5,0.4,0.3,1.5,0.3,2.4c0,1,0,2,0,2.7c0.7,0,1.4,0,2.1,0
		C24.4,21,24.6,19,24.5,17.6z"/>
	<path fill-rule="evenodd" clip-rule="evenodd" fill="#777777" d="M26.8,16.4c-0.7,0.5-1.3,1.2-1.5,2.2c-0.5,2.5,0.8,4.2,3.1,4.2
		c0.5,0,1-0.2,1.4-0.2c-0.1,0.5-0.1,0.9-0.3,1.2c-0.7,1.2-3.1,0.7-4.1,0.1c0,0.7,0,1.3,0,2c0.8,0.3,1.7,0.5,2.8,0.4
		c1.6-0.1,2.6-0.7,3.1-1.8c0.9-1.7,0.4-4.8,0.4-7.1c0.1-0.1,0.3,0,0.5,0c0.2-0.5,0.5-1,0.7-1.6C30.8,15.5,28.4,15.4,26.8,16.4z
		 M27.7,20.4c-0.9-1.4,0.2-3.5,2.1-3c0,1.2,0,2.3,0,3.4C29,21.2,28,21,27.7,20.4z"/>
	<path fill-rule="evenodd" clip-rule="evenodd" fill="#777777" d="M8.2,19.5c0,1.2,0,2.5-0.2,3.4c-0.3,1-1.1,1.4-1.9,1.9
		c0.3,0.1,0.7,0.3,1,0.5c0.3,0.1,0.8,0.4,1,0.4c0.2,0,0.6-0.3,0.8-0.5c0.2-0.2,0.5-0.4,0.7-0.6c0.7-0.9,0.7-2.4,0.8-4.3
		c0-1.9,0-3,0-4.6l-2.1,0C8.2,16.8,8.2,18.3,8.2,19.5z"/>
</g>
</svg>
