<?xml version="1.0" encoding="utf-8"?>
<!-- Generator: Adobe Illustrator 17.1.0, SVG Export Plug-In . SVG Version: 6.00 Build 0)  -->
<!DOCTYPE svg PUBLIC "-//W3C//DTD SVG 1.1//EN" "http://www.w3.org/Graphics/SVG/1.1/DTD/svg11.dtd">
<svg version="1.1" id="Layer_1" xmlns="http://www.w3.org/2000/svg" xmlns:xlink="http://www.w3.org/1999/xlink" x="0px" y="0px"
	 viewBox="0 0 40 40" enable-background="new 0 0 40 40" xml:space="preserve">
<path fill="#777777" d="M28.1,7c-3.5-2-7.2-3.6-9.7-7c0,0-0.1,0-0.3,0c-0.1,2.7-1.7,4.3-4,5.5c-0.9,0.5-1.7,1-2.6,1.5
	C5.7,10.3,2.4,15.1,2,21.7C1.5,29,5.7,35.5,12.5,38.5c6.6,2.9,14.9,1.5,19.9-3.5C40.6,27,38.4,12.8,28.1,7z M28,36.5
	c-2.9,1.7-5.9,1.7-8.9,0.7c-0.3-0.1-0.6-0.3-0.8-0.5c-0.2-0.2-0.2-0.6-0.3-0.9c0.3-0.1,0.7-0.4,0.9-0.2c3.3,1.7,6.6,1.1,10-0.1
	C28.6,35.9,28.3,36.3,28,36.5z M21.6,34.1c0.1-1.6,1.2-2.3,2.1-2.4c1.1-0.2,2.4,0,3.5,0.3c0.4,0.1,0.6,1.1,0.9,1.6
	c-0.2,0.1-0.3,0.3-0.5,0.4C25.6,31,23.7,32.9,21.6,34.1z M33.5,31.4c-0.9,0.7-1.8,0.6-2.6-0.2c-1-0.9-2-1.7-2.9-2.7
	c-1.3-1.3-2.6-1.4-4.1-0.5c-1.7,1-3.4,2.2-5.2,2.9c-1.7,0.6-3.5,1-5.3,1c-2.5,0-4-1.8-4-4.3c0-3.6,3.6-6.6,7.2-5.9
	c2,0.4,4.1,1.4,5.8,2.6c2.4,1.8,4.5,2,6.8,0c0.9-0.7,1.9-1.3,2.9-1.8c1.6-0.8,2.9-0.3,3.5,1.4C36.5,26,35.3,30.1,33.5,31.4z"/>
</svg>
