<?xml version="1.0" encoding="utf-8"?>
<!-- Generator: Adobe Illustrator 17.1.0, SVG Export Plug-In . SVG Version: 6.00 Build 0)  -->
<!DOCTYPE svg PUBLIC "-//W3C//DTD SVG 1.1//EN" "http://www.w3.org/Graphics/SVG/1.1/DTD/svg11.dtd">
<svg version="1.1" id="Layer_1" xmlns="http://www.w3.org/2000/svg" xmlns:xlink="http://www.w3.org/1999/xlink" x="0px" y="0px"
	 viewBox="0 0 40 40" enable-background="new 0 0 40 40" xml:space="preserve">
<g>
	<path fill="#777777" d="M5.3,14.7c2.1-2.6,4.4-4.9,7-6.6c1.2-0.7,0.7-1.2-1-0.5c-2.9,1.1-5.5,3-6.8,6.4C4.1,15.5,4.9,15.4,5.3,14.7
		z"/>
	<path fill="#777777" d="M37.4,13.8c-1.7-3.1-4.3-5.7-7.4-7.5C27,4.5,23.4,3.5,19.9,3.5c-3.6,0-7.2,1-10.3,3
		C6.5,8.4,4,11.1,2.3,14.3c-1.5,2.8-2.2,5.8-2.3,8.9h0v11.9l0.8,0v0v0l-0.8,0c0,0.8,1.1,1,2.1,1.1c1,0.1,2.4,0.2,4.6,0.2
		c0.1,0,0.2,0,0.3,0l0-0.1h26c0,0,0-0.1,0-0.1c2.2,0,3.7-0.1,4.8-0.2c1.5-0.1,2.2-0.3,2.2-0.9V23.7C40,20.2,39.1,16.8,37.4,13.8z
		 M10,7.2c3-1.9,6.4-2.9,9.9-2.9c3.4,0,6.7,0.9,9.7,2.7c2.8,1.7,5.2,4.1,6.9,6.9c-0.4,0.4-1.2,1.2-1.2,2.4c0,0.8,0,4.9,0,8.3
		c0,2.3,0,4.2,0,4.5c0,0.1,0,0.7-0.3,0.7H24.2v0.4l-0.4-1.9h-7.5l-0.6,2.4v-0.4H4.8c-0.3,0-0.3-0.5-0.3-0.7c0-0.3,0-2.2,0-4.5
		c0-3.3,0-7.4,0-8.3c0-1.2-0.8-2-1.2-2.4C4.8,11.5,7.1,9,10,7.2z M32.7,35.5l0,0.4l0,0c-1.3-1-6.5-1.2-12.7-1.2
		c-6.6,0-12,0.2-12.9,1.4l0-0.4c-2,0-3.5,0-4.5-0.1c-1.2-0.1-1.6-0.3-1.7-0.4c0.1-0.1,0.5-0.3,1.5-0.5c1-0.2,2.3-0.3,4.2-0.4
		c3-0.2,7.2-0.2,13.4-0.2c5.5,0,10.2,0,13.7,0.2c1.8,0.1,3.2,0.2,4.1,0.4c0.8,0.2,1.1,0.3,1.3,0.4C38.5,35.3,36.9,35.4,32.7,35.5z
		 M39.2,34.2c-0.9-0.4-2.5-0.6-5.2-0.8c-3.5-0.2-8.4-0.2-14-0.2c-12.5,0-17.5,0.3-19.2,1V24.1h0l0-0.4c0-3,0.7-5.9,2-8.5
		c0.3,0.3,0.8,0.9,0.8,1.7c0,0.8,0,4.9,0,8.3c0,2.3,0,4.2,0,4.5C3.6,30.3,4,31,4.8,31h10.8l-0.2,0.8h9.2l-0.3-1.2h10.7
		c0.8,0,1.2-0.7,1.2-1.5c0-0.3,0-2.2,0-4.5c0-3.3,0-7.4,0-8.3c0-0.7,0.5-1.3,0.8-1.7c1.5,2.8,2.2,5.9,2.2,9V34.2z"/>
	<path fill="#777777" d="M27.6,16.2l-2.4,5.6l-2.8-4.2L19.5,20l-2.3-2.4l-2.7,4l-2.9-3.5l-1.8,1.1H6.3v2.3c0,1.3,1,2.3,2.3,2.3h22.9
		c1.3,0,2.3-1,2.3-2.3v-2.6h-3.3L27.6,16.2z"/>
	<path fill="#777777" d="M6.3,16.3v2.3h3.3l2.1-1.3l2.7,3.3l2.7-4l2.4,2.5l2.9-2.5l2.6,3.8l2.3-5.3l3.4,3.1h3.1v-1.9
		c0-1.3-1-2.3-2.3-2.3H8.6C7.3,14,6.3,15.1,6.3,16.3z"/>
</g>
</svg>
