<?xml version="1.0" encoding="utf-8"?>
<!-- Generator: Adobe Illustrator 17.1.0, SVG Export Plug-In . SVG Version: 6.00 Build 0)  -->
<!DOCTYPE svg PUBLIC "-//W3C//DTD SVG 1.1//EN" "http://www.w3.org/Graphics/SVG/1.1/DTD/svg11.dtd">
<svg version="1.1" id="Layer_1" xmlns="http://www.w3.org/2000/svg" xmlns:xlink="http://www.w3.org/1999/xlink" x="0px" y="0px"
	 viewBox="0 0 40 40" enable-background="new 0 0 40 40" xml:space="preserve">
<g>
	<path fill="#777777" d="M18.5,13.3c0.6,0.6,1.2,1.2,1.8,1.7c-0.6-1.2-1.6-2.2-2.1-3.5c-0.3-0.8-0.2-1.6,0.2-2.3
		c0.5-0.9,1.2-1.5,2-2.1c0.6-0.5,1.3-1.1,1.8-1.7c0.7-0.8,1.2-1.7,1.4-2.7c0.2-0.9,0-1.9-0.7-2.7c0.1,0.7,0.2,1.4,0.1,2.1
		c-0.2,0.9-0.7,1.7-1.4,2.4c-1.2,1.2-2.7,2.1-3.9,3.3c-0.4,0.5-0.9,0.9-1.1,1.6c-0.2,0.6-0.1,1.2,0.2,1.8
		C17.3,12,17.9,12.6,18.5,13.3z"/>
	<path fill="#777777" d="M20.4,10.1c-0.1,1.1,0.4,2.1,1.1,2.9c0.3,0.4,0.6,0.8,0.6,1.3c0,0.7-0.4,1.3-0.8,1.7c0.1,0,0.2-0.1,0.3-0.2
		c0.7-0.5,1.4-1,1.8-1.8c0.2-0.5,0.2-1.2-0.1-1.7c-0.4-0.6-0.8-1.1-1.1-1.8c-0.2-0.4-0.2-0.8-0.1-1.2c0.2-0.5,0.5-0.9,0.9-1.3
		c1-1,2.3-1.7,3.5-2.5c-1.5,0.4-3.1,1-4.3,2C21.3,8.2,20.5,9.1,20.4,10.1z"/>
	<path fill="#777777" d="M29.3,16.5c0.1,0.6-0.2,1.3-0.6,1.7C28,19,27.2,19.5,26.3,20c-0.1,0.1-0.2,0.1-0.2,0.2
		c1.2-0.3,2.3-0.7,3.3-1.5c0.5-0.4,1-1,1.1-1.7c0.1-0.6-0.2-1.2-0.6-1.6c-0.5-0.5-1.3-0.7-2-0.6c-0.4,0.1-0.9,0.1-1.1,0.5
		c0.3-0.1,0.7-0.2,1-0.2C28.4,15.2,29.1,15.7,29.3,16.5z"/>
	<path fill="#777777" d="M13.2,17.1c0.9,0.2,1.8,0.3,2.7,0.4c0.8,0.1,1.6,0.1,2.4,0.1c2.1,0,4.2-0.2,6.2-0.6c0.2,0,0.4-0.1,0.6-0.2
		c0.3-0.2,0.7-0.4,1.1-0.6c-1.7,0.3-3.3,0.5-5,0.6c-1.7,0.1-3.4,0.2-5.1,0.1c-0.5,0-1-0.1-1.4-0.3c-0.1,0-0.3-0.1-0.2-0.3
		c0.1-0.2,0.3-0.3,0.5-0.4c0.7-0.3,1.5-0.5,2.3-0.8c-1.3,0-2.7,0.3-3.9,0.8c-0.3,0.1-0.6,0.2-0.8,0.5c-0.1,0.1-0.1,0.3,0,0.3
		C12.7,16.9,12.9,17,13.2,17.1z"/>
	<path fill="#777777" d="M24,18.9c-1.2,0.2-2.3,0.4-3.5,0.5c-1.3,0.1-2.6,0-3.9-0.1c-0.2,0-0.5-0.1-0.7-0.2
		c-0.1-0.1-0.2-0.2-0.2-0.3c0-0.2,0.2-0.4,0.3-0.5c-0.4,0.1-0.8,0.3-1.2,0.6c-0.1,0.1-0.3,0.3-0.3,0.5c0.1,0.2,0.3,0.4,0.5,0.5
		c0.5,0.3,1,0.4,1.6,0.5c1.4,0.2,2.8,0.2,4.1,0.1c1.5-0.1,2.9-0.4,4.3-0.8C24.7,19.4,24.3,19.2,24,18.9z"/>
	<path fill="#777777" d="M16.7,21.2c-0.4,0.1-0.8,0.2-1.1,0.5c-0.2,0.1-0.3,0.3-0.2,0.5c0.1,0.2,0.3,0.4,0.5,0.5
		c0.6,0.3,1.2,0.5,1.9,0.6c1.4,0.2,2.9,0.2,4.3-0.1c0.8-0.2,1.7-0.4,2.5-0.7c-0.5-0.2-1-0.5-1.5-0.7c-0.8,0.1-1.7,0.3-2.5,0.4
		c-1.1,0.1-2.3,0-3.4-0.1c-0.3-0.1-0.6-0.1-0.8-0.3C16.3,21.5,16.5,21.3,16.7,21.2z"/>
	<path fill="#777777" d="M11.3,25.5c2.1,0.4,4.1,0.6,6.2,0.6c2.8,0.1,5.6,0,8.3-0.6c0.9-0.2,1.9-0.4,2.7-0.8
		c0.3-0.2,0.6-0.3,0.7-0.6c0-0.3-0.3-0.5-0.5-0.6c0.1,0.2,0.2,0.4,0.1,0.6c-0.2,0.3-0.6,0.4-1,0.6c-1.1,0.3-2.3,0.4-3.4,0.6
		c-3,0.3-6.1,0.3-9.1,0.1c-1-0.1-2.1-0.2-3-0.6c-0.2-0.1-0.4-0.1-0.4-0.3c0.1-0.2,0.2-0.3,0.4-0.4c0.7-0.4,1.5-0.5,2.2-0.6
		c-0.2-0.1-0.5-0.1-0.8-0.1c-0.6,0-1.3,0.2-1.9,0.4c-0.5,0.2-1.1,0.4-1.5,0.8c-0.2,0.1-0.3,0.4-0.1,0.6
		C10.5,25.3,10.9,25.4,11.3,25.5z"/>
	<path fill="#777777" d="M28.5,25.9c-1.3,0.4-2.6,0.6-3.9,0.8c-2.2,0.3-4.5,0.4-6.7,0.3c-1.4-0.1-2.7-0.1-4.1-0.4
		c0.3,0.2,0.7,0.3,1.1,0.4c1.5,0.3,3.1,0.4,4.6,0.4c2.3,0,4.5,0,6.8-0.4c1.1-0.2,2.1-0.4,3.1-0.9c0.5-0.3,1-0.7,1.1-1.2
		C29.9,25.4,29.2,25.6,28.5,25.9z"/>
	<path fill="#777777" d="M10.9,35.8c0,0.7,0,1.3-0.1,2c-0.1,0.7-0.7,1.1-1.3,1.5c0.2,0.2,0.4,0.5,0.6,0.7c0.7-0.3,1.3-0.7,1.7-1.4
		c0.3-0.6,0.3-1.3,0.4-2c0-2.5,0-4.9,0-7.4c-0.5,0-0.9,0-1.4,0C10.9,31.4,10.9,33.6,10.9,35.8z"/>
	<path fill="#777777" d="M16.5,31.4c-1-0.1-2,0.1-2.9,0.5c0.1,0.3,0.1,0.5,0.2,0.8c0.7-0.2,1.4-0.4,2.1-0.4c0.3,0,0.7,0.1,0.9,0.4
		c0.2,0.4,0.2,0.8,0.2,1.3c-0.6,0-1.1,0-1.7,0.1c-0.6,0.1-1.2,0.3-1.6,0.8c-0.4,0.5-0.5,1.2-0.4,1.9c0.1,0.4,0.4,0.8,0.8,1
		c0.5,0.2,1.1,0.2,1.7,0.1c0.5-0.1,0.9-0.4,1.3-0.7c0,0.2,0.1,0.5,0.1,0.7c0.3,0,0.7,0,1,0c0-1.5,0-3,0-4.5c0-0.4-0.1-0.9-0.4-1.2
		C17.5,31.6,17,31.4,16.5,31.4z M16.9,36.3c-0.4,0.3-0.8,0.6-1.2,0.6c-0.3,0-0.7,0-0.9-0.3c-0.2-0.3-0.2-0.7-0.2-1
		c0.1-0.3,0.4-0.5,0.6-0.6c0.5-0.2,1.1-0.2,1.7-0.2C16.9,35.3,16.9,35.8,16.9,36.3z"/>
	<path fill="#777777" d="M28.2,31.4c-1-0.1-2,0.1-2.9,0.5c0.1,0.3,0.1,0.5,0.2,0.8c0.7-0.2,1.4-0.4,2.2-0.3c0.3,0,0.7,0.2,0.8,0.5
		c0.2,0.4,0.1,0.8,0.1,1.2c-0.9,0-1.8,0-2.6,0.4c-0.5,0.2-0.9,0.7-1,1.3c-0.1,0.6,0,1.3,0.4,1.8c0.5,0.4,1.1,0.5,1.7,0.4
		c0.6-0.1,1.2-0.4,1.7-0.8c0,0.2,0.1,0.4,0.1,0.7c0.3,0,0.7,0,1,0c0-1.5,0-2.9,0-4.4c0-0.5-0.1-1-0.4-1.3
		C29.2,31.6,28.7,31.4,28.2,31.4z M27.4,36.9c-0.3,0-0.7,0-1-0.3c-0.2-0.3-0.2-0.7-0.1-1c0.1-0.3,0.3-0.5,0.6-0.6
		c0.5-0.2,1.1-0.2,1.7-0.2c0,0.5,0,1,0,1.5C28.3,36.6,27.9,36.8,27.4,36.9z"/>
	<path fill="#777777" d="M21.8,36.5c-0.1-0.2-0.1-0.5-0.2-0.7c-0.1-0.6-0.3-1.1-0.5-1.6c-0.3-0.9-0.5-1.8-0.8-2.6
		c-0.5,0-0.9,0-1.4,0c0.6,2.1,1.3,4.2,1.9,6.3c0.5,0,1.1,0,1.6,0c0.9-2,1.6-4.1,2-6.3c-0.5,0-0.9,0-1.4,0
		C22.8,33.2,22.4,34.8,21.8,36.5z"/>
</g>
</svg>
