<?xml version="1.0" encoding="utf-8"?>
<!-- Generator: Adobe Illustrator 18.0.0, SVG Export Plug-In . SVG Version: 6.00 Build 0)  -->
<!DOCTYPE svg PUBLIC "-//W3C//DTD SVG 1.1//EN" "http://www.w3.org/Graphics/SVG/1.1/DTD/svg11.dtd">
<svg version="1.1" id="Layer_1" xmlns="http://www.w3.org/2000/svg" xmlns:xlink="http://www.w3.org/1999/xlink" x="0px" y="0px"
	 viewBox="0 0 612 792" enable-background="new 0 0 612 792" xml:space="preserve">
<g>
	<g>
		<g>
			<path fill="#787878" d="M111.3,398.7l-11.8-11.8C63,350.4,51.7,298.3,65.5,252C29,243.8,1.8,211.2,1.8,172.2
				c0-45.2,36.6-81.9,81.9-81.9c40.7,0,74.5,29.7,80.8,68.6c44.2-10.4,92.5,1.7,127,36.1l4.7,4.7l-60.4,60.4l-4.7-4.7
				c-19.6-19.6-51.4-19.6-71,0c-19.7,19.7-19.6,51.6-0.1,71.1l11.8,11.8l60.4,60.4l63.9,63.9L235.7,523l-64-63.9L111.3,398.7"/>
			<path fill="#787878" d="M178.8,331.2l64-63.9l60.4-60.4l11.8-11.8c36.4-36.4,88.2-47.8,134.3-34.3c5.5-39.9,39.7-70.6,81.1-70.6
				c45.2,0,81.9,36.6,81.9,81.9c0,41.6-31,75.9-71.1,81.2c13.2,45.9,1.7,97.3-34.4,133.5l-4.7,4.7l-60.4-60.4l4.7-4.7
				c19.6-19.6,19.6-51.4,0-71c-19.5-19.5-51.2-19.6-70.9,0.1l-11.8,11.8l-60.4,60.4l-63.9,63.9L178.8,331.2"/>
		</g>
	</g>
	<g>
		<g>
			<g>
				<path fill="#787878" d="M450.9,636c-46.5,14.3-99.1,3-135.9-33.7l-4.6-4.6l60.4-60.4l4.6,4.6c19.6,19.6,51.4,19.6,71,0
					c19.5-19.5,19.6-51.2-0.1-70.9l-11.8-11.8l-60.4-60.4l-63.8-63.9l60.4-60.4l63.7,63.8l60.4,60.4l11.9,11.9
					c34.7,34.7,46.7,83.6,35.9,128c39.8,5.6,70.4,39.8,70.4,81.1c0,45.2-36.7,81.9-81.9,81.9C491.5,701.5,458.5,673.4,450.9,636"/>
				<path fill="#787878" d="M427.3,466.3l-63.7,63.8l-60.4,60.4l-11.8,11.9c-34.9,34.9-84.1,46.7-128.7,35.7
					c-8.3,36.4-40.9,63.5-79.8,63.5C37.7,701.5,1,664.9,1,619.7C1,581,27.9,548.5,64,540c-11.4-44.9,0.4-94.4,35.5-129.5l4.6-4.6
					l60.4,60.4l-4.7,4.6c-19.6,19.6-19.6,51.4,0,71c19.7,19.7,51.5,19.6,71.1,0.1l11.8-11.8l60.4-60.4l63.8-63.9L427.3,466.3"/>
			</g>
		</g>
	</g>
</g>
</svg>
