<?xml version="1.0" encoding="utf-8"?>
<!-- Generator: Adobe Illustrator 17.1.0, SVG Export Plug-In . SVG Version: 6.00 Build 0)  -->
<!DOCTYPE svg PUBLIC "-//W3C//DTD SVG 1.1//EN" "http://www.w3.org/Graphics/SVG/1.1/DTD/svg11.dtd">
<svg version="1.1" id="Layer_1" xmlns="http://www.w3.org/2000/svg" xmlns:xlink="http://www.w3.org/1999/xlink" x="0px" y="0px"
	 viewBox="0 0 40 40" enable-background="new 0 0 40 40" xml:space="preserve">
<g>
	<path fill="#777777" d="M33.4,25.4c0.2,0,0.4-0.1,0.6-0.1c1.6-0.5,2.9-1.2,3.4-2.9c0.2-0.7,0.3-1.5,0.2-2.3c-0.1-1.7-1-3.1-2.3-4.5
		c-0.5,1.7-1.7,2.5-3.3,2.8c-0.7,0.2-0.9,0.8-1.1,1.5c0.3,0.1,0.5,0.1,0.7,0.2c1,0.3,1.6,1,1.6,2.1c0,1,0,2.1,0,3.2
		C33.3,25.3,33.4,25.4,33.4,25.4z"/>
	<path fill="#777777" d="M22.2,21.5c-1.9,0-3.8,0-5.7,0c-0.2,0-0.4,0-0.7,0c0,2,0,4,0,5.9c0.6,0,1.1,0,1.7,0c0-1.8,0-3.5,0-5.3
		c0.5,0,0.9,0,1.4,0c0,1.8,0,3.6,0,5.3c0.6,0,1.2,0,1.8,0c0-1.8,0-3.5,0-5.3c1-0.2,1.4,0.1,1.4,1c0,1.2,0,2.4,0,3.6
		c0,0.2,0,0.4,0,0.7c0.6,0,1.1,0,1.8,0c0-1.4,0-2.8,0-4.2C24,22.1,23.4,21.5,22.2,21.5z"/>
	<path fill="#777777" d="M39.3,17.4c-1.2-2.8-3.4-4.7-5.9-6.2c-0.3-0.2-0.6-0.3-1-0.5c0.2,0.4,0.3,0.7,0.4,1
		c0.2,0.9,0.5,1.7,0.6,2.6c0.1,1.1-0.4,1.7-1.5,1.9c-1.7,0.4-2.5,1.6-3.1,3.1c0.3,0.1,0.6,0.1,0.8,0.2c0.1-0.3,0.2-0.5,0.3-0.7
		c0.5-0.9,1.1-1.6,2.1-1.8c1.6-0.4,2.2-1.3,2.2-2.9c0-0.4-0.1-0.9-0.1-1.4c2,1,4.1,3.7,4.7,6c0.8,3,0,6.6-4.3,7.8
		c-0.4,0.1-0.7,0.2-1.1,0.3c0,0.2,0,0.3,0,0.4c0,0.1,0,0.2,0.1,0.4c2.2-0.4,4.2-1.1,5.5-3.1C40.3,22.3,40.3,19.8,39.3,17.4z"/>
	<path fill="#777777" d="M12.8,21.4c-1.5,0-3.1,0-4.6,0c-0.2,0-0.4,0-0.5,0c0,2,0,4,0,6c0.6,0,1.2,0,1.8,0c0-0.8,0-1.5,0-2.2
		c1.1,0,2,0,3.1,0c0,0.8,0,1.5,0,2.2c0.7,0,1.2,0,1.8,0c0-0.1,0.1-0.2,0.1-0.3c0-1.4,0-2.8,0-4.2C14.5,22,13.8,21.4,12.8,21.4z
		 M12.6,24.5c-1,0-2,0-3,0c0-0.8,0-1.5,0-2.3c0.8,0,1.7,0,2.5,0c0.2,0,0.5,0.4,0.5,0.7C12.6,23.4,12.6,23.9,12.6,24.5z"/>
	<path fill="#777777" d="M31.3,21.5c-0.1,0-0.2-0.1-0.4-0.1c-1.8,0-3.6,0-5.4,0c0,2.1,0,4.1,0,6.1c0.6,0,1.2,0,1.9,0
		c0-0.9,0-1.7,0-2.6c1.2,0,2.3,0,3.4,0c0.7,0,1.1-0.4,1.2-1C32.2,22.6,32,21.8,31.3,21.5z M30.1,24.1c-0.9,0-1.7,0-2.7,0
		c0-0.6,0-1.2,0-1.8c0.9,0,1.8,0,2.7,0C30.1,22.9,30.1,23.4,30.1,24.1z"/>
	<path fill="#777777" d="M1.9,26.8c0-1.8,0-3.5,0-5.3c-0.7,0-1.3,0-1.9,0C0,21.6,0,21.8,0,21.9c0,1.4,0,2.9,0,4.3
		c0,0.9,0.4,1.3,1.4,1.3c1.5,0,3.1,0,4.6,0c0.2,0,0.3,0,0.5-0.1c0-0.2,0-0.4,0-0.7C4.9,26.8,3.5,26.8,1.9,26.8z"/>
</g>
</svg>
