<?xml version="1.0" encoding="utf-8"?>
<!-- Generator: Adobe Illustrator 18.0.0, SVG Export Plug-In . SVG Version: 6.00 Build 0)  -->
<!DOCTYPE svg PUBLIC "-//W3C//DTD SVG 1.1//EN" "http://www.w3.org/Graphics/SVG/1.1/DTD/svg11.dtd">
<svg version="1.1" id="Layer_1" xmlns="http://www.w3.org/2000/svg" xmlns:xlink="http://www.w3.org/1999/xlink" x="0px" y="0px"
	 viewBox="0 0 612 792" enable-background="new 0 0 612 792" xml:space="preserve">
<path fill="#777777" d="M36.1,398.8c-6.4,29.6-8.2,59.8-8.4,90.1c-0.9,0.3-1.8,0.6-2.7,0.8c-3.8-8-8.5-15.6-11.2-24
	C1.7,428.6-1.1,390,2.4,351.4c3.9-44.2,22.2-83.4,47.5-119.5c27.3-38.9,62.6-67.8,107.4-84.5c29.8-11.1,60.8-16.1,92.3-12.3
	c57.5,6.9,108.7,30,154.7,64.9c12.6,9.6,24.4,20.3,37.6,31.3c-3.5,2.8-5.8,5-8.5,6.9c-23.3,16.2-45,34-62.6,56.5
	c-2.5,3.3-4.1,6-2.4,11c10.5,30.9,32,50.8,61.2,63.6c2,0.9,4,1.5,6,2.3c0.2,0.1,0.4-0.2,1.8-0.7c-3.7-2.7-6.9-5.1-10.2-7.4
	c-19.6-13.7-33.7-31.6-41-54.5c-0.8-2.4-0.2-6.4,1.4-8.1c35.3-39.4,75.6-72.1,124.9-92.8c7.1-3,12.2-2.4,18.1,2.9
	c31.7,28.6,53.7,63.5,67.7,103.5c10.2,29.4,15.4,59.6,14.6,90.8c-0.9,37.8-9.3,74-23.5,108.8c-16.4,40.2-38.9,76.4-71.9,105.3
	c-3.4,3-7.1,5.8-10.8,8.5c-11.1,8.2-29.8,2.9-34.8-10.1c-0.7-1.7-0.2-4.2,0.5-6.1c10.5-28.7,22-57,31.5-86
	c8-24.3,13.4-49.4,10.4-75.4c-1.3-11.5-5.2-22.1-13.7-30.4c-9.1-8.9-20.4-10.7-29.9-2.4c-7.6,6.6-14.3,15-19.2,23.8
	c-19.3,35-32.3,72.5-41.6,111.3c-7.4,30.9-13.8,62.1-20.7,93.1c-0.9,4.1-2.6,6.6-7.4,7.5c-18.5,3.5-37.1,6.5-56,5.1
	c-8.4-0.6-16.6-2.7-24.9-4.1c-7.2-1.2-9.7-5.1-9.6-12.5c0.3-30.2,0.4-60.4-0.4-90.5c-0.5-18.3-3.2-36.6-11.4-53.4
	c-3.1-6.4-7.3-12.6-12.3-17.6c-10.9-10.9-25-10.6-36.1,0.1c-9.9,9.5-14.9,21.8-18.2,34.8c-9.8,38.4-10,77.4-6.7,116.5
	c1.4,16.9,1.7,17-14.7,22c-28.7,8.8-57.1,5.7-85.4-2c-4.2-1.2-5.6-3.7-6.5-8.1c-7-34.5-13.6-69.1-22-103.2
	c-9-36.9-19.8-73.5-29.9-110.1c-2.9-10.6-6.3-21-9.5-31.5C37.5,398.8,36.8,398.8,36.1,398.8z"/>
</svg>
