<?xml version="1.0" encoding="utf-8"?>
<!-- Generator: Adobe Illustrator 18.0.0, SVG Export Plug-In . SVG Version: 6.00 Build 0)  -->
<!DOCTYPE svg PUBLIC "-//W3C//DTD SVG 1.1//EN" "http://www.w3.org/Graphics/SVG/1.1/DTD/svg11.dtd">
<svg version="1.1" id="Layer_1" xmlns="http://www.w3.org/2000/svg" xmlns:xlink="http://www.w3.org/1999/xlink" x="0px" y="0px"
	 viewBox="0 0 612 792" enable-background="new 0 0 612 792" xml:space="preserve">
<g>
	<path fill="#777777" d="M213.6,456.9c-25.4,5.2-50.5,11.6-75.8,17c-2.7,0.6-6.2-2.2-9.3-3.4c34.4-6.5,66.7-13.5,96.5-28.6
		c-0.5-2.7-1-5.4-1.5-8.1c-30.1,5.2-60.1,10.4-92.5,16c-0.4-5.5-0.7-10.3-0.8-11.7c31.8-4.1,60.9-7.9,91.5-11.9
		c-1.8-7.2-2.6-10.6-3.6-14.7c-28.8,2.2-56.9,13.8-89.9,0.1c33.4-5.7,64.9,4.5,95.9-17.2c-33.8-10.6-62.9-19.7-95.6-29.9
		c0-16.5,0-35.3,0-54.4c5-28.5,38.6-37.8,38.6-37.8v-6.5c0,0-0.9,0-2.6,0c0-0.2-0.1-0.3-0.1-0.5c-20.1,0-40.1,0-61.7,0
		c0,95,0,282.5,0,282.5s37.3,0,54.2,0c2.8-0.3,5.5-0.7,8.3-1.3c1.1,0,1.7,0,1.7,0v-0.4c39.9-8.5,75.3-40.6,76.1-76.3
		c-31.1,21.4-69.9,29.4-86.7,65c-10.7-5.4-25.9-15.8-28.2-32.3c0.8-4.6,2.2-9.6,4.3-14.9c35.3,16,87.5,0.4,105.5-31.3
		C229.8,456.4,221.4,455.3,213.6,456.9z"/>
	<path fill="#777777" d="M375.3,357C375.3,357,375.3,357,375.3,357c0.2,0.2,0.3,0.3,0.5,0.4L375.3,357z"/>
	<path fill="#777777" d="M388.4,413.2c1.3-18.3-8.4-37.4-13-56.2c-33.7-31.5-71-41-113.6-18c3.4-25.4-32.4-71.7-65.6-83.4
		c0,7.1,0,13.6,0,20.2c1.3-0.8,2.6-1.7,3.9-2.5c15,21.3,29.7,42.8,45.3,63.6c2.1,2.8,8.5,2.3,12.9,3.4c-6.2,6.1-12.3,12.2-18.5,18.3
		c0.6-42.6-33.3-60.7-59.4-84.6c-19.2,24-2.5,56.9,46.7,91.2c3.4-1.7,7.7-3.9,12-6.1c-16.9,32.3-14.4,64.8-0.4,97.3
		c0,0-0.5-0.5-0.5-0.5c0,0,0,0,0.1,0.1c0,0-0.1-0.1-0.1-0.1c-0.1,0.2-0.2,0.3-0.3,0.5c0.3,0,0.5,0,0.8,0
		c5.9,5.8,11.9,11.6,17.8,17.4l-0.1-0.3c4,1.8,8.2,3.3,12.1,5.3C323.1,506.3,384.1,474.1,388.4,413.2z"/>
	<path fill="#777777" d="M0.8,546.4c20.6,0,63.2,0,63.2,0v-7.1c0,0-39.1-12.1-39.2-41c0-61.6,0-119.4,0-181
		c0-34.2,39.3-45.1,39.3-45.1v-6.5c0,0-42.6,0-63.3,0C0.8,359.2,0.8,452.3,0.8,546.4z"/>
	<path fill="#777777" d="M509.9,265.7c-20.6,0-63.2,0-63.2,0v7.1c0,0,39.1,12.1,39.2,41c0,2.1,0,4.2,0,6.3
		c-40.2,3.8-72.4,16.9-94.2,50.8c30.8-3.9,61.6-7.8,93.1-11.8c0,6.9,0,13.9,0,22c-31.7-10.3-61.2-9.7-91,4.5
		c23.3,8.7,46.5,17.3,70.8,26.4c5.3-0.4,11.8-1,21.4-1.8c0,27.9,0,55.8,0,84.5c0,34.2-39.3,45.1-39.3,45.1v6.4
		c-0.1,0-0.1,0.1-0.2,0.1c0.1,0,0.1,0,0.2,0v0c0,0,42.6,0,63.3,0c0,0,0,0,0,0c0.1,0,0.2,0,0.3,0c0-94.5,0-187.9,0-280.7
		C510.2,265.7,510.1,265.7,509.9,265.7C509.9,265.7,509.9,265.7,509.9,265.7z"/>
	<path fill="#777777" d="M291.7,318.5C305.9,262,296.3,215.7,267,198C245.4,229.2,259,295.4,291.7,318.5z"/>
	<path fill="#777777" d="M355.1,483.5c4,51.4,33.9,96.5,65.3,98.6C435.3,556.1,390,488.6,355.1,483.5z"/>
	<path fill="#777777" d="M351,330.3c5.7,3.6,11.4,7.3,17.6,11.2c33.8-15.1,54.3-41.3,68.9-73.1C413.3,250.4,373.4,286.2,351,330.3z"
		/>
	<path fill="#777777" d="M290,493.7c-5.8-1.3-11.8-2.7-18.8-4.4c-23.1,28.5-33.6,60.7-35.4,97.4C271.5,577.6,293.2,539.4,290,493.7z
		"/>
	<path fill="#777777" d="M342.7,325c19-27.3,37.4-53.8,56.7-81.6c-20.2-10.9-32.1-1.2-42.2,8.3c-18.9,17.9-25.9,42.1-34.1,67.4
		C330.4,321.3,335.4,322.9,342.7,325z"/>
	<path fill="#777777" d="M300.5,497c-6.6,31.8-12.9,62-19.5,93.4c34.5-1.7,54.3-53.5,39.8-93.4C315.6,497,310.1,497,300.5,497z"/>
	<path fill="#777777" d="M381.3,457.6c25.1,22.5,52,35.5,82.9,41.2c6.5-26.9-20.8-49.5-72.2-62.4
		C388.9,442.7,385.5,449.3,381.3,457.6z"/>
	<path fill="#777777" d="M311.4,316.5c25.4-34.2,37.1-74.8,29.1-100.3c-18.7,2.9-29.2,12.7-34.3,31.9
		C297.9,280.2,299.9,306.8,311.4,316.5z"/>
	<path fill="#777777" d="M342.4,594.3c36.4-15.3,25.7-71.1-5.3-103.8C333.6,524.8,321.4,559.3,342.4,594.3z"/>
	<path fill="#777777" d="M397.7,400.4c0,7.9,0,15.8,0,25c25.7,12.7,51.3,25.4,78.8,38.9C478.6,428.5,443.5,401.2,397.7,400.4z"/>
	<path fill="#777777" d="M229.6,378.7c-32.9-20.8-47.9-58.8-90.8-61.5C135.7,353.4,184.6,388.8,229.6,378.7z"/>
	<path fill="#777777" d="M429.6,498c-17.5-10.9-35.9-20.3-55.1-31c-2,2.5-4.4,5.6-7.3,9.3c26.1,20.6,51,40.3,77.5,61.1
		C450.4,520.5,444.2,507.2,429.6,498z"/>
	<path fill="#777777" d="M256.4,473.5c0,0.1,0.1,0.2,0.1,0.3c0,0,0,0,0,0C256.5,473.8,256.4,473.5,256.4,473.5z"/>
	<path fill="#777777" d="M256.5,473.9c-19.1,31.5-38.3,62.9-56.8,93.4c15,3.1,26.6-2.6,33.1-18.1c8.8-21.4,17.7-42.8,27.4-66.1
		C259.6,481.6,258.1,477.8,256.5,473.9z"/>
	<path fill="#777777" d="M469.1,294.9c-13.2,0-26.2-4-32.3,0.7c-21.3,16.5-40.2,36-59.8,54.6c-1.3,1.2-0.9,4.2-1.1,6.6
		c6.5-2.7,13.6-4.5,19.3-8.5C418.7,331.9,441.8,314.7,469.1,294.9z"/>
	<path fill="#777777" d="M375.4,357c0,0,0.5,0.4,0.5,0.4c0-0.2,0-0.4,0-0.6C375.7,356.9,375.5,356.9,375.4,357z"/>
	<path fill="#777777" d="M279.5,327.6c-16.9-36-31.4-67-45.9-98c-10.9,11-12.5,24.9-2.7,38.2C245,286.8,260.8,304.7,279.5,327.6z"/>
	<path fill="#777777" d="M549.6,265.7v7.1c0,0,39.1,12.1,39.2,41c0,61.6,0,119.4,0,181c0,34.2-39.3,45.1-39.3,45.1v6.5
		c0,0,42.6,0,63.3,0c0-93.5,0-186.6,0-280.7C592.2,265.7,549.6,265.7,549.6,265.7z"/>
</g>
</svg>
