<?xml version="1.0" encoding="utf-8"?>
<!-- Generator: Adobe Illustrator 18.0.0, SVG Export Plug-In . SVG Version: 6.00 Build 0)  -->
<!DOCTYPE svg PUBLIC "-//W3C//DTD SVG 1.1//EN" "http://www.w3.org/Graphics/SVG/1.1/DTD/svg11.dtd">
<svg version="1.1" id="Layer_1" xmlns="http://www.w3.org/2000/svg" xmlns:xlink="http://www.w3.org/1999/xlink" x="0px" y="0px"
	 viewBox="0 0 612 792" enable-background="new 0 0 612 792" xml:space="preserve">
<g>
	<path fill="#787878" d="M223.4,379.8c-13.9,0-25.4,4.5-34.4,13.2c-9.2,8.7-13.7,20-13.7,33.9c0,13.9,4.7,25.2,13.7,33.9
		c9.2,8.7,20.5,13.2,34.4,13.2c13.7,0,25.2-4.5,34.4-13.2c9.2-8.7,13.7-20,13.7-33.9c0-13.9-4.5-25.2-13.7-33.9
		C248.8,384.3,237.2,379.8,223.4,379.8z M238.7,444.6c-3.8,5.4-8.9,8-15.5,8c-6.6,0-11.8-2.6-15.5-8c-3.3-4.7-4.9-10.6-4.9-17.4
		c0-7.1,1.9-12.9,5.4-17.9c3.5-4.9,8.7-7.5,15.3-7.5s12,2.6,15.5,8c3.3,4.7,4.9,10.6,4.9,17.4C243.8,434,242.2,439.8,238.7,444.6z"
		/>
	<path fill="#787878" d="M322.2,379.8c-13.9,0-25.4,4.5-34.4,13.2c-9.2,8.7-13.7,20-13.7,33.9c0,13.9,4.7,25.2,13.7,33.9
		c9.2,8.7,20.5,13.2,34.4,13.2c13.7,0,25.2-4.5,34.4-13.2c9.2-8.7,13.7-20,13.7-33.9c0-13.9-4.5-25.2-13.7-33.9
		C347.6,384.3,336.1,379.8,322.2,379.8z M337.5,444.6c-3.8,5.4-8.9,8-15.5,8c-6.6,0-11.8-2.6-15.5-8c-3.3-4.7-4.9-10.6-4.9-17.4
		c0-7.1,1.9-12.9,5.4-17.9c3.5-4.9,8.7-7.5,15.3-7.5c6.6,0,12,2.6,15.5,8c3.3,4.7,4.9,10.6,4.9,17.4
		C342.7,434,341.1,439.8,337.5,444.6z"/>
	<path fill="#787878" d="M444.2,392.1c-4.2-7.8-13.4-11.8-28-11.8c-12.7,0-23.1,4.5-30.8,13.2c-7.8,8.7-11.5,19.8-11.5,32.7
		c0,13.2,3.8,24.2,11.8,33.2c7.8,8.9,18.4,13.4,31.3,13.4c4.7,0,9.7-0.7,14.8-2.6c5.9-1.9,10.1-4.5,12.5-7.8v8.9h26.6V318.2h-26.6
		V392.1z M444.2,435.6c0,4.2-2.6,8.2-7.5,12.2c-5.2,4-9.7,5.9-13.9,5.9c-7.1,0-12.7-2.8-16.7-8.7c-3.5-5.2-5.4-11.3-5.4-18.4
		c0-7.3,1.9-13.7,5.4-18.6c4.2-5.6,9.7-8.5,16.7-8.5c4.9,0,9.7,2.4,14.4,6.8c4.7,4.5,7.1,9.2,7.1,14.1V435.6z"/>
	<rect x="480.4" y="318.2" fill="#787878" width="27.3" height="153.2"/>
	<path fill="#787878" d="M583.5,444.8c0,3.1-2.6,5.6-8,8c-4.5,1.9-8.5,2.8-12.2,2.8c-5.4,0-10.1-2.1-14.6-6.1
		c-4.2-4-7.1-8.7-8.2-14.4h71.8c0-16.5-4.2-29.7-12.5-39.3c-8.9-10.6-21.4-15.8-37.4-15.8c-14.6,0-26.6,4.2-35.8,12.7
		c-9.2,8.7-13.9,20-13.9,34.6c0,14.1,4.7,25.4,13.9,34.1c9.2,8.5,20.9,12.9,34.8,12.9c11.1,0,20.9-2.6,30.1-7.5
		c9.7-5.2,16.7-12.7,20.7-22.4L583.5,444.8z M548.9,403.6c4-4,8.7-5.9,14.4-5.9c5.4,0,10.4,2.1,14.6,6.1c3.8,3.8,6.1,8.5,7.3,14.4
		h-44C542.5,412.3,545.1,407.6,548.9,403.6z"/>
	<path fill="#787878" d="M34.6,408.3c-0.3,2.1-0.5,4.3-0.5,6.6v56.7h27.3V418c0-2.8,0.3-5.2,0.8-7.3
		C53.6,412.2,44.2,411.4,34.6,408.3z"/>
	<path fill="#787878" d="M159.1,388.3c-7.1-5.4-16.7-8-29-8c-13.4,0-22.6,3.1-27.5,9.4c-2.2-2.4-4.8-4.2-7.9-5.7
		c-3.5-3.6-7.1-5.8-10.7-6.8c8-5.1,17.4-12.1,29.2-21.4c-48.3,4.9-71.6,9.7-113,34.6c1.5,0,2.9,0,4.3,0c-1.2,9.1-0.2,23.6-0.2,23.8
		l0.1,0c-4.9,13.7,0,24.9,4,35c0-12.6,0.6-22.7-3-35.7c-0.2-2.9-0.8-15.1,0.3-23.1c0,0,0,0,0,0c12.8,0.1,22.5,0.7,30.8,0.8
		c-0.9,5.1-1.6,10-2.4,15.1c24.7,8.5,49,1.2,61.9-20.9c-0.4-0.4-0.7-0.8-1.1-1.2c0.8,0.4,1.5,0.9,2.3,1.4c-4,7-9.1,12.6-15,16.8
		c4.5,2.3,6.8,7.4,6.8,15.4v53.7h27.5V418c0-11.3,4.7-16.9,13.9-16.9s13.9,5.6,13.9,16.9v53.7v0.2h27.1v-57
		C171.3,403.1,167.3,394.4,159.1,388.3z"/>
</g>
</svg>
