<?xml version="1.0" encoding="utf-8"?>
<!-- Generator: Adobe Illustrator 17.1.0, SVG Export Plug-In . SVG Version: 6.00 Build 0)  -->
<!DOCTYPE svg PUBLIC "-//W3C//DTD SVG 1.1//EN" "http://www.w3.org/Graphics/SVG/1.1/DTD/svg11.dtd">
<svg version="1.1" id="Layer_1" xmlns="http://www.w3.org/2000/svg" xmlns:xlink="http://www.w3.org/1999/xlink" x="0px" y="0px"
	 viewBox="0 0 40 40" enable-background="new 0 0 40 40" xml:space="preserve">
<g>
	<path fill="#777777" d="M7.1,21.9l-2.2,6.8h0l-2.2-6.8H0.7c-0.4,2.9-0.6,5.9-0.7,9.2h1.4c0-2.7,0.2-5.1,0.3-7.3h0l2.3,7.3h1.2
		l2.3-7.3h0C7.9,26,8,28.5,8.1,31.1h1.5c-0.1-2.8-0.3-5.9-0.7-9.2H7.1z"/>
	<path fill="#777777" d="M13.5,30.1c0-0.4-0.1-1-0.3-1.9l-1.2-3.9h-1.5l1.7,5.3c0.3,0.8,0.4,1.3,0.4,1.6c0,0.4-0.2,0.7-0.5,1
		c-0.3,0.2-0.6,0.4-1.1,0.4c-0.2,0-0.5,0-0.6,0v0.8c0.4,0.2,0.7,0.2,0.9,0.2c1,0,1.8-0.6,2.6-1.8c1-1.5,1.9-4,2.5-7.4h-1.5
		C14.6,26.4,14.1,28.3,13.5,30.1z"/>
	<polygon fill="#777777" points="33.9,21.9 32.5,21.9 32.5,31.1 36.9,31.1 36.9,30 33.9,30 	"/>
	<path fill="#777777" d="M30.1,30.1c0.7-0.8,1.1-2.1,1.1-3.8c0-3.1-1.2-4.6-3.6-4.6c-1.2,0-2.1,0.4-2.7,1.2
		c-0.7,0.8-1.1,2.1-1.1,3.7c0,1.6,0.3,2.8,1,3.6c0.6,0.7,1.5,1,2.6,1c0.4,0,0.8-0.1,1.2-0.2l2.2,1.3l0.6-1l-1.7-0.8
		C29.8,30.3,29.9,30.2,30.1,30.1z M27.5,30.1c-0.7,0-1.3-0.3-1.6-0.8c-0.4-0.6-0.6-1.6-0.6-2.9c0-2.3,0.7-3.5,2.1-3.5
		c0.7,0,1.3,0.3,1.6,0.8c0.4,0.6,0.6,1.6,0.6,2.9C29.6,28.9,28.9,30.1,27.5,30.1z"/>
	<path fill="#777777" d="M22,26.6c0,0-1.3-0.8-2-1.1c-0.7-0.4-1.1-0.9-1.1-1.4c0-0.4,0.2-0.6,0.4-0.9c0.3-0.2,0.6-0.3,1.1-0.3
		c0.6,0,1.2,0.1,1.8,0.4l0.4-0.8c-0.7-0.5-1.5-0.7-2.3-0.7c-0.8,0-1.5,0.2-2,0.7c-0.5,0.5-0.8,1.1-0.8,1.8c0,0.9,0.4,1.5,1.1,2
		c0,0,1.3,0.7,1.9,1.1c0.7,0.4,1.1,0.9,1.1,1.4c0,0.4-0.2,0.8-0.5,1c-0.3,0.2-0.7,0.4-1.3,0.4c-0.6,0-1.3-0.2-2-0.5l-0.4,0.8
		c0.8,0.6,1.7,0.9,2.6,0.9c1,0,1.7-0.3,2.3-0.8c0.6-0.5,0.9-1.1,0.9-1.9C23.1,27.6,22.7,27.1,22,26.6z"/>
	<path fill="#777777" d="M39.8,22c-0.1-0.1-0.2-0.2-0.3-0.3c-0.3-0.4-0.7-0.8-1.2-1.1c-0.4-0.2-1.1-0.6-1.3-1c0,0,0,0,0,0
		c0.2,0,0.5-0.1,0.8-0.2c0.4-0.1,0.7-0.1,1.1-0.2c0.2,0,0.4-0.1,0.5-0.2V19c-0.2-0.2-0.3-0.5-0.6-0.7c-0.6-0.5-1.2-1-1.8-1.4
		c-0.3-0.2-0.8-0.4-1.2-0.6c-0.1-0.1-0.4-0.1-0.4-0.2c-0.2-0.2-0.3-0.6-0.5-0.9c-0.3-0.6-0.6-1.3-0.9-1.9c-0.2-0.4-0.3-0.9-0.6-1.3
		c-1.1-1.9-2.4-3-4.3-4.2c-0.4-0.2-0.9-0.3-1.4-0.5c-0.3,0-0.6,0-0.8,0c-0.2-0.1-0.4-0.3-0.5-0.4c-0.6-0.4-2.3-1.3-2.7-0.1
		c-0.3,0.7,0.4,1.4,0.7,1.8C24.6,9,24.8,9.3,25,9.5c0.1,0.2,0.1,0.4,0.2,0.6c0.2,0.5,0.3,1,0.6,1.5c0.1,0.2,0.3,0.5,0.4,0.7
		c0.1,0.1,0.2,0.2,0.3,0.4c-0.2,0.2-0.2,0.6-0.3,0.8c-0.4,1.3-0.2,2.8,0.3,3.7c0.2,0.3,0.6,0.9,1.2,0.7c0.5-0.2,0.4-0.8,0.5-1.4
		c0-0.1,0-0.2,0.1-0.3v0c0.2,0.3,0.3,0.6,0.5,0.9c0.3,0.5,0.9,1.1,1.4,1.5c0.3,0.2,0.5,0.5,0.8,0.7v0h0c-0.1-0.1-0.2-0.1-0.3-0.2
		c-0.2-0.2-0.4-0.4-0.6-0.7c-0.5-0.6-0.9-1.3-1.2-2c-0.2-0.3-0.3-0.7-0.5-1.1c-0.1-0.1-0.1-0.3-0.2-0.4c-0.2,0.2-0.4,0.5-0.5,0.8
		c-0.2,0.5-0.2,1.1-0.3,1.7c0,0,0,0,0,0c-0.4-0.1-0.5-0.5-0.6-0.8c-0.3-0.8-0.4-2.1-0.1-3c0.1-0.2,0.4-1,0.3-1.2
		c-0.1-0.2-0.3-0.3-0.4-0.5c-0.1-0.2-0.3-0.5-0.4-0.7c-0.3-0.6-0.4-1.3-0.7-1.9C25.2,9,25,8.7,24.8,8.4c-0.2-0.3-0.4-0.5-0.6-0.9
		c-0.1-0.1-0.1-0.3,0-0.5C24.2,7,24.2,7,24.3,7c0.1-0.1,0.6,0,0.7,0.1c0.4,0.2,0.8,0.3,1.1,0.6c0.2,0.1,0.3,0.3,0.5,0.4h0.2
		c0.4,0.1,0.8,0,1.1,0.1c0.6,0.2,1.1,0.5,1.6,0.8c1.5,0.9,2.7,2.2,3.5,3.8c0.1,0.3,0.2,0.5,0.3,0.8c0.2,0.5,0.5,1.1,0.8,1.6
		c0.2,0.5,0.5,1.1,0.8,1.5c0.2,0.2,0.8,0.4,1.1,0.5c0.2,0.1,0.6,0.2,0.8,0.3c0.4,0.2,0.8,0.5,1.1,0.8c0.2,0.1,0.7,0.4,0.8,0.6
		c-0.9,0-1.6,0.1-2.2,0.3c-0.2,0.1-0.4,0.1-0.5,0.3c0.1,0.1,0.1,0.2,0.2,0.4c0.1,0.2,0.4,0.5,0.6,0.7c0.2,0.2,0.5,0.4,0.7,0.5
		c0.4,0.3,0.9,0.4,1.3,0.7c0.2,0.2,0.5,0.4,0.7,0.5c0.1,0.1,0.2,0.2,0.4,0.3v0C39.9,22.3,39.9,22.1,39.8,22z"/>
	<path fill="#777777" d="M26.9,9.1L26.9,9.1L26.9,9.1c0.1,0.2,0.3,0.3,0.4,0.5c0.1,0.2,0.2,0.4,0.3,0.5c0,0,0,0,0,0
		c0.2-0.1,0.2-0.3,0.2-0.6c-0.1-0.1-0.1-0.2-0.1-0.2c-0.1-0.1-0.2-0.2-0.3-0.3C27.2,9.1,27,9.1,26.9,9.1z"/>
	<polygon fill="#777777" points="39.4,30.7 39.1,30 38.7,30 38.7,31.1 38.9,31.1 38.9,30.2 39,30.2 39.3,31.1 39.4,31.1 39.8,30.2 
		39.8,31.1 40,31.1 40,30 39.7,30 	"/>
	<polygon fill="#777777" points="37.6,30.1 37.9,30.1 37.9,31.1 38.2,31.1 38.2,30.1 38.5,30.1 38.5,30 37.6,30 	"/>
</g>
</svg>
