<?xml version="1.0" encoding="utf-8"?>
<!-- Generator: Adobe Illustrator 17.1.0, SVG Export Plug-In . SVG Version: 6.00 Build 0)  -->
<!DOCTYPE svg PUBLIC "-//W3C//DTD SVG 1.1//EN" "http://www.w3.org/Graphics/SVG/1.1/DTD/svg11.dtd">
<svg version="1.1" id="Layer_1" xmlns="http://www.w3.org/2000/svg" xmlns:xlink="http://www.w3.org/1999/xlink" x="0px" y="0px"
	 viewBox="0 0 40 40" enable-background="new 0 0 40 40" xml:space="preserve">
<g>
	<path fill-rule="evenodd" clip-rule="evenodd" fill="#777777" d="M3.3,18.4c0,0-0.1,0-0.2,0c0,0,0,0,0,0c-0.1,0-0.1,0-0.2,0
		l-2.8,1.6C0.1,20.1,0,20.2,0,20.4l0,4.4c0,0.1,0,0.1,0.1,0.1c0.1,0,0.1,0,0.2,0l1.7-1c0.1-0.1,0.2-0.2,0.2-0.3v-2
		c0-0.1,0.1-0.2,0.2-0.3L3,20.9c0.1,0,0.1,0,0.2,0c0.1,0,0.1,0,0.2,0L4,21.3c0.1,0.1,0.2,0.2,0.2,0.3v2c0,0.1,0.1,0.2,0.2,0.3l1.7,1
		c0.1,0,0.1,0,0.2,0c0.1,0,0.1-0.1,0.1-0.1l0-4.4c0-0.1-0.1-0.2-0.2-0.3L3.3,18.4z"/>
	<path fill-rule="evenodd" clip-rule="evenodd" fill="#777777" d="M23,15.3l-1.7-0.9c-0.1,0-0.1,0-0.2,0c-0.1,0-0.1,0.1-0.1,0.1v4.3
		c0,0,0,0.1-0.1,0.1c0,0-0.1,0-0.1,0l-0.7-0.4c-0.1-0.1-0.2-0.1-0.3,0L17,20.1c-0.1,0.1-0.2,0.2-0.2,0.3v3.2c0,0.1,0.1,0.2,0.2,0.3
		l2.8,1.6c0.1,0.1,0.2,0.1,0.3,0L23,24c0.1-0.1,0.2-0.2,0.2-0.3v-8.1C23.1,15.5,23.1,15.4,23,15.3z M21,22.6
		C21,22.7,21,22.7,21,22.6l-1,0.6c0,0-0.1,0-0.1,0l-1-0.6c0,0,0,0,0-0.1v-1.1c0,0,0-0.1,0-0.1l1-0.6c0,0,0.1,0,0.1,0l1,0.6
		c0,0,0,0,0,0.1V22.6z"/>
	<path fill-rule="evenodd" clip-rule="evenodd" fill="#777777" d="M28.5,18.5c-0.1-0.1-0.2-0.1-0.3,0l-2.8,1.6
		c-0.1,0.1-0.2,0.2-0.2,0.3v3.2c0,0.1,0.1,0.2,0.2,0.3l2.8,1.6c0.1,0.1,0.2,0.1,0.3,0l1.7-0.9c0.1,0,0.1-0.1,0.1-0.1
		c0-0.1,0-0.1-0.1-0.1l-2.8-1.6c-0.1,0-0.1-0.1-0.1-0.1v-1c0-0.1,0-0.1,0.1-0.1l0.9-0.5c0.1,0,0.1,0,0.2,0l0.9,0.5
		c0.1,0,0.1,0.1,0.1,0.1v0.8c0,0.1,0,0.1,0.1,0.1c0.1,0,0.1,0,0.2,0l1.7-1c0.1-0.1,0.2-0.2,0.2-0.3v-0.8c0-0.1-0.1-0.2-0.2-0.3
		L28.5,18.5z"/>
	<path fill-rule="evenodd" clip-rule="evenodd" fill="#777777" d="M14.6,20.1l-2.8-1.6c-0.1-0.1-0.2-0.1-0.3,0l-2.8,1.6
		c-0.1,0.1-0.2,0.2-0.2,0.3v3.2c0,0.1,0.1,0.2,0.2,0.3l2.8,1.6c0.1,0.1,0.2,0.1,0.3,0l2.8-1.6c0.1-0.1,0.2-0.2,0.2-0.3v-3.2
		C14.7,20.3,14.7,20.1,14.6,20.1z"/>
	<path fill-rule="evenodd" clip-rule="evenodd" fill="#777777" d="M39.7,20l-2.6-1.5c-0.2-0.1-0.4-0.1-0.6,0L33.9,20
		c-0.2,0.1-0.3,0.3-0.3,0.5v3.1c0,0.2,0.1,0.4,0.3,0.5l0.7,0.4c0.3,0.2,0.5,0.2,0.6,0.2c0.5,0,0.8-0.3,0.8-0.8v-3c0,0,0-0.1-0.1-0.1
		h-0.3c0,0-0.1,0-0.1,0.1v3c0,0.2-0.2,0.5-0.6,0.3l-0.7-0.4c0,0,0,0,0-0.1v-3.1c0,0,0-0.1,0-0.1l2.6-1.5c0,0,0.1,0,0.1,0l2.6,1.5
		c0,0,0,0,0,0.1v3.1c0,0,0,0.1,0,0.1l-2.6,1.5c0,0-0.1,0-0.1,0l-0.7-0.4c0,0,0,0-0.1,0c-0.2,0.1-0.2,0.1-0.4,0.2c0,0-0.1,0,0,0.1
		l0.9,0.5c0.1,0,0.2,0.1,0.3,0.1c0.1,0,0.2,0,0.3-0.1l2.6-1.5c0.2-0.1,0.3-0.3,0.3-0.5v-3.1C40,20.2,39.9,20.1,39.7,20z"/>
	<path fill-rule="evenodd" clip-rule="evenodd" fill="#777777" d="M37.6,23c-0.7,0-0.9-0.2-0.9-0.5c0,0,0-0.1-0.1-0.1h-0.3
		c0,0-0.1,0-0.1,0.1c0,0.4,0.2,1,1.4,1c0.8,0,1.3-0.3,1.3-0.9c0-0.6-0.4-0.7-1.2-0.8c-0.8-0.1-0.9-0.2-0.9-0.4
		c0-0.2,0.1-0.4,0.7-0.4c0.5,0,0.7,0.1,0.8,0.5c0,0,0,0.1,0.1,0.1h0.3c0,0,0,0,0.1,0c0,0,0,0,0-0.1c-0.1-0.6-0.5-0.9-1.3-0.9
		c-0.8,0-1.2,0.3-1.2,0.9c0,0.6,0.4,0.7,1.2,0.8c0.9,0.1,0.9,0.2,0.9,0.4C38.4,22.9,38.2,23,37.6,23z"/>
	<path fill-rule="evenodd" clip-rule="evenodd" fill="#777777" d="M28.3,21.3l-0.5,0.3c0,0,0,0,0,0.1v0.6c0,0,0,0,0,0.1l0.5,0.3
		c0,0,0,0,0.1,0l0.5-0.3c0,0,0,0,0-0.1v-0.6c0,0,0,0,0-0.1L28.3,21.3C28.4,21.3,28.4,21.3,28.3,21.3z"/>
</g>
</svg>
