<?xml version="1.0" encoding="utf-8"?>
<!-- Generator: Adobe Illustrator 18.0.0, SVG Export Plug-In . SVG Version: 6.00 Build 0)  -->
<!DOCTYPE svg PUBLIC "-//W3C//DTD SVG 1.1//EN" "http://www.w3.org/Graphics/SVG/1.1/DTD/svg11.dtd">
<svg version="1.1" id="Layer_1" xmlns="http://www.w3.org/2000/svg" xmlns:xlink="http://www.w3.org/1999/xlink" x="0px" y="0px"
	 viewBox="0 0 612 792" enable-background="new 0 0 612 792" xml:space="preserve">
<g>
	<path fill="#787878" d="M74.6,346.1c10,0,19.4,2,28.2,5.9c8.8,4,16.6,9.3,23.3,16c6.7,6.7,12.1,14.5,16,23.5c4,9,5.9,18.5,5.9,28.7
		c0,10.2-1.9,19.7-5.8,28.5c-3.9,8.8-9.1,16.6-15.7,23.3c-6.6,6.7-14.4,12-23.3,15.9c-9,3.9-18.6,5.8-29,5.8
		c-10.2,0-19.7-1.8-28.7-5.5c-9-3.7-16.8-8.8-23.5-15.4c-6.7-6.6-12-14.4-15.9-23.3c-3.9-8.9-5.8-18.7-5.8-29.3
		c0-10.2,1.9-19.7,5.6-28.5c3.8-8.8,9-16.6,15.7-23.2c6.7-6.6,14.6-11.9,23.6-15.9C54.5,348.7,64.3,346.5,74.6,346.1z M74.3,376.3
		c-5.9,0-11.5,1.1-16.9,3.4c-5.4,2.2-10.1,5.3-14,9.3c-4,4-7.1,8.6-9.5,13.9c-2.3,5.3-3.5,11.1-3.5,17.4c0,5.9,1.2,11.5,3.5,16.9
		c2.3,5.4,5.5,10.1,9.5,14.2c4,4.1,8.6,7.3,14,9.6c5.4,2.3,11,3.5,16.9,3.5c5.9,0,11.5-1.2,16.9-3.5c5.4-2.3,10.1-5.5,14-9.6
		c4-4.1,7.1-8.8,9.5-14.2c2.3-5.4,3.5-11,3.5-16.9c-0.6-12-4.9-22.1-12.8-30.4c-7.9-8.2-18.2-12.8-30.8-13.6H74.3z"/>
	<path fill="#787878" d="M287,299.2c3.5-0.2,6.7,1.2,9.8,4.1c3.1,3,4.6,6.2,4.6,9.6V420c0,10-2,19.4-6.1,28.4
		c-4.1,9-9.6,16.8-16.5,23.5c-6.9,6.7-14.8,12.1-23.6,16c-8.8,4-18.2,5.9-27.9,5.9c-10,0-19.4-1.9-28.4-5.8
		c-9-3.9-16.8-9.2-23.5-15.9c-6.7-6.7-12.1-14.5-16-23.5c-4-8.9-5.9-18.5-5.9-28.7c0-11,1.8-20.6,5.3-29c3.6-8.3,8.9-16.2,16-23.5
		v0.3c7.5-7.1,15.8-12.5,24.9-16.2c9-3.7,18.4-5.5,27.9-5.5c5.7,0,12.5,0.9,20.3,2.7c7.8,1.8,15.6,5.4,23.3,10.7v-45.2
		c0-2,0.4-4,1.2-5.8c0.8-1.8,1.9-3.5,3.2-5c1.3-1.5,2.9-2.7,4.7-3.5c1.8-0.8,3.7-1.1,5.5-0.9H287z M271.1,420
		c0-5.5-1.2-10.9-3.5-16.2c-2.3-5.3-5.5-10-9.6-14.2c-4.1-4.2-8.7-7.5-14-9.9c-5.3-2.4-10.9-3.7-16.8-3.7c-5.9,0-11.5,1.2-16.9,3.5
		c-5.4,2.3-10.1,5.5-14,9.5c-4,4-7.1,8.6-9.5,14c-2.3,5.4-3.5,11-3.5,16.9c0,6.1,1.2,11.8,3.5,17.1c2.3,5.3,5.5,9.9,9.5,13.9
		c4,4,8.6,7.1,14,9.5c5.4,2.3,11,3.5,16.9,3.5c5.9,0,11.5-1.2,16.8-3.5c5.3-2.3,10-5.5,14-9.5c4.1-4,7.3-8.6,9.6-13.9
		C269.9,431.8,271.1,426.1,271.1,420z"/>
	<path fill="#787878" d="M384,346.1c10,0,19.4,2,28.2,5.9c8.8,4,16.6,9.3,23.3,16c6.7,6.7,12.1,14.5,16,23.5c4,9,5.9,18.5,5.9,28.7
		c0,10.2-1.9,19.7-5.8,28.5c-3.9,8.8-9.1,16.6-15.7,23.3c-6.6,6.7-14.4,12-23.3,15.9c-9,3.9-18.6,5.8-29,5.8
		c-10.2,0-19.7-1.8-28.7-5.5c-9-3.7-16.8-8.8-23.5-15.4c-6.7-6.6-12-14.4-15.9-23.3c-3.9-8.9-5.8-18.7-5.8-29.3
		c0-10.2,1.9-19.7,5.6-28.5c3.8-8.8,9-16.6,15.7-23.2c6.7-6.6,14.6-11.9,23.6-15.9C363.9,348.7,373.6,346.5,384,346.1z M383.7,376.3
		c-5.9,0-11.5,1.1-16.9,3.4c-5.4,2.2-10.1,5.3-14,9.3c-4,4-7.1,8.6-9.5,13.9c-2.3,5.3-3.5,11.1-3.5,17.4c0,5.9,1.2,11.5,3.5,16.9
		c2.3,5.4,5.5,10.1,9.5,14.2c4,4.1,8.6,7.3,14,9.6c5.4,2.3,11,3.5,16.9,3.5c5.9,0,11.5-1.2,16.9-3.5c5.4-2.3,10.1-5.5,14-9.6
		c4-4.1,7.1-8.8,9.5-14.2c2.3-5.4,3.5-11,3.5-16.9c-0.6-12-4.9-22.1-12.8-30.4c-7.9-8.2-18.2-12.8-30.8-13.6H383.7z"/>
	<path fill="#787878" d="M539,346.1c10,0,19.4,2,28.2,5.9c8.8,4,16.6,9.3,23.3,16c6.7,6.7,12.1,14.5,16,23.5c4,9,5.9,18.5,5.9,28.7
		c0,10.2-1.9,19.7-5.8,28.5c-3.9,8.8-9.1,16.6-15.7,23.3c-6.6,6.7-14.4,12-23.3,15.9c-9,3.9-18.6,5.8-29,5.8
		c-10.2,0-19.7-1.8-28.7-5.5c-9-3.7-16.8-8.8-23.5-15.4c-6.7-6.6-12-14.4-15.9-23.3c-3.9-8.9-5.8-18.7-5.8-29.3
		c0-10.2,1.9-19.7,5.6-28.5c3.8-8.8,9-16.6,15.7-23.2c6.7-6.6,14.6-11.9,23.6-15.9C518.9,348.7,528.6,346.5,539,346.1z M538.7,376.3
		c-5.9,0-11.5,1.1-16.9,3.4c-5.4,2.2-10.1,5.3-14,9.3c-4,4-7.1,8.6-9.5,13.9c-2.3,5.3-3.5,11.1-3.5,17.4c0,5.9,1.2,11.5,3.5,16.9
		c2.3,5.4,5.5,10.1,9.5,14.2c4,4.1,8.6,7.3,14,9.6c5.4,2.3,11,3.5,16.9,3.5c5.9,0,11.5-1.2,16.9-3.5c5.4-2.3,10.1-5.5,14-9.6
		c4-4.1,7.1-8.8,9.5-14.2c2.3-5.4,3.5-11,3.5-16.9c-0.6-12-4.9-22.1-12.8-30.4c-7.9-8.2-18.2-12.8-30.8-13.6H538.7z"/>
</g>
</svg>
