<?xml version="1.0" encoding="utf-8"?>
<!-- Generator: Adobe Illustrator 18.0.0, SVG Export Plug-In . SVG Version: 6.00 Build 0)  -->
<!DOCTYPE svg PUBLIC "-//W3C//DTD SVG 1.1//EN" "http://www.w3.org/Graphics/SVG/1.1/DTD/svg11.dtd">
<svg version="1.1" id="Layer_1" xmlns="http://www.w3.org/2000/svg" xmlns:xlink="http://www.w3.org/1999/xlink" x="0px" y="0px"
	 viewBox="0 0 612 792" enable-background="new 0 0 612 792" xml:space="preserve">
<g>
	<polygon fill="#787878" points="563.8,315.1 512,285 460.2,254.9 408.4,224.8 356.6,194.7 307.6,166.2 307.6,166.2 307.2,166.4 
		60.1,307.5 1,341.3 15.9,355.6 34.7,373.7 42.6,381.3 43.5,383.7 51.7,404.9 59.8,426.1 68,447.3 76.1,468.6 84.3,489.8 92.4,511 
		100.6,532.2 108.8,553.4 116.9,574.6 125.1,595.8 133.2,617 141.4,638.2 149.5,659.5 154.9,673.3 160.4,679.4 176.5,696.8 
		192.6,714.2 208.7,731.7 222.1,746.2 222.3,747 246.5,747 246,743.7 205.1,530 204.2,525.3 209,525.3 404.3,525.3 409.1,525.3 
		408.1,530.1 364.2,743.9 363.6,747 389.3,747 389.4,746.8 456.1,683.1 463.8,675.7 478.2,637.4 494.3,594.5 510.4,551.6 
		526.5,508.7 542.6,465.8 558.7,422.9 574.8,380 576.1,376.5 613,343.7 	"/>
	<polygon fill="#787878" points="301.6,134.2 301.6,111.2 301.6,88.3 301.6,65.3 301.6,45.4 278.9,65.3 252.8,88.3 226.6,111.2 
		200.4,134.2 183.2,149.3 301.6,154.1 	"/>
</g>
</svg>
