<?xml version="1.0" encoding="utf-8"?>
<!-- Generator: Adobe Illustrator 17.1.0, SVG Export Plug-In . SVG Version: 6.00 Build 0)  -->
<!DOCTYPE svg PUBLIC "-//W3C//DTD SVG 1.1//EN" "http://www.w3.org/Graphics/SVG/1.1/DTD/svg11.dtd">
<svg version="1.1" id="Layer_1" xmlns="http://www.w3.org/2000/svg" xmlns:xlink="http://www.w3.org/1999/xlink" x="0px" y="0px"
	 viewBox="0 0 40 40" enable-background="new 0 0 40 40" xml:space="preserve">
<g>
	<polygon fill="#777777" points="26.4,1.5 26,0.2 23.9,0 24.5,1.4 	"/>
	<polygon fill="#777777" points="7.5,23.7 4.7,23.2 3.9,26 6.8,26.4 	"/>
	<polygon fill="#777777" points="9.9,14.7 7.5,13.6 6.7,16 9.2,16.9 	"/>
	<polygon fill="#777777" points="20.1,2.6 18.9,1 17.2,2 18.6,3.6 	"/>
	<polygon fill="#777777" points="33.4,3.1 31.6,1.9 31.6,2.7 33.3,3.7 	"/>
	<polygon fill="#777777" points="14.3,7.3 12.4,5.9 11,7.7 13.1,9 	"/>
	<polygon fill="#777777" points="21.7,13.6 21.3,15 22.8,16.5 23.2,15.1 	"/>
	<polygon fill="#777777" points="28.3,7.8 27.9,6.5 26.7,7 27.2,8.3 	"/>
	<polygon fill="#777777" points="25.1,10.5 24.1,9 23.3,10 24.4,11.6 	"/>
	<path fill="#777777" d="M26.2,2.1c-6.1-0.2-17,5.5-18.6,28.8h15c-3.4-8.7-3-15.3-0.7-19.7c3.4-6.5,8.4-6.9,13-4.2
		c0.2-0.4,0.4-0.9,0.4-0.9C32.7,3.5,30.2,2.3,26.2,2.1z"/>
	<polygon fill="#777777" points="31.5,7.1 32.8,7.1 32.8,6.5 31.5,6.3 	"/>
	<polygon fill="#777777" points="25,28.2 24.3,26.5 21.7,26 22.4,27.9 	"/>
	<polygon fill="#777777" points="20.9,20.7 23.1,21.7 22.9,20.1 20.8,19 	"/>
	<polygon fill="#777777" points="23.5,33.4 21.7,33.4 21.7,40 26.2,40 26.2,38.2 23.5,38.2 	"/>
	<rect x="18" y="33.4" fill="#777777" width="1.8" height="6.6"/>
	<path fill="#777777" d="M14.3,33.3h-1.6C11.9,33.3,11,34,11,35s0,4.9,0,4.9h1.8v-1.3h1.6V40h1.8c0,0,0-4,0-4.9
		C16.1,34.1,15.3,33.3,14.3,33.3z M14.3,36.9h-1.6v-1.8h1.6V36.9z"/>
	<path fill="#777777" d="M9.1,36.1V35c0-0.6-0.6-1.6-1.7-1.6s-3.5,0-3.5,0V40h1.8v-1.9L7.1,40h2.1l-1.7-2.2
		C7.6,37.8,9.1,37.5,9.1,36.1z M7.3,36.5H5.7v-1.3h1.6C7.3,35.2,7.3,36.5,7.3,36.5z"/>
	<path fill="#777777" d="M30.7,35.7c-0.8,0-1.7,0-1.7,0V35h3v-1.6c0,0-2,0-3,0c-1.1,0-1.8,0.8-1.8,1.7v0.7c0,1,0.9,1.7,1.8,1.7
		s1.6,0,1.6,0v0.8h-3.3V40c0,0,2.3,0,3.2,0c1,0,1.8-0.7,1.8-1.6v-0.9C32.4,36.4,31.5,35.7,30.7,35.7z"/>
</g>
</svg>
