<?xml version="1.0" encoding="utf-8"?>
<!-- Generator: Adobe Illustrator 18.0.0, SVG Export Plug-In . SVG Version: 6.00 Build 0)  -->
<!DOCTYPE svg PUBLIC "-//W3C//DTD SVG 1.1//EN" "http://www.w3.org/Graphics/SVG/1.1/DTD/svg11.dtd">
<svg version="1.1" id="Layer_1" xmlns="http://www.w3.org/2000/svg" xmlns:xlink="http://www.w3.org/1999/xlink" x="0px" y="0px"
	 viewBox="0 0 612 792" enable-background="new 0 0 612 792" xml:space="preserve">
<g>
	<path fill="#787878" d="M181.2,226.5L239,295c3,3-1.5,6.1-1.5,6.1c-22.8,12.2-41.1,32-54.8,53.3c-3,4.6-6.1,1.5-6.1,1.5L102,301.1
		c0,0-3-1.5,0-6.1c21.3-28.9,41.1-48.7,73.1-68.5C176.6,225,179.6,223.5,181.2,226.5z"/>
	<path fill="#787878" d="M77.6,337.7l86.8,42.6c4.6,1.5,1.5,6.1,1.5,6.1c-12.2,28.9-19.8,53.3-25.9,82.2c-1.5,4.6-4.6,3-4.6,3
		l-99-42.6c0,0-3-1.5-1.5-4.6c4.6-13.7,25.9-67,35-85.3C73.1,337.7,74.6,336.1,77.6,337.7z"/>
	<path fill="#787878" d="M28.9,473.2c19.8,6.1,103.5,25.9,103.5,25.9c4.6,1.5,3,4.6,3,4.6c-6.1,45.7-4.6,80.7-4.6,92.9
		c0,6.1-4.6,4.6-4.6,4.6c-21.3,0-121.8,0-121.8,0C0,601,0,596.5,0,596.5c1.5-15.2,6.1-57.9,22.8-120.3
		C24.4,476.2,24.4,471.6,28.9,473.2z"/>
	<path fill="#787878" d="M430.8,226.5L373,295c-3,3,1.5,6.1,1.5,6.1c22.8,12.2,41.1,32,54.8,53.3c3,4.6,6.1,1.5,6.1,1.5l74.6-54.8
		c0,0,3-1.5,0-6.1c-21.3-28.9-41.1-48.7-73.1-68.5C435.4,225,432.4,223.5,430.8,226.5z"/>
	<path fill="#787878" d="M306,284.4c9.1,0,27.4,1.5,36.5,3c4.6,0,6.1-1.5,6.1-1.5l36.5-76.1c0,0,3-3-3-4.6
		C354.7,194.6,339.5,190,306,190s-48.7,4.6-76.1,15.2c-4.6,1.5-3,4.6-3,4.6l36.5,76.1c0,0,1.5,3,6.1,1.5
		C278.6,285.9,296.9,284.4,306,284.4z"/>
	<path fill="#787878" d="M534.4,337.7l-86.8,42.6c-4.6,1.5-1.5,6.1-1.5,6.1c12.2,28.9,19.8,53.3,25.9,82.2c1.5,4.6,4.6,3,4.6,3
		l99-42.6c0,0,3-1.5,1.5-4.6c-4.6-13.7-25.9-67-35-85.3C538.9,337.7,537.4,336.1,534.4,337.7z"/>
	<path fill="#787878" d="M583.1,473.2c-19.8,6.1-103.5,25.9-103.5,25.9c-4.6,1.5-3,4.6-3,4.6c6.1,45.7,4.6,80.7,4.6,92.9
		c0,6.1,4.6,4.6,4.6,4.6c21.3,0,121.8,0,121.8,0c4.6,0,4.6-4.6,4.6-4.6c-1.5-15.2-6.1-57.9-22.8-120.3
		C587.6,476.2,587.6,471.6,583.1,473.2z"/>
</g>
</svg>
