<?xml version="1.0" encoding="utf-8"?>
<!-- Generator: Adobe Illustrator 18.0.0, SVG Export Plug-In . SVG Version: 6.00 Build 0)  -->
<!DOCTYPE svg PUBLIC "-//W3C//DTD SVG 1.1//EN" "http://www.w3.org/Graphics/SVG/1.1/DTD/svg11.dtd">
<svg version="1.1" id="Layer_1" xmlns="http://www.w3.org/2000/svg" xmlns:xlink="http://www.w3.org/1999/xlink" x="0px" y="0px"
	 viewBox="0 0 612 792" enable-background="new 0 0 612 792" xml:space="preserve">
<g>
	<path fill="#787878" d="M433.8,474.4c40.9-18,59.8-33.1,56.7-45.5c-2.7-10.7-21.6-16.1-56.6-16.4c-17.9,0.2-42.7,1.5-74.2,3.8
		c-31.6,2.3-70.9,6-117.8,10.9c-72.8,7.8-133.3,13.7-181.4,17.7c-23,1.9-43.1,3.4-60.5,4.3v130.9c95.5-14,181.8-30.8,258.9-50.2
		C334.6,510.8,392.9,492.3,433.8,474.4z M30.5,534.7c-1.2,1.1-2.6,1.7-4.2,1.7c-0.8,0-1.6-0.2-2.4-0.5c-0.7-0.3-1.4-0.7-1.9-1.3
		c-0.6-0.5-1-1.2-1.3-1.9c-0.3-0.7-0.5-1.5-0.5-2.4c0-1.7,0.6-3.1,1.7-4.2c1.2-1.2,2.7-1.8,4.4-1.8c1.6,0,3,0.6,4.1,1.8
		c1.2,1.2,1.7,2.6,1.7,4.2C32.2,532.1,31.7,533.6,30.5,534.7z M30.5,496.1c-1.2,1.2-2.6,1.7-4.2,1.7c-1.7,0-3.1-0.6-4.3-1.8
		c-1.2-1.2-1.7-2.6-1.7-4.3c0-1.7,0.6-3.1,1.7-4.2c1.2-1.2,2.7-1.7,4.4-1.7c1.6,0,3,0.6,4.1,1.8c1.2,1.2,1.7,2.6,1.7,4.2
		C32.2,493.5,31.7,495,30.5,496.1z M51.2,534.7c-1.2,1.1-2.6,1.7-4.2,1.7c-0.8,0-1.6-0.2-2.4-0.5c-0.7-0.3-1.4-0.7-1.9-1.3
		c-0.5-0.5-1-1.2-1.3-1.9c-0.3-0.7-0.5-1.5-0.5-2.4c0-1.7,0.6-3.1,1.7-4.2c1.2-1.2,2.7-1.8,4.4-1.8c1.6,0,3,0.6,4.1,1.8
		c1.2,1.2,1.7,2.6,1.7,4.2C53,532.1,52.4,533.6,51.2,534.7z M51.2,496.1c-1.2,1.2-2.6,1.7-4.2,1.7c-1.7,0-3.1-0.6-4.3-1.8
		c-1.2-1.2-1.7-2.6-1.7-4.3c0-1.7,0.6-3.1,1.7-4.2c1.2-1.2,2.7-1.7,4.4-1.7c1.6,0,3,0.6,4.1,1.8c1.2,1.2,1.7,2.6,1.7,4.2
		C53,493.5,52.4,495,51.2,496.1z"/>
	<path fill="#787878" d="M396.2,249.7c-73,18.4-131.8,37.1-176.2,56.1c-44.6,18.6-65.4,33.7-62.4,45.4c2.6,10.2,21.2,14.9,56,13.9
		c17.8-0.3,46.9-2.3,87.1-5.8c40.2-3.6,92.1-8.7,155.7-15.5c62.2-6.5,114-11,155.6-13.6V207.7C531.7,219.7,459.7,233.7,396.2,249.7z
		"/>
	<path fill="#787878" d="M591.8,173H0v161.4c82.9-34.6,193.8-69.4,332.9-104.5C422.2,207.4,508.5,188.5,591.8,173z"/>
	<path fill="#787878" d="M0,618.3v1.1h612V459.1c-83.7,32.8-187.5,64.9-311.2,96.1C184.9,584.4,84.7,605.4,0,618.3z"/>
</g>
</svg>
