<?xml version="1.0" encoding="utf-8"?>
<!-- Generator: Adobe Illustrator 17.1.0, SVG Export Plug-In . SVG Version: 6.00 Build 0)  -->
<!DOCTYPE svg PUBLIC "-//W3C//DTD SVG 1.1//EN" "http://www.w3.org/Graphics/SVG/1.1/DTD/svg11.dtd">
<svg version="1.1" id="Layer_1" xmlns="http://www.w3.org/2000/svg" xmlns:xlink="http://www.w3.org/1999/xlink" x="0px" y="0px"
	 viewBox="0 0 40 40" enable-background="new 0 0 40 40" xml:space="preserve">
<g>
	<path fill="#777777" d="M26.3,12.2c0.3,0,0.4,0.1,0.6,0.3c0.3,0.5,0.3,1.6,0,2.6h-2.1v0.4h1.9c-0.2,0.7-0.5,1.5-0.8,2l-0.1,0.2
		l2.6,1.6l-1.4,1l0.2,0.4l1.6-1.1l1.7,1.1l0.2-0.4l-1.6-1c0,0,2.4-1.6,2.5-1.6c-0.5-0.8-0.7-1.4-0.5-2.2h0.2h1.9v-0.4h-2
		c0.4-0.8,0.9-1.6,2.7-1.6v-0.4c-1.7,0-2.7,0.7-3.1,2.1h-3.6c0.2-1.1,0.3-2.2-0.1-2.9c-0.2-0.4-0.5-0.6-1-0.6
		c-1.5,0-2.1,1.5-2.1,1.6l0.4,0.2C24.6,13.4,25.1,12.2,26.3,12.2z M28.8,19.2L26.9,18h3.7L28.8,19.2z M30.7,15.6
		c-0.2,0.5-0.1,1.3,0.3,1.9h-4.6c0.3-0.6,0.5-1.2,0.7-1.9H30.7z"/>
	<path fill="#777777" d="M39.4,32.5c-0.8-0.8-2.2-1.2-3.5-1.2c-0.8-0.9-5-5.4-5.8-6.3c1.8-1.2,3.3-2.8,4.4-4.7h2.3v-0.5h-2
		c0.1-0.2,0.2-0.5,0.4-0.7h1.7v-0.5h-1.4c1-2.3,1.6-4.9,1.6-7.7c0-0.8-0.2-4.1-0.7-5c-1.2,0.5-3.4,2-3.9,3.5C30,9,27.3,9,24.9,9.4
		c-0.4-1.6-2.4-2.9-3.9-3.6c-0.6,1.1-0.9,3.5-0.8,5.3c0,0,0,0,0,0c0.1,1.6,0.3,3,0.6,4.3c-5.2,1.3-10.8,4.7-13.9,7.9
		c-1.5-2-2-3.6-2.2-4.8c-0.2-1.6,0.2-3,1.1-4.1c1.4-1.8,3.5-1.9,5.6-1.6c0,0.3,0,0.6,0.1,0.8c0.6,0.8,3.6,1.1,5.3,0.3
		c-1.3-1.8-4-2.8-4.7-2.4c-0.2,0.1-0.4,0.3-0.6,0.6c-0.7-0.1-1.5-0.2-2-0.2c-1.9,0-3.3,0.7-4.3,2c-1,1.3-1.5,2.9-1.2,4.7
		c0.2,1.7,1.1,3.4,2.4,5.3c-0.2,0.2-0.4,0.5-0.7,0.7C2.5,28.4,0,32.4,0,33.1v0.3h4.4L4.3,33c-0.2-1.3,0.2-3,1.3-4.2
		C6.3,28,7.3,27.1,9,26.7c1.5,1.4,3.4,3,5.5,4.5h3.3v-0.3c0-0.4-0.2-0.7-0.5-1c-0.5-0.3-1.3-0.4-2.1-0.1c-0.7-0.8-1.1-1.8-1.2-3.1
		c7.1,0.6,14,3.5,21.7,7.5h4.2l0.1-0.3C40.1,33.5,39.8,33,39.4,32.5z M21.4,6.8c0.4,1.9,1,3.1,2.4,3.7c1.2-0.4,2.6-0.6,4.1-0.6
		l1.2,2.6l0.8-2.7c1.5,0,2.9,0.2,4.1,0.6c1.3-0.9,1.8-2.3,2-3.6c0.3,1.4,0.3,4.5,0.3,4.5c0,1.2-0.1,2.3-0.3,3.3l-1.4,0.6l1.2,0.2
		c-0.1,0.4-0.2,0.8-0.3,1.2L34.3,17l0.9,0.3c-0.2,0.4-0.3,0.8-0.5,1.2h-1.9v0.5h1.7c-0.1,0.2-0.3,0.5-0.4,0.7h-1.3v0.5h1
		c-1.3,1.9-2.9,3.5-4.9,4.6c-2.2-1.1-3.9-2.7-5.1-4.6h0.7v-0.5h-1c-0.1-0.2-0.3-0.5-0.4-0.7h1.4v-0.5h-1.7c-0.3-0.6-0.6-1.2-0.8-1.8
		l0.9-0.2l-1.1-0.4c-0.1-0.4-0.2-0.7-0.3-1.1l1.7-0.1l-1.9-1C20.8,11.2,20.9,8.7,21.4,6.8z M5.1,28.4c-1,1.3-1.6,2.9-1.5,4.4H0.8
		c0.6-1.2,2.8-4.7,6.1-8.3c0.5,0.6,1,1.1,1.5,1.7C6.8,26.7,5.7,27.6,5.1,28.4z M35.8,33.5L35.8,33.5c-7.8-4.1-14.6-6.9-21.9-7.6
		c0-1,0.2-2.2,0.5-3.4l-0.7-0.2c-0.4,1.3-0.5,2.5-0.6,3.6c-0.8,0-1.5-0.1-2.3-0.1c-0.6,0-1.2,0.1-1.8,0.2c-0.7-0.7-1.3-1.4-1.8-2
		c0.9-1,2-1.9,3.2-2.7l1.6,1.1l-0.5-1.9c0.5-0.3,1-0.6,1.5-1l2.4,1.2l-1.1-1.9c0.3-0.2,0.7-0.4,1-0.5l3.4,2.2l-1.1-3.2
		c1.1-0.5,2.3-0.8,3.4-1.1c0.3,0.9,0.6,1.7,0.9,2.4h-1.5v0.5h1.8c0.1,0.2,0.3,0.5,0.4,0.7h-2.2v0.5h2.5c1.5,2.4,3.6,4.1,5.9,5.5
		c0.3-0.2,0.5-0.3,0.8-0.5l0.6,0.7l-1,1.6l1.7-0.8l1,1.1l-1.7,1.3l2.4-0.6l3.2,3.4l0.3,0c1.7-0.1,2.6,0.8,2.9,1
		c0.2,0.2,0.3,0.4,0.4,0.5H35.8z"/>
</g>
</svg>
