<?xml version="1.0" encoding="utf-8"?>
<!-- Generator: Adobe Illustrator 18.0.0, SVG Export Plug-In . SVG Version: 6.00 Build 0)  -->
<!DOCTYPE svg PUBLIC "-//W3C//DTD SVG 1.1//EN" "http://www.w3.org/Graphics/SVG/1.1/DTD/svg11.dtd">
<svg version="1.1" id="Layer_1" xmlns="http://www.w3.org/2000/svg" xmlns:xlink="http://www.w3.org/1999/xlink" x="0px" y="0px"
	 viewBox="0 0 612 792" enable-background="new 0 0 612 792" xml:space="preserve">
<g>
	<path fill="#777777" d="M507.3,561.7c-29-16-62.4-25.3-83-53.9c-17.6-24.5-40.5-34.5-65.4-28.6c-55.2,0-59,2-78.7,45
		c-4.5,9.8-6.7,20.9-8.1,31.7c-3.8,29.8-9.5,58.3-33.2,80.1c-26.1,24.1-30.1,56.2-24.8,88.6c1.6,9.6,15.6,22.9,25.3,24.2
		c29.9,3.8,60.2,2.6,84.6-21c6.3-6.1,16.1-8.2,23.6-13.3c40-26.8,84.6-35.9,131.9-35.2c23,0.4,40.8-4,52-29
		C551.3,606.3,547.3,583.7,507.3,561.7z"/>
	<path fill="#777777" d="M340.7,400.2c1.8,4,8.8,7,13.8,8.1c32.2,6.7,52.4-3.4,70.4-34.3c22.2-38.2,28.9-81.9,24-126.8
		c-5.1-46.3-33.5-72.2-71.4-92.6c-13.4-7.2-22.7-5.2-36.3,1.1c-40.5,18.7-59.3,48.8-61.4,93.9c5.2,19.4,15,38.9,14.7,58.3
		C293.8,347.8,326.8,368.8,340.7,400.2z"/>
	<path fill="#777777" d="M103.6,399.9c27.5,23.2,60,33.5,91.9,47.5c18.9,8.2,25.7,0.3,38.9-3c21.8-5.3,27.2-18.6,25.6-38
		c0-7.8,2.5-16.8-0.4-23.3c-21.8-47.7-43.7-95.5-67.9-142c-6.5-12.5-18.2-25-37.8-21.4c-15.3,2.8-30.4-1.3-45.1,11.4
		c-15.3,13.2-26.4,29.8-35.7,45.6c-9.3,15.8-15.4,41.7-8.7,57C74.2,356.5,82.5,382,103.6,399.9z"/>
	<path fill="#777777" d="M606.8,383.1c-9.9-21.9-25.6-37.4-42.4-52.1c-14.9-13.1-60.3-3.1-68.1,16.3
		c-16.2,40.1-45.6,75.6-25.8,126.7c15.1,39,20.2,52.1,59.3,52.2c38,0.2,38.6-2.8,60.9-38.3c10.3-16.4,4.8-34.7,12.1-47.5
		C614.4,420.2,616.6,404.8,606.8,383.1z"/>
	<path fill="#777777" d="M129.4,460.9c-7.7-7.1-19-10.3-29.5-15.6c-8.3,5.9-22.8,10.8-27.3,20.4c-11.3,24.5-20.9,49.8-25.2,77.3
		c-6.1,39.2,62.7,110.4,102.4,112.4c8.9,0.4,20-0.4,26.7-5.3c26.7-19.3,23.2-52.8,31.4-79.9c4-13-7-34.3-17.1-47.1
		C172.9,500.4,150.9,480.6,129.4,460.9z"/>
	<path fill="#777777" d="M334.9,134.8c5.5,4.6,23.6,4.4,25.9,0.6c8-13.7,18.7-31.9,15.2-44.9c-4.7-17.4-19.2-34.7-34.1-45.9
		c-12-9-25.7,3.8-32.9,15.5c-3.6,5.8-1.8,14.8-3,28.9C298.8,109.1,319.1,121.8,334.9,134.8z"/>
	<path fill="#777777" d="M536.7,314.9c18.5-2.3,27.4-11.8,29.2-28.3c2.9-26.3-8.8-47.2-27.6-64.5c-2.3-2.1-7.1-1.4-10.8-2
		c-1.6,0.8-3.9,1.1-4.8,2.4c-7.9,12.4,1.4,30.4-14.6,41.7c-2.8,2,5.2,19.7,8.6,30C520,304.1,518.2,317.2,536.7,314.9z"/>
	<path fill="#777777" d="M56.3,451.8c8.2-5.7,12.5-16.9,19.1-26.9c-11.9-23-29.7-37.2-47.3-50.9c-2.5-1.9-14,4.1-18.5,9
		c-17.8,19.4-7.2,47.8,23.5,63.2C40.3,449.7,52,454.8,56.3,451.8z"/>
	<path fill="#777777" d="M107.1,219.7c14.3-3,24.2-12.8,23.5-34.5c9.7-17.3-8.8-26.6-20.7-38.5c-11.9-11.9-32.4-8.7-35.3,6.8
		c-2.6,13.7-0.8,29.4,3.5,42.8C85.6,220.1,90,223.3,107.1,219.7z"/>
</g>
</svg>
