<?xml version="1.0" encoding="utf-8"?>
<!-- Generator: Adobe Illustrator 17.1.0, SVG Export Plug-In . SVG Version: 6.00 Build 0)  -->
<!DOCTYPE svg PUBLIC "-//W3C//DTD SVG 1.1//EN" "http://www.w3.org/Graphics/SVG/1.1/DTD/svg11.dtd">
<svg version="1.1" id="Layer_1" xmlns="http://www.w3.org/2000/svg" xmlns:xlink="http://www.w3.org/1999/xlink" x="0px" y="0px"
	 viewBox="0 0 40 40" enable-background="new 0 0 40 40" xml:space="preserve">
<path fill="#787878" d="M20,0C9,0,0,9,0,20c0,11,9,20,20,20c11,0,20-9,20-20C40,9,31,0,20,0z M24.5,6.9c0.7-1.3,2.4-1.7,3.6-1
	c1.3,0.7,1.7,2.4,1,3.6c-0.7,1.3-2.4,1.7-3.6,1C24.2,9.8,23.8,8.2,24.5,6.9z M20,8.4c1.1,0,2.1,0.1,3.1,0.4c0.2,1.1,0.8,2.1,1.8,2.6
	c1,0.6,2.2,0.6,3.2,0.3c2,1.9,3.3,4.6,3.4,7.5l-3.8,0.1c-0.4-4-3.7-7.1-7.8-7.1c-1.2,0-2.3,0.3-3.3,0.7l-1.9-3.3
	C16.4,8.8,18.2,8.4,20,8.4z M6.4,22.7c-1.5,0-2.7-1.2-2.7-2.7c0-1.5,1.2-2.7,2.7-2.7c1.5,0,2.7,1.2,2.7,2.7
	C9.1,21.5,7.9,22.7,6.4,22.7z M8.8,22.9c0.8-0.7,1.4-1.7,1.4-2.9c0-1.2-0.5-2.2-1.4-2.9c0.7-2.8,2.5-5.2,4.8-6.7l2,3.3
	c-2,1.4-3.3,3.7-3.3,6.4c0,2.6,1.3,5,3.3,6.4l-2,3.3C11.2,28.1,9.5,25.7,8.8,22.9z M28.1,34.1c-1.3,0.7-2.9,0.3-3.6-1
	c-0.7-1.3-0.3-2.9,1-3.6c1.3-0.7,2.9-0.3,3.6,1C29.8,31.7,29.4,33.4,28.1,34.1z M28.1,28.3c-1-0.4-2.2-0.3-3.2,0.3
	c-1,0.6-1.7,1.6-1.8,2.6c-1,0.3-2,0.4-3.1,0.4c-1.8,0-3.6-0.4-5.1-1.2l1.9-3.3c1,0.5,2.1,0.7,3.3,0.7c4.1,0,7.4-3.1,7.8-7.1l3.8,0.1
	C31.4,23.7,30.1,26.3,28.1,28.3z"/>
</svg>
