<?xml version="1.0" encoding="utf-8"?>
<!-- Generator: Adobe Illustrator 18.0.0, SVG Export Plug-In . SVG Version: 6.00 Build 0)  -->
<!DOCTYPE svg PUBLIC "-//W3C//DTD SVG 1.1//EN" "http://www.w3.org/Graphics/SVG/1.1/DTD/svg11.dtd">
<svg version="1.1" id="Layer_1" xmlns="http://www.w3.org/2000/svg" xmlns:xlink="http://www.w3.org/1999/xlink" x="0px" y="0px"
	 viewBox="0 0 612 792" enable-background="new 0 0 612 792" xml:space="preserve">
<g id="Rn7qW5_1_">
	<g>
		<path fill="#777777" d="M220.3,349.6c0,36.6-0.1,73.1,0,109.7c0,13.7,2.6,25.1,20.4,24.8c17.5-0.3,22-10.6,21.9-25.6
			c-0.1-23.5,0.3-47-0.1-70.5c-0.2-9.9,3.2-14.2,13.6-13.9c20.4,0.6,40.8,0.5,61.1,0.1c9.6-0.2,12.9,3.8,12.8,13
			c-0.2,23.5-0.5,47,0.3,70.5c0.5,13.1,1.6,26.8,20.9,26.5c15.9-0.3,22.5-7.8,22.4-23.2c-0.2-71.1-0.1-142.1-0.1-213.2
			c0-27.5,0.5-27.7,26.6-15.4c40.6,19.1,59.9,52,60.7,95.8c0.8,46.5,1.7,93.1-0.2,139.5c-3.3,81.9-78.7,123.8-151.8,95.9
			c-16.5-6.3-28.4-6.5-44.6-0.2c-59,23.1-133,1.4-149.2-73c-2.7-12.6-2.3-25.9-2.3-38.9c-0.1-44.9-0.5-89.9,0.7-134.8
			c1.2-46.7,35-78,75.8-90.6c12.2-3.8,10.7,4,10.7,10.6C220.3,274.4,220.2,312,220.3,349.6C220.2,349.6,220.3,349.6,220.3,349.6z"/>
		<path fill="#777777" d="M201.4,183.1c-65.8,10.2-109.2,63.8-112.1,131.1c-0.7,15.7-0.9,31.4-0.6,47c0.2,10.3-3.1,15.5-14.3,15.2
			c-19.8-0.5-39.8,0.5-59.6-0.6c-4.7-0.3-12.8-6.4-13-10.2c-3.7-65.9,5.6-128.3,45.7-184c39.9-55.6,94.1-84.6,160.8-89
			c55.7-3.7,111.8-5.3,167.5-2.9C466.5,93.5,541.2,129.4,587,212c19.6,35.3,26.1,74.3,25.9,114.5c-0.1,49.8,0,49.8-49.5,49.8
			c-37.9,0-38.5,0-37.8-37.9c1.1-60.9-19.1-110.3-74.1-141.5c-24.2-13.7-50.5-18.7-78.2-17.8C350.4,179.9,234.9,177.9,201.4,183.1z"
			/>
		<path fill="#777777" d="M166.2,692.7C82,674.6,14.1,593.6,5,507.7c-2.6-24.8-2.5-49.9-4-74.8c-0.6-10.5,3-15.2,14.2-14.8
			c19.8,0.7,39.7,0.6,59.5,0c10.3-0.3,13.6,3.7,13.8,13.7c0.6,22.4,0.8,44.9,3.9,67c8.8,62.6,59.1,110.7,122.6,113.5
			c61.9,2.7,124,2.7,185.9-0.1c60.8-2.7,113-53.7,121-114.1c2.9-22.1,2.8-44.6,3.3-67c0.2-9.3,3.1-13.1,12.7-12.9
			c20.9,0.5,41.8-0.4,62.7,0.6c4.2,0.2,11.5,6.1,11.6,9.6c1.6,44.3,1.3,88.4-15.2,130.8c-18.7,48.2-52,83-95.6,109.4
			c-43.5,26.3-91.1,34.1-140.7,34.6c-18.3,0.2-36.6,0-54.9,0C305.8,704.3,211.6,702.5,166.2,692.7z"/>
	</g>
</g>
</svg>
