<?xml version="1.0" encoding="utf-8"?>
<!-- Generator: Adobe Illustrator 17.1.0, SVG Export Plug-In . SVG Version: 6.00 Build 0)  -->
<!DOCTYPE svg PUBLIC "-//W3C//DTD SVG 1.1//EN" "http://www.w3.org/Graphics/SVG/1.1/DTD/svg11.dtd">
<svg version="1.1" id="Layer_1" xmlns="http://www.w3.org/2000/svg" xmlns:xlink="http://www.w3.org/1999/xlink" x="0px" y="0px"
	 viewBox="0 0 40 40" enable-background="new 0 0 40 40" xml:space="preserve">
<g>
	<path fill="#777777" d="M2.8,20c0,6.8,3.9,12.7,9.7,15.4L4.3,13C3.4,15.2,2.8,17.5,2.8,20z"/>
	<path fill="#777777" d="M31.6,19.1c0-2.1-0.8-3.6-1.4-4.7c-0.9-1.4-1.7-2.6-1.7-4c0-1.6,1.2-3,2.9-3c0.1,0,0.1,0,0.2,0
		C28.5,4.6,24.5,2.8,20,2.8c-6,0-11.3,3.1-14.3,7.7c0.4,0,0.8,0,1.1,0c1.8,0,4.6-0.2,4.6-0.2c0.9-0.1,1,1.3,0.1,1.4
		c0,0-0.9,0.1-2,0.2l6.2,18.6l3.8-11.3L16.8,12c-0.9-0.1-1.8-0.2-1.8-0.2c-0.9-0.1-0.8-1.5,0.1-1.4c0,0,2.8,0.2,4.5,0.2
		c1.8,0,4.6-0.2,4.6-0.2c0.9-0.1,1,1.3,0.1,1.4c0,0-0.9,0.1-2,0.2l6.2,18.4l1.7-5.7C31,22.3,31.6,20.6,31.6,19.1z"/>
	<path fill="#777777" d="M20.3,21.5l-5.1,15c1.5,0.5,3.2,0.7,4.8,0.7c2,0,3.9-0.3,5.7-1c0-0.1-0.1-0.2-0.1-0.2L20.3,21.5z"/>
	<path fill="#777777" d="M35.1,11.8c0.1,0.5,0.1,1.1,0.1,1.8c0,1.7-0.3,3.7-1.3,6.1l-5.2,15.2c5.1-3,8.5-8.5,8.5-14.8
		C37.2,17,36.4,14.2,35.1,11.8z"/>
	<path fill="#777777" d="M20,0C9,0,0,9,0,20c0,11,9,20,20,20c11,0,20-9,20-20C40,9,31,0,20,0z M20,39.1C9.5,39.1,0.9,30.5,0.9,20
		C0.9,9.5,9.5,0.9,20,0.9c10.5,0,19.1,8.6,19.1,19.1C39.1,30.5,30.5,39.1,20,39.1z"/>
</g>
</svg>
