<?xml version="1.0" encoding="utf-8"?>
<!-- Generator: Adobe Illustrator 18.1.1, SVG Export Plug-In . SVG Version: 6.00 Build 0)  -->
<svg version="1.1" id="Layer_1" xmlns="http://www.w3.org/2000/svg" xmlns:xlink="http://www.w3.org/1999/xlink" x="0px" y="0px"
	 viewBox="0 0 612 792" enable-background="new 0 0 612 792" xml:space="preserve">
<g>
	<path fill="#333333" d="M277,389.3c-1.2,0-1.9-0.9-2.3-1.5c-0.1-0.1-0.1-0.2-0.2-0.3c-0.2-0.3-1.2-1-2.1-0.8
		c-0.9,0.2-1.5,1.4-1.9,2.4c-1.3,3.9,0.5,6,0.9,6.3c0.3,0.1,1.1,0.5,1.9-0.3c0.7-0.7,1.5-0.6,1.8-0.5c0.8,0.2,1.5,1,2.1,2.4
		c0.4,0.9,0.6,1.7,0.6,1.7c0,0.1,0.4,1.4-0.2,3.1c0.5,0.4,0.9,0.9,1.3,1.4c1.7,2.7,1.7,4.6,1.7,5.1c0,0.3,0,1.5-0.5,3
		c-0.3,0.9-0.9,1.9-1.9,2.9h6c0,0,0.5-0.2,0.5-1.1s-0.4-6.5,0.1-8.7c0,0,1.1-7.3,7-7.7c0,0,0.2,0,0.6,0.1c0.4-1.7,0.3-3.2,0.1-3.7
		c-0.4-0.8-0.8-0.8-0.9-0.8c-0.3,0-1,0.4-1.7,0.8c-2.3,1.3-4.3-0.4-5.1-1.6c-0.3-0.4-2.3-3.4-1.1-7.3c0.4-1.5,1.1-2.4,2-2.9
		c1.2-0.6,2.5,0,3.3,0.4c0.2,0.1,0.3,0.2,0.5,0.2c0.4,0.2,0.5,0.1,0.7,0.1c0.5-0.4,0.4-1.7,0.1-2.9c-0.2-1-0.5-1.8-0.7-2.3
		c-2,0.2-6,0.6-9.2,0.7c0.6,2.4,1.5,7.4-0.5,9.7C278.9,388.7,277.9,389.3,277,389.3z"/>
	<path fill="#333333" d="M289,384.3c-0.2-0.1-0.4-0.2-0.6-0.3c-0.5-0.3-1.2-0.6-1.6-0.4c-0.3,0.1-0.6,0.7-0.9,1.5
		c-0.9,3.1,0.7,5.4,0.8,5.5l0,0.1c0,0,0.3,0.5,0.8,0.8c0.7,0.5,1.2,0.3,1.5,0.1c1.1-0.6,1.9-1,2.6-1.1c1-0.1,1.8,0.5,2.4,1.1
		c0.8,0.7,1.1,2,0.9,3.9c-0.1,0.9-0.2,1.8-0.3,2.2c1.9,0.9,4.1,3,3.4,8.1c0,0-0.9,5.8-6,6.2c0,0-1.2-0.5-1.4,0.7l-0.3,1.4
		c0,0,0,0.4,1.1,0.4c0,0,6,0.8,9.4-3.4c0,0,3.8-5.1,3.9-11.7c0,0,0.5-9.3-4-17.6c0,0-2.2-5-8.8-4.7c0.2,0.6,0.4,1.3,0.6,2.1
		c0.5,2.4,0.2,4.1-0.9,5C291.5,384.4,290.7,384.9,289,384.3z M298.2,384.9c0.9,0,1.6,0.7,1.6,1.6c0,0.9-0.7,1.6-1.6,1.6
		s-1.6-0.7-1.6-1.6C296.6,385.7,297.3,384.9,298.2,384.9z"/>
	<path fill="#333333" d="M316.6,413.7c1.1-0.5,2-1.2,2.7-2.1c0.7-0.9,1.2-2,1.6-3.3c0.3-1.3,0.5-2.7,0.5-4.3c0-1.6-0.2-3.1-0.5-4.4
		c-0.3-1.3-0.9-2.4-1.6-3.3c-0.7-0.9-1.6-1.6-2.7-2.1c-1.1-0.5-2.4-0.7-3.9-0.7h-5.9v20.9h5.9C314.2,414.4,315.5,414.2,316.6,413.7z
		 M311.6,397.6h1.2c1.1,0,2.1,0.5,2.8,1.6c0.7,1.1,1.1,2.7,1.1,4.8c0,2-0.4,3.6-1.1,4.7c-0.7,1.1-1.7,1.6-2.8,1.6h-1.2V397.6z"/>
	<path fill="#333333" d="M253.1,387.9c0.6-3.8,3.3-4.8,3.9-4.9c2.5-0.9,4.1,1.1,4.9,2.6c0.1,0.2,0.5,0.6,0.9,0.6
		c0.6,0,1.3-0.7,2-1.7c1.2-1.8,0.4-5.5,0-6.9c-1.9,0.1-3.6,0.2-4.8,0.4c0,0-12.5,1.2-10.1,17.9c0,0,0.2,1.7,0.4,4
		c6.2,0.2,7.8-3.6,7.9-3.7l0,0c0.8-1.9,0.4-2.5,0.4-2.5c-0.1-0.1-0.2-0.1-0.3-0.1c-1.8,0.2-2.9-0.1-3.2-0.2
		C252.6,392.5,253,388.4,253.1,387.9L253.1,387.9z"/>
	<polygon fill="#333333" points="358.4,414.4 358.4,406.9 363.7,393.5 358.7,393.5 356.1,401.5 353.5,393.5 348.4,393.5 
		353.7,406.9 353.7,414.4 	"/>
	<path fill="#333333" d="M253.3,414.4h6.8c-0.5-1.3-0.9-3.4-0.9-6.3c0.1-3.1,1.6-4.8,2.8-5.8c1.3-1,2.5-1.3,2.7-1.3
		c0.3-0.1,2.4-0.5,4.2,0c0.6,0.2,2.2,0,3.1-0.1c0.1,0,1.2-0.2,2.5-0.1c0.3,0,0.7,0.1,1,0.2c0.3-0.9,0.1-1.6,0.1-1.7
		c-0.2-0.9-0.5-1.4-0.9-1.9c-0.1-0.1-0.5-0.4-1-0.1c-1.7,1.3-3,0.4-3.7-0.2l-0.1,0l0,0c-0.1-0.1-3.5-3-1.6-8.6
		c0.7-2.2,1.9-3.5,3.4-3.8c1.8-0.4,3.4,0.7,4.1,1.5c0.1,0.1,0.2,0.2,0.3,0.3c0.2,0.3,0.5,0.5,0.8,0.5c0.2,0,0.4,0.1,1.2-0.8
		c1.3-1.4,0.7-5.7-0.1-8.4c-0.1,0-0.2,0-0.2,0c0,0-5.4-0.3-10.5-0.2c0.1,0.6,0.3,1.4,0.5,2.4c0.3,2.4,0,4.3-0.9,5.6l0,0
		c-0.4,0.5-2.2,2.9-4.1,2.9c-0.1,0-0.1,0-0.2,0c-0.6,0-1.5-0.4-2.2-1.6c-0.2-0.5-1.2-2.3-2.3-1.9l-0.1,0l-0.1,0c0,0-0.4,0.1-0.9,0.5
		c-0.8,0.6-1.2,1.5-1.4,2.7c0,0.1-0.2,0.9,0,1.6c0.3,1.4,1.6,1.7,3,1.5l0.1,0c0.1,0,1.4-0.1,2.1,1c0.7,1,0.7,2.5-0.1,4.5
		c-0.1,0.3-2.1,5.1-9.4,5.1c-0.1,0-0.2,0-0.2,0c0.2,1.8,0.3,3.7,0.3,5.3c0,0,0.1,4.4-0.1,5.5C251,412.8,249.8,414.4,253.3,414.4z"/>
	<path fill="#333333" d="M327.1,406.1h1.4l2.8,8.3h8.6l0.9-3.8h4.7l0.9,3.8h4.9l-5.1-20.9h-5.9l-4.7,19.2l-2.9-7.6
		c0.3-0.1,0.7-0.3,1-0.6c0.4-0.3,0.7-0.6,1-1.1c0.3-0.4,0.5-1,0.7-1.6c0.2-0.6,0.3-1.3,0.3-2.1c0-2.1-0.6-3.7-1.7-4.7
		c-1.1-1.1-2.7-1.6-4.7-1.6h-6.7v20.9h4.6V406.1z M343.1,398.1h0.1l1.7,8.9h-3.6L343.1,398.1z M327.1,397.5h1.5c0.3,0,0.6,0,0.8,0.1
		c0.3,0.1,0.5,0.2,0.8,0.4c0.2,0.2,0.4,0.5,0.6,0.8c0.1,0.3,0.2,0.8,0.2,1.3c0,0.9-0.3,1.6-0.8,2.1c-0.5,0.4-1.1,0.6-1.8,0.6h-1.4
		V397.5z"/>
	<path fill="#333333" d="M268.7,413.6c0,0-0.1,0.8,0.7,0.8h1.7c0,0,0.5-0.4,0-0.8c0,0-0.9-3.5,1.5-4c0,0,2.2-0.3,2.2,2.1
		c0,0-0.1,1.5-2.1,1.6v1c1.4,0,2.4-0.4,2.8-0.7c2.8-2,2.7-5,2.7-5.1l0-0.1l0-0.1c0-0.1,0-1.6-1.4-3.9c-1.4-2.2-4.3-1.6-4.4-1.5
		c-0.4,0.1-2.7,0.5-4.1,0.1c-1.1-0.3-2.6-0.1-3.1,0l0,0c-0.2,0-3.8,0.9-3.9,5.1c-0.1,3.2,0.6,5.3,1,6.3h0.8c0,0,0.9,0.1,1.1-0.5
		c0,0,0.3-3,2.7-3C266.9,410.9,268.7,410.7,268.7,413.6z M275.6,406.6c0.6,0,1,0.5,1,1c0,0.6-0.5,1-1,1c-0.6,0-1-0.5-1-1
		C274.6,407,275.1,406.6,275.6,406.6z"/>
</g>
</svg>
