<?xml version="1.0" encoding="utf-8"?>
<!-- Generator: Adobe Illustrator 17.1.0, SVG Export Plug-In . SVG Version: 6.00 Build 0)  -->
<!DOCTYPE svg PUBLIC "-//W3C//DTD SVG 1.1//EN" "http://www.w3.org/Graphics/SVG/1.1/DTD/svg11.dtd">
<svg version="1.1" id="Layer_1" xmlns="http://www.w3.org/2000/svg" xmlns:xlink="http://www.w3.org/1999/xlink" x="0px" y="0px"
	 viewBox="0 0 140 30" enable-background="new 0 0 140 30" xml:space="preserve">
<g>
	<path fill="#8EC641" d="M2.5,23c0.9,1.3,2.1,2.5,3.4,3.4l4.7-8.1L2.5,23"/>
	<path fill="#8EC641" d="M6,3.2C4.6,4.2,3.5,5.3,2.5,6.7l8.1,4.7L6,3.2"/>
	<path fill="#8EC641" d="M20.1,2c-1.4-0.7-3-1.1-4.7-1.3v9.4L20.1,2"/>
	<path fill="#8EC641" d="M8.2,27.7c1.4,0.7,3,1.1,4.7,1.3v-9.4L8.2,27.7"/>
	<path fill="#8EC641" d="M25.7,6.7c-0.9-1.3-2.1-2.5-3.4-3.4l-4.7,8.1L25.7,6.7"/>
	<path fill="#8EC641" d="M22.3,26.4c1.3-0.9,2.5-2.1,3.4-3.4l-8.1-4.7L22.3,26.4"/>
	<path fill="#048040" d="M28.2,13.6c-0.2-1.7-0.6-3.2-1.3-4.7l-8.1,4.7H28.2"/>
	<path fill="#048040" d="M0,16.1c0.2,1.7,0.6,3.2,1.3,4.7l8.1-4.7H0"/>
	<path fill="#048040" d="M1.3,8.9c-0.7,1.4-1.1,3-1.3,4.7h9.4L1.3,8.9"/>
	<path fill="#048040" d="M18.9,16.1l8.1,4.7c0.7-1.4,1.1-3,1.3-4.7H18.9"/>
	<path fill="#048040" d="M12.8,0.7C11.2,0.9,9.6,1.3,8.2,2l4.7,8.1V0.7"/>
	<path fill="#048040" d="M15.4,29c1.7-0.1,3.2-0.6,4.7-1.3l-4.7-8.1V29"/>
	<path fill="#048040" d="M24.8,2.4c0-0.9,0.8-1.7,1.7-1.7c0.9,0,1.7,0.8,1.7,1.7c0,0.9-0.8,1.7-1.7,1.7C25.6,4.1,24.8,3.4,24.8,2.4
		 M28,2.4C28,1.6,27.4,1,26.5,1c-0.8,0-1.4,0.6-1.4,1.4c0,0.8,0.6,1.4,1.4,1.4C27.4,3.9,28,3.3,28,2.4 M26.2,3.4h-0.3v-2h0.8
		c0.5,0,0.7,0.2,0.7,0.5c0,0.4-0.3,0.5-0.6,0.5l0.6,0.9h-0.3l-0.5-0.9h-0.4V3.4z M26.5,2.3c0.3,0,0.7,0,0.7-0.3
		c0-0.3-0.2-0.3-0.5-0.3h-0.5v0.6H26.5z"/>
	<path fill="#010101" d="M44.5,11.7c-0.1-1.2-1.4-2.1-2.8-2.1c-3.2,0-3.8,2.9-3.8,5.2c0,2.7,0.8,5.2,3.6,5.2c1.4,0,2.6-0.7,2.9-2.1
		h1.9c-0.2,2.2-2.4,3.6-4.9,3.6c-3.8,0-5.4-3.1-5.4-6.8c0-3.2,1.4-6.9,5.8-6.8c2.5,0.1,4.4,1.3,4.6,3.6H44.5"/>
	<path fill="#010101" d="M49.5,17.1c-0.1,1.6,0.5,3.2,2.3,3.2c1.3,0,2-0.5,2.2-1.8h1.8c-0.3,2.1-1.9,3.1-4,3.1
		c-2.9,0-4.1-2.1-4.1-4.7c0-2.6,1.3-4.9,4.2-4.9c2.7,0.1,4,1.8,4,4.3v0.8H49.5 M54.1,16c0-1.5-0.7-2.7-2.3-2.7
		c-1.4,0-2.3,1.2-2.3,2.7H54.1z"/>
	<path fill="#010101" d="M59.3,13.6L59.3,13.6c0.6-1.1,1.9-1.6,2.8-1.6c0.6,0,3.4,0.2,3.4,3.1v6.2h-1.7v-5.7c0-1.5-0.6-2.3-2.1-2.3
		c0,0-0.9-0.1-1.7,0.7c-0.3,0.3-0.7,0.6-0.7,2.4v4.9h-1.7v-9h1.7V13.6"/>
	<path fill="#010101" d="M68.2,12.3v-1.9l1.7-0.5v2.5H72v1.2h-2.1v5.8c0,0.6,0.5,1,1.1,1c0.3,0,0.6,0,0.9-0.1v1.3
		c-0.4,0-0.8,0.1-1.2,0.1c-0.4,0-0.7,0-1.2-0.1c-0.3-0.1-0.7-0.2-1-0.6c-0.3-0.4-0.4-0.5-0.4-1.7v-5.7h-1.5v-1.2H68.2"/>
	<path fill="#010101" d="M79.6,12.3h1.7v9h-1.7V20h0c-0.7,1.1-1.8,1.6-3.1,1.6c-1.9,0-3-1.4-3-3.3v-6.1h1.7v5.4c0,1.6,0.4,2.7,2,2.7
		c0.7,0,1.7-0.4,2-1.3c0.3-0.8,0.3-1.9,0.3-2.1V12.3"/>
	<path fill="#010101" d="M85.3,21.3h-1.7v-9h1.7V14h0c0.3-1.2,1.4-1.9,2.6-1.9c0.2,0,0.4,0,0.6,0v1.6c-0.2-0.1-0.5-0.1-0.7-0.1
		c-2.2,0.1-2.5,1.2-2.5,3.1V21.3"/>
	<polygon fill="#010101" points="93.6,24.8 91.9,24.8 93.2,21.3 89.5,12.3 91.4,12.3 94.2,19.4 97.1,12.3 98.9,12.3 	"/>
	<polygon fill="#010101" points="100.2,21.3 100.2,8.3 103,8.3 103,19.2 108.7,19.2 108.7,21.3 	"/>
	<path fill="#010101" d="M110.3,8.3h2.9v2.3h-2.9V8.3z M110.3,12.3h2.7v9h-2.7V12.3z"/>
	<path fill="#010101" d="M118.3,13.3L118.3,13.3c0.6-0.8,1.4-1.3,2.8-1.3c0.9,0,2.6,0.7,3,2c0.1,0.6,0.2,1.1,0.2,1.4v5.9h-2.7v-5.4
		c0-1-0.3-2.1-1.6-2.1c-0.8,0-1.6,0.8-1.6,2.1v5.4h-2.7v-9h2.7V13.3"/>
	<polygon fill="#010101" points="129.6,16 129.7,16 132.3,12.2 135.3,12.2 132.2,16.2 135.5,21.3 132.4,21.3 129.7,16.4 129.6,16.4 
		129.6,21.3 126.9,21.3 126.9,8.3 129.6,8.3 	"/>
	<path fill="#010101" d="M136.6,13.9c0-0.9,0.8-1.7,1.7-1.7c0.9,0,1.7,0.8,1.7,1.7c0,0.9-0.8,1.7-1.7,1.7
		C137.4,15.6,136.6,14.8,136.6,13.9 M139.7,13.9c0-0.8-0.6-1.4-1.4-1.4c-0.8,0-1.4,0.6-1.4,1.4c0,0.8,0.6,1.4,1.4,1.4
		C139.1,15.3,139.7,14.7,139.7,13.9 M137.9,14.9h-0.3v-2h0.8c0.5,0,0.7,0.2,0.7,0.5c0,0.4-0.3,0.5-0.6,0.5l0.6,0.9h-0.3l-0.5-0.9
		h-0.4V14.9z M138.3,13.8c0.3,0,0.7,0,0.7-0.3c0-0.3-0.2-0.3-0.5-0.3h-0.5v0.6H138.3z"/>
</g>
</svg>
