<?xml version="1.0" encoding="utf-8"?>
<!-- Generator: Adobe Illustrator 17.1.0, SVG Export Plug-In . SVG Version: 6.00 Build 0)  -->
<!DOCTYPE svg PUBLIC "-//W3C//DTD SVG 1.1//EN" "http://www.w3.org/Graphics/SVG/1.1/DTD/svg11.dtd">
<svg version="1.1" id="Layer_1" xmlns="http://www.w3.org/2000/svg" xmlns:xlink="http://www.w3.org/1999/xlink" x="0px" y="0px"
	 viewBox="0 0 155 20" enable-background="new 0 0 155 20" xml:space="preserve">
<g>
	<polygon fill="#CCCCCC" points="21.7,0.2 21.7,6.1 31.5,6.1 31.5,10 21.7,10 21.7,19.8 37.4,19.8 37.4,0.2 	"/>
	<polygon fill="#CCCCCC" points="64.9,0.2 64.9,6.1 74.7,6.1 74.7,10 64.9,10 64.9,19.8 80.5,19.8 80.5,0.2 	"/>
	<polygon fill="#FFFFFF" points="113.9,0.2 113.9,6.1 123.7,6.1 123.7,10 113.9,10 113.9,19.8 129.6,19.8 129.6,0.2 	"/>
	<polygon fill="#CCCCCC" points="41.3,0.2 41.3,19.8 47.2,19.8 47.2,6.1 55.1,6.1 55.1,19.8 61,19.8 61,0.2 	"/>
	<polygon fill="#FFFFFF" points="84.4,0.2 84.4,19.8 90.3,19.8 90.3,6.1 94.2,6.1 94.2,19.8 100.1,19.8 100.1,6.1 104.1,6.1 
		104.1,19.8 110,19.8 110,0.2 	"/>
	<polygon fill="#FFFFFF" points="155.1,0.2 147.3,0.2 143.3,5.1 139.4,0.2 131.6,0.2 139.4,10 131.6,19.8 139.4,19.8 143.3,14.9 
		147.3,19.8 155.1,19.8 147.3,10 	"/>
	<path fill="#CCCCCC" d="M0.1,0.2v19.6H6v-3.9h11.8V0.2H0.1z M11.9,10H6V6.1h5.9V10z"/>
</g>
</svg>
