<?xml version="1.0" encoding="utf-8"?>
<!-- Generator: Adobe Illustrator 17.1.0, SVG Export Plug-In . SVG Version: 6.00 Build 0)  -->
<!DOCTYPE svg PUBLIC "-//W3C//DTD SVG 1.1//EN" "http://www.w3.org/Graphics/SVG/1.1/DTD/svg11.dtd">
<svg version="1.1" id="Layer_1" xmlns="http://www.w3.org/2000/svg" xmlns:xlink="http://www.w3.org/1999/xlink" x="0px" y="0px"
	 viewBox="0 0 120 50" enable-background="new 0 0 120 50" xml:space="preserve">
<g>
	<g>
		<path fill="#8FC644" d="M5.3,38.9c1.6,2.3,3.6,4.3,5.9,5.9l8-13.9L5.3,38.9"/>
		<path fill="#8FC644" d="M11.3,5c-2.3,1.6-4.3,3.6-6,5.9l13.9,8L11.3,5"/>
		<path fill="#8FC644" d="M35.5,2.9c-2.5-1.2-5.2-2-8-2.1v16.2L35.5,2.9"/>
		<path fill="#8FC644" d="M15.1,47.1c2.5,1.2,5.2,2,8,2.1V33.1L15.1,47.1"/>
		<path fill="#8FC644" d="M45.3,10.9c-1.6-2.3-3.6-4.3-5.9-5.9l-8.2,14L45.3,10.9"/>
		<path fill="#8FC644" d="M39.4,45c2.3-1.6,4.3-3.6,5.9-5.9l-14-8.2L39.4,45"/>
		<path fill="#138846" d="M49.5,22.8c-0.2-2.8-1.1-5.5-2.1-8l-14,8H49.5"/>
		<path fill="#138846" d="M1,27.2c0.2,2.8,1.1,5.5,2.1,8l14-8H1"/>
		<path fill="#138846" d="M3.2,14.8c-1.1,2.5-2,5.2-2.1,8h16.2L3.2,14.8"/>
		<path fill="#138846" d="M33.5,27.2l14,8c1.1-2.5,2-5.2,2.1-8H33.5"/>
		<path fill="#138846" d="M23.1,0.7c-2.8,0.2-5.5,1.1-8,2.1l8,13.9V0.7"/>
		<path fill="#138846" d="M27.5,49.3c2.8-0.2,5.5-1.1,8-2.1l-8-13.9V49.3"/>
	</g>
	<polygon fill="#138846" points="43.8,1.4 42.4,1.4 42.4,0.8 46,0.8 46,1.4 44.6,1.4 44.6,5.3 43.8,5.3 	"/>
	<polygon fill="#138846" points="50.8,1.2 50.8,1.2 49.4,5.3 48.6,5.3 47.2,1.2 47.2,1.2 47.2,5.3 46.7,5.3 46.7,0.8 47.8,0.8 
		49,4.4 49,4.4 50.4,0.8 51.3,0.8 51.3,5.3 50.8,5.3 	"/>
	<g>
		<path fill="#A7A9AC" d="M62.4,31.9V18.1h1.3v12.8h7.4v1.1H62.4z"/>
		<path fill="#A7A9AC" d="M72.8,31.9l5.5-13.9h1.5L85,31.9h-1.3l-1.6-4.4h-6.3l-1.6,4.4H72.8z M76.2,26.5h5.4l-2.7-7.3L76.2,26.5z"
			/>
		<path fill="#A7A9AC" d="M87.9,31.9V18.1h5c0.8,0,1.5,0.1,2.1,0.3c0.6,0.2,1.1,0.4,1.4,0.7c0.4,0.3,0.6,0.7,0.8,1.1
			c0.2,0.4,0.3,0.9,0.3,1.4c0,0.5-0.1,0.9-0.2,1.3c-0.1,0.4-0.3,0.6-0.5,0.9c-0.2,0.2-0.4,0.4-0.7,0.6c-0.3,0.1-0.5,0.2-0.8,0.3v0
			c1,0.1,1.7,0.5,2.1,1.1c0.5,0.6,0.7,1.4,0.7,2.3c0,0.7-0.1,1.3-0.3,1.8c-0.2,0.5-0.5,0.9-0.9,1.2c-0.4,0.3-0.9,0.5-1.4,0.7
			c-0.6,0.1-1.2,0.2-1.8,0.2H87.9z M89.2,24.2h3.3c0.7,0,1.3-0.1,1.7-0.2c0.5-0.1,0.8-0.3,1.1-0.5c0.3-0.2,0.5-0.5,0.6-0.8
			c0.1-0.3,0.2-0.7,0.2-1.1c0-0.4-0.1-0.8-0.2-1.1c-0.1-0.3-0.4-0.5-0.7-0.7c-0.3-0.2-0.7-0.3-1.2-0.4c-0.5-0.1-1.1-0.1-1.8-0.1h-3
			V24.2z M89.2,30.8h3.3c0.7,0,1.3,0,1.9-0.1c0.5-0.1,1-0.2,1.3-0.4c0.3-0.2,0.6-0.5,0.8-0.8c0.2-0.4,0.3-0.9,0.3-1.5
			c0-0.6-0.1-1-0.3-1.4c-0.2-0.4-0.5-0.6-0.8-0.8c-0.4-0.2-0.8-0.3-1.3-0.4c-0.5-0.1-1.1-0.1-1.7-0.1h-3.5V30.8z"/>
		<path fill="#A7A9AC" d="M102.2,27.8c0.1,0.6,0.2,1.1,0.4,1.6c0.2,0.4,0.5,0.8,0.9,1.1c0.4,0.3,0.8,0.5,1.2,0.6
			c0.5,0.1,1,0.2,1.5,0.2c0.6,0,1.2-0.1,1.6-0.2c0.4-0.2,0.8-0.4,1.1-0.6c0.3-0.3,0.5-0.6,0.6-0.9c0.1-0.3,0.2-0.7,0.2-1.1
			c0-0.5-0.1-1-0.4-1.3c-0.2-0.3-0.6-0.6-1-0.8c-0.4-0.2-0.8-0.4-1.3-0.5c-0.5-0.1-1-0.3-1.6-0.4c-0.5-0.1-1.1-0.3-1.6-0.4
			c-0.5-0.2-1-0.4-1.3-0.7c-0.4-0.3-0.7-0.6-1-1.1c-0.2-0.4-0.4-1-0.4-1.7c0-0.5,0.1-0.9,0.3-1.4c0.2-0.4,0.5-0.8,0.9-1.2
			c0.4-0.3,0.9-0.6,1.5-0.8c0.6-0.2,1.3-0.3,2-0.3c0.8,0,1.5,0.1,2.1,0.3c0.6,0.2,1.1,0.5,1.5,0.9c0.4,0.4,0.7,0.8,0.9,1.3
			c0.2,0.5,0.3,1,0.3,1.6h-1.3c0-0.5-0.1-1-0.3-1.4s-0.4-0.7-0.8-0.9c-0.3-0.2-0.7-0.4-1.1-0.5c-0.4-0.1-0.8-0.2-1.3-0.2
			c-0.7,0-1.2,0.1-1.7,0.3c-0.5,0.2-0.8,0.4-1.1,0.7c-0.3,0.3-0.5,0.6-0.6,1c-0.1,0.4-0.1,0.7-0.1,1.1c0.1,0.4,0.3,0.8,0.5,1.1
			c0.3,0.3,0.6,0.5,1,0.7c0.4,0.2,0.9,0.3,1.4,0.4c0.5,0.1,1,0.2,1.5,0.3c0.5,0.1,1,0.3,1.5,0.4c0.5,0.2,0.9,0.4,1.3,0.7
			c0.4,0.3,0.7,0.6,0.9,1.1c0.2,0.4,0.3,1,0.3,1.7c0,1.3-0.4,2.3-1.3,3c-0.9,0.7-2.1,1.1-3.7,1.1c-0.7,0-1.4-0.1-2-0.3
			c-0.6-0.2-1.2-0.5-1.6-0.8c-0.4-0.4-0.8-0.8-1.1-1.4c-0.3-0.6-0.4-1.2-0.4-2H102.2z"/>
	</g>
</g>
</svg>
