<svg xmlns="http://www.w3.org/2000/svg" viewBox="0 0 20 60" enable-background="new 0 0 20 60">
<path opacity=".75" fill="#BE1E2D" d="M20 13.1l-10 4-10-4 10-4z"/>
<path opacity=".75" fill="#1C75BC" d="M20 10.1L10 14 0 10.1l10-4z"/>
<path opacity=".75" fill="#F15A29" d="M20 7l-10 4L0 7l10-4z"/>
<path opacity=".75" fill="#39B54A" d="M20 4L10 7.9 0 4l10-4z"/>
<path fill="#666766" d="M10 34.9l-7-2.8-3 1.2 10 4 10-4-3-1.2zM10 31.8l-7-2.7-3 1.2 10 3.9 10-3.9-3-1.2zM20 24.2l-10 3.9-10-3.9 10-4zM10 28.8L3 26l-3 1.2 10 4 10-4-3-1.2z"/>
<path fill="#AAAAAA" d="m9.93376,56.45185l-7,-2.8l-3,1.2l10,4l10,-4l-3,-1.2l-7,2.8zm0,-3.1l-7,-2.7l-3,1.2l10,3.9l10,-3.9l-3,-1.2l-7,2.7zm10,-7.6l-10,3.9l-10,-3.9l10,-4l10,4zm-10,4.6l-7,-2.8l-3,1.2l10,4l10,-4l-3,-1.2l-7,2.8z"/>
</svg>