<?xml version="1.0" encoding="utf-8"?>
<!-- Generator: Adobe Illustrator 17.1.0, SVG Export Plug-In . SVG Version: 6.00 Build 0)  -->
<!DOCTYPE svg PUBLIC "-//W3C//DTD SVG 1.1//EN" "http://www.w3.org/Graphics/SVG/1.1/DTD/svg11.dtd">
<svg version="1.1" id="Layer_1" xmlns="http://www.w3.org/2000/svg" xmlns:xlink="http://www.w3.org/1999/xlink" x="0px" y="0px"
	 viewBox="0 0 155 20" enable-background="new 0 0 155 20" xml:space="preserve">
<g>
	<polygon fill="#787878" points="21.9,0.5 21.9,6.2 31.4,6.2 31.4,10 21.9,10 21.9,19.5 37.1,19.5 37.1,0.5 	"/>
	<polygon fill="#787878" points="63.7,0.5 63.7,6.2 73.2,6.2 73.2,10 63.7,10 63.7,19.5 78.8,19.5 78.8,0.5 	"/>
	<polygon fill="#E21E43" points="111.1,0.5 111.1,6.2 120.6,6.2 120.6,10 111.1,10 111.1,19.5 126.3,19.5 126.3,0.5 	"/>
	<polygon fill="#787878" points="40.9,0.5 40.9,19.5 46.6,19.5 46.6,6.2 54.2,6.2 54.2,19.5 59.9,19.5 59.9,0.5 	"/>
	<polygon fill="#E21E43" points="82.6,0.5 82.6,19.5 88.3,19.5 88.3,6.2 92.1,6.2 92.1,19.5 97.8,19.5 97.8,6.2 101.6,6.2 
		101.6,19.5 107.3,19.5 107.3,0.5 	"/>
	<polygon fill="#E21E43" points="151,0.5 143.4,0.5 139.6,5.3 135.8,0.5 128.2,0.5 135.8,10 128.2,19.5 135.8,19.5 139.6,14.7 
		143.4,19.5 151,19.5 143.4,10 	"/>
	<path fill="#787878" d="M1,0.5v19h5.7v-3.8h11.4V0.5H1z M12.4,10H6.7V6.2h5.7V10z"/>
</g>
</svg>
