<?xml version="1.0" encoding="utf-8"?>
<!-- Generator: Adobe Illustrator 17.1.0, SVG Export Plug-In . SVG Version: 6.00 Build 0)  -->
<!DOCTYPE svg PUBLIC "-//W3C//DTD SVG 1.1//EN" "http://www.w3.org/Graphics/SVG/1.1/DTD/svg11.dtd">
<svg version="1.1" id="Layer_1" xmlns="http://www.w3.org/2000/svg" xmlns:xlink="http://www.w3.org/1999/xlink" x="0px" y="0px"
	 viewBox="-10 -208 20 2000" enable-background="new -10 -208 20 2000" xml:space="preserve">
<path fill="#777777" d="M-2-88.3v2.8c-0.6,0.2-1.2,0.4-1.7,0.7l-1.9-1.9l-2.8,2.8l1.9,1.9c-0.3,0.5-0.5,1.1-0.7,1.7H-10v4h2.8
	c0.2,0.6,0.4,1.2,0.7,1.7l-1.9,1.9l2.8,2.8l1.9-1.9c0.5,0.3,1.1,0.5,1.7,0.7v2.8h4v-2.8c0.6-0.2,1.2-0.4,1.7-0.7l1.9,1.9l2.8-2.8
	l-1.9-1.9c0.3-0.5,0.5-1.1,0.7-1.7H10v-4H7.2C7-80.9,6.8-81.5,6.5-82l1.9-1.9l-2.8-2.8l-1.9,1.9c-0.5-0.3-1.1-0.5-1.7-0.7v-2.8H-2z
	 M-4.5-78.3c0-2.5,2-4.5,4.5-4.5s4.5,2,4.5,4.5s-2,4.5-4.5,4.5S-4.5-75.8-4.5-78.3z"/>
<path fill="#777777" d="M1.5-48c-4.5,0-8.2,4-8.2,9H-10l4.9,7.2l4.9-7.2h-3.3c0-3,2.2-5.4,4.9-5.4S6.7-42,6.7-39s-2.2,5.4-4.9,5.4
	v3.6c4.5,0,8.2-4,8.2-9S6.1-48,1.5-48z"/>
<path fill="#777777" d="M7.4,118.8L10,116l-4-4l-2.8,2.6L7.4,118.8z M-10,127.7v4.3h4.1l12.1-11.9l-4.3-4.3L-10,127.7z M-6,130.7
	h-2.7V128L-6,130.7z"/>
<polygon fill="#777777" points="5,445.1 6.1,451.9 0,448.3 -6.1,451.9 -5.1,445.1 -10,439.8 -3.2,439.5 0,432 3.2,439.5 10,439.8 
	"/>
<polygon fill="#777777" points="6,482 -4.4,472 -7,474.5 0.8,482 -7,489.5 -4.4,492 "/>
<polygon fill="#777777" points="-2.6,10 10,-2.8 6.8,-6 -2.6,3.6 -6.8,-0.7 -10,2.5 "/>
<path fill="#777777" d="M-7.9,172h3.1h9.2h3.1v-3.1v-4.6H4.4v4.6h-9.2v-4.6h-3.1v4.6L-7.9,172z M-1.8,166.6h3.1v-9l4.2,4.4l1.9-2
	l-7.7-8l-7.7,8l1.9,2l4.2-4.4v9H-1.8z"/>
<g>
	<rect x="-10" y="353" fill="#777777" width="20" height="4"/>
	<rect x="-10" y="360" fill="#777777" width="20" height="4"/>
	<rect x="-10" y="367" fill="#777777" width="20" height="4"/>
</g>
<polygon fill="#777777" points="10,-200.7 2.7,-200.7 2.7,-208 -2.7,-208 -2.7,-200.7 -10,-200.7 -10,-195.3 -2.7,-195.3 -2.7,-188 
	2.7,-188 2.7,-195.3 10,-195.3 "/>
<path fill="#777777" d="M10,89l-4.5-4.5c1.7-3.1,1.2-7.2-1.5-9.9c-3.3-3.3-8.5-3.3-11.7-0.2s-3.1,8.4,0.2,11.7
	c2.7,2.7,6.7,3.2,9.9,1.5L7,92L10,89z M-5,83.5c-1.8-1.8-1.8-4.6-0.1-6.4s4.6-1.7,6.4,0.1c1.8,1.8,1.8,4.6,0.1,6.4S-3.2,85.2-5,83.5
	z"/>
<g>
	<polygon fill="#777777" points="-0.8,556.3 -3,556.3 -3,559.3 -5.9,559.3 -5.9,561.4 -3,561.4 -3,564.3 -0.8,564.3 -0.8,561.4 
		2.1,561.4 2.1,559.3 -0.8,559.3 	"/>
	<path fill="#777777" d="M5.5,564.5c1.7-3.1,1.2-7.2-1.5-9.9c-3.3-3.3-8.5-3.3-11.6-0.2c-3.2,3.2-3.1,8.4,0.2,11.6
		c2.7,2.7,6.7,3.2,9.9,1.5L7,572l3-3L5.5,564.5z M2.5,564.6c-2.3,2.3-6.1,2.3-8.5-0.1c-2.4-2.4-2.4-6.2-0.1-8.5
		c2.3-2.3,6.1-2.3,8.5,0.1C4.8,558.5,4.8,562.3,2.5,564.6z"/>
</g>
<g>
	<rect x="-5.9" y="599.3" fill="#777777" width="8" height="2.2"/>
	<path fill="#777777" d="M5.5,604.5c1.7-3.1,1.2-7.2-1.5-9.9c-3.3-3.3-8.5-3.3-11.6-0.2c-3.2,3.2-3.1,8.4,0.2,11.6
		c2.7,2.7,6.7,3.2,9.9,1.5L7,612l3-3L5.5,604.5z M2.5,604.6c-2.3,2.3-6.1,2.3-8.5-0.1c-2.4-2.4-2.4-6.2-0.1-8.5
		c2.3-2.3,6.1-2.3,8.5,0.1C4.8,598.5,4.8,602.3,2.5,604.6z"/>
</g>
<polygon fill="#777777" points="-7,512 7,522 -7,532 "/>
<path fill="#777777" d="M-10,235v14h20v-14H-10z M8,245.6l-4.1-4.1l4.1-4.1V245.6z M0,245.4l2.5-2.5l4.1,4.1H-6.6l4.1-4.1L0,245.4z
	 M5.6,237L0,242.6l-5.6-5.6H5.6z M-3.9,241.5l-4.1,4.1v-8.2L-3.9,241.5z"/>
<polygon fill="#777777" points="-10,403 -7,403 -7,411 -2,411 -2,405 2,405 2,411 7,411 7,403 10,403 0,392 "/>
<g>
	<rect x="-10" y="192" fill="#777777" width="5" height="5"/>
	<rect x="-10" y="199.5" fill="#777777" width="5" height="5"/>
	<rect x="-10" y="207" fill="#777777" width="5" height="5"/>
	<rect x="-2.5" y="192" fill="#777777" width="5" height="5"/>
	<rect x="-2.5" y="199.5" fill="#777777" width="5" height="5"/>
	<rect x="-2.5" y="207" fill="#777777" width="5" height="5"/>
	<rect x="5" y="192" fill="#777777" width="5" height="5"/>
	<rect x="5" y="199.5" fill="#777777" width="5" height="5"/>
	<rect x="5" y="207" fill="#777777" width="5" height="5"/>
</g>
<g>
	<rect x="-10" y="273" fill="#777777" width="5" height="4"/>
	<rect x="-10" y="280" fill="#777777" width="5" height="4"/>
	<rect x="-10" y="287" fill="#777777" width="5" height="4"/>
	<rect x="-2.5" y="273" fill="#777777" width="12.5" height="4"/>
	<rect x="-2.5" y="280" fill="#777777" width="12.5" height="4"/>
	<rect x="-2.5" y="287" fill="#777777" width="12.5" height="4"/>
</g>
<g>
	<path fill="#777777" d="M-9,32.2v20H9v-20H-9z M6,49.2H-6v-14H6V49.2z"/>
	<rect x="-4" y="37.2" fill="#777777" width="8" height="2"/>
	<rect x="-4" y="41.2" fill="#777777" width="8" height="2"/>
	<rect x="-4" y="45.2" fill="#777777" width="8" height="2"/>
</g>
<rect x="-10" y="-160.5" fill="#777777" width="20" height="5.5"/>
<polygon fill="#777777" points="10,-124.7 6.6,-128 0,-121.3 -6.7,-128 -10,-124.7 -3.4,-118 -10,-111.3 -6.7,-108 0,-114.7 
	6.6,-108 10,-111.3 3.3,-118 "/>
<polygon fill="#777777" points="-2,314 -10,314 -10,330 10,330 10,316 -1,316 "/>
<path fill="#777777" d="M7.5,634.7v10H2H1.2l-0.9,0.5l-2.8,1.9v-2.4h-2h-3v-10H7.5 M10,632.2h-20v15h5v4.8l7-4.8h8V632.2L10,632.2z"
	/>
<path fill="#777777" d="M0,672c-5.5,0-10,4.5-10,10c0,5.5,4.5,10,10,10s10-4.5,10-10C10,676.5,5.5,672,0,672z M3,677.1
	c1.1,0,2,0.9,2,2c0,1.1-0.9,2-2,2s-2-0.9-2-2C1,678,1.9,677.1,3,677.1z M-3,677.1c1.1,0,2,0.9,2,2c0,1.1-0.9,2-2,2s-2-0.9-2-2
	C-5,678-4.1,677.1-3,677.1z M0,689.1c-3.2,0-6-2.2-6.8-5.2h2.1c0.7,1.9,2.5,3.2,4.7,3.2s3.9-1.3,4.7-3.2h2.1
	C6,686.9,3.2,689.1,0,689.1z"/>
<path fill="#777777" d="M0,712c-5.5,0-10,4.5-10,10c0,5.5,4.5,10,10,10s10-4.5,10-10C10,716.5,5.5,712,0,712z M3,716.1
	c1.1,0,2,0.9,2,2c0,1.1-0.9,2-2,2s-2-0.9-2-2C1,717,1.9,716.1,3,716.1z M-3,716.1c1.1,0,2,0.9,2,2c0,1.1-0.9,2-2,2s-2-0.9-2-2
	C-5,717-4.1,716.1-3,716.1z M4.5,727.7c-0.8-1.7-2.5-2.9-4.5-2.9s-3.7,1.2-4.5,2.9c-0.6-0.4-1-0.9-1.5-1.5c1.2-2,3.4-3.3,5.9-3.3
	s4.7,1.3,5.9,3.3C5.5,726.8,5,727.3,4.5,727.7z"/>
<path fill-rule="evenodd" clip-rule="evenodd" fill="#777777" d="M10,752H-5v5h-5v15H5v-5h5V752z M2,769h-9v-9h9V769z M7,764H5v-7
	h-7v-2h9V764z"/>
<path fill-rule="evenodd" clip-rule="evenodd" fill="#777777" d="M5,800c0,0.1,0,0.2,0,0.3c0,3.3-2.5,7.2-7.2,7.2
	c-1.4,0-2.8-0.4-3.9-1.1c0.2,0,0.4,0,0.6,0c1.2,0,2.3-0.4,3.1-1.1c-1.1,0-2-0.8-2.4-1.8c0.2,0,0.3,0,0.5,0c0.2,0,0.5,0,0.7-0.1
	c-1.2-0.2-2-1.2-2-2.5v0c0.3,0.2,0.7,0.3,1.1,0.3c-0.7-0.5-1.1-1.2-1.1-2.1c0-0.5,0.1-0.9,0.3-1.3c1.2,1.5,3.1,2.5,5.2,2.6
	c0-0.2-0.1-0.4-0.1-0.6c0-1.4,1.1-2.5,2.5-2.5c0.7,0,1.4,0.3,1.8,0.8c0.6-0.1,1.1-0.3,1.6-0.6c-0.2,0.6-0.6,1.1-1.1,1.4
	c0.5-0.1,1-0.2,1.4-0.4C6,799.2,5.5,799.6,5,800z M0,792c-5.5,0-10,4.5-10,10c0,5.5,4.5,10,10,10s10-4.5,10-10
	C10,796.5,5.5,792,0,792z"/>
<g>
	<path fill-rule="evenodd" clip-rule="evenodd" fill="#777777" d="M5.6,846.9c0,0.4-0.4,0.8-0.8,0.8h-9.5c-0.5,0-0.8-0.4-0.8-0.8
		v-9.6c0-0.4,0.4-0.8,0.8-0.8h9.5c0.5,0,0.8,0.4,0.8,0.8V846.9z M0,832c-5.5,0-10,4.5-10,10s4.5,10,10,10s10-4.5,10-10
		S5.5,832,0,832z"/>
	<path fill="#777777" d="M1.9,840.6c-0.9,0-1.3,0.5-1.5,0.8v0h0l0,0v-0.7h-1.7c0,0.5,0,5.1,0,5.1h1.7V843c0-0.2,0-0.3,0.1-0.4
		c0.1-0.3,0.4-0.6,0.9-0.6c0.6,0,0.9,0.5,0.9,1.1v2.7h1.7v-2.9C3.9,841.4,3,840.6,1.9,840.6z"/>
	<path fill="#777777" d="M-3,838.3c-0.6,0-1,0.4-1,0.9c0,0.5,0.4,0.9,0.9,0.9h0c0.6,0,1-0.4,1-0.9C-2.1,838.7-2.5,838.3-3,838.3z"/>
	<rect x="-3.9" y="840.8" fill="#777777" width="1.7" height="5.1"/>
</g>
<path fill-rule="evenodd" clip-rule="evenodd" fill="#777777" d="M2.6,882H0.9v6.2h-2.6V882h-1.2v-2.2h1.2v-1.4c0-1,0.5-2.6,2.6-2.6
	l1.9,0v2.1H1.5c-0.2,0-0.5,0.1-0.5,0.6v1.3h2L2.6,882z M0,872c-5.5,0-10,4.5-10,10c0,5.5,4.5,10,10,10s10-4.5,10-10
	C10,876.5,5.5,872,0,872z"/>
<g>
	<path fill="#777777" d="M0,919.5L0,919.5L0,919.5C0,919.5,0,919.5,0,919.5z"/>
	<path fill="#777777" d="M5.9,917H3.3c0,0,1.4,0.9,1.6,2.5h0.9h0c0.9,0,1.6,0.7,1.6,1.6v1.7c0,0.9-0.7,1.7-1.6,1.7H0
		c-0.9,0-1.7-0.8-1.7-1.7v-1.6h-2.5v1.6c0,0.6,0.1,1.2,0.4,1.7C-3.2,926-1.7,927,0,927h5.8c2.3,0,4.1-1.9,4.1-4.2v-1.7
		C10,918.8,8.2,917,5.9,917z"/>
	<path fill="#777777" d="M3.8,919.5C3.2,918,1.7,917,0,917h-5.8c-2.3,0-4.2,1.8-4.2,4.1v1.7c0,2.3,1.9,4.2,4.2,4.2h2.5
		c0,0-1.3-0.9-1.7-2.5h-0.8c-0.9,0-1.7-0.8-1.7-1.7v-1.7c0-0.9,0.8-1.6,1.7-1.6H0h0c0.9,0,1.6,0.7,1.6,1.6v1.7c0,0,0,0,0,0h2.5
		c0,0,0,0,0,0v-1.7C4.2,920.6,4,920,3.8,919.5z"/>
</g>
<g>
	<rect x="-9.5" y="964.2" fill-rule="evenodd" clip-rule="evenodd" fill="#777777" width="3" height="3"/>
	<rect x="-5.5" y="964.2" fill-rule="evenodd" clip-rule="evenodd" fill="#777777" width="3" height="3"/>
	<rect x="-1.5" y="964.2" fill-rule="evenodd" clip-rule="evenodd" fill="#777777" width="3" height="3"/>
	<rect x="2.5" y="964.2" fill-rule="evenodd" clip-rule="evenodd" fill="#777777" width="3" height="3"/>
	<rect x="-5.5" y="960.2" fill-rule="evenodd" clip-rule="evenodd" fill="#777777" width="3" height="3"/>
	<rect x="-1.5" y="960.2" fill-rule="evenodd" clip-rule="evenodd" fill="#777777" width="3" height="3"/>
	<rect x="2.5" y="960.2" fill-rule="evenodd" clip-rule="evenodd" fill="#777777" width="3" height="3"/>
	<rect x="2.5" y="956.2" fill-rule="evenodd" clip-rule="evenodd" fill="#777777" width="3" height="3"/>
	<rect x="6.5" y="964.2" fill-rule="evenodd" clip-rule="evenodd" fill="#777777" width="3" height="3"/>
</g>
<g>
	<g>
		<ellipse fill="#777777" cx="-0.2" cy="994.5" rx="8.8" ry="2.5"/>
	</g>
	<path fill="#777777" d="M-0.2,998.2c-0.8,0-6.3-0.1-8.8-1.7v3c0,1.4,3.9,2.5,8.8,2.5s8.8-1.1,8.8-2.5v-3
		C6,998.2,0.5,998.2-0.2,998.2z"/>
	<path fill="#777777" d="M-0.2,1003.2c-0.8,0-6.3-0.1-8.8-1.7v3c0,1.4,3.9,2.5,8.8,2.5s8.8-1.1,8.8-2.5v-3
		C6,1003.2,0.5,1003.2-0.2,1003.2z"/>
	<path fill="#777777" d="M-0.2,1008.2c-0.8,0-6.3-0.1-8.8-1.7v3c0,1.4,3.9,2.5,8.8,2.5s8.8-1.1,8.8-2.5v-3
		C6,1008.2,0.5,1008.2-0.2,1008.2z"/>
</g>
<path fill="#777777" d="M0,1033.8c-5.5,0-10,4.5-10,10v5h20v-5C10,1038.2,5.5,1033.8,0,1033.8z M-0.1,1036.2c0.7,0,1.2,0.6,1.2,1.2
	c0,0.3-0.1,0.6-0.3,0.9c-0.2,0.2-0.6,0.4-0.9,0.4h0c-0.7,0-1.2-0.5-1.2-1.2C-1.3,1036.8-0.8,1036.2-0.1,1036.2z M-7.4,1045.4
	L-7.4,1045.4c-0.5,0-0.8-0.2-1-0.5c-0.2-0.3-0.3-0.6-0.3-0.9c0.1-0.6,0.6-1.1,1.2-1.1l0.1,0c0.3,0,0.6,0.2,0.8,0.5
	c0.2,0.3,0.3,0.6,0.3,0.9C-6.3,1044.9-6.8,1045.4-7.4,1045.4z M-5.2,1041.5c-0.3,0.4-0.6,0.6-1,0.6c-0.3,0-0.5-0.1-0.7-0.2
	c-0.2-0.2-0.4-0.4-0.5-0.8c-0.1-0.3,0-0.7,0.2-0.9c0.4-0.6,1.2-0.7,1.7-0.3C-4.9,1040.2-4.8,1040.9-5.2,1041.5z M-3,1039.5
	c-0.2,0.1-0.4,0.2-0.6,0.2c-0.5,0-0.9-0.3-1.1-0.6c-0.3-0.6-0.1-1.4,0.5-1.7c0.6-0.3,1.4-0.1,1.7,0.5
	C-2.1,1038.4-2.3,1039.2-3,1039.5z M0,1048.1c-1,0-1.9-0.8-1.9-1.9c0-1,0.8-1.9,1.9-1.9s1.9,0.8,1.9,1.9
	C1.9,1047.3,1,1048.1,0,1048.1z M3.8,1038.7l-1.9,5.9c-0.5-0.5-1.1-0.9-1.9-0.9c-0.1,0-0.2,0-0.3,0l3-5.5c0.3-0.6,0.8-1,1.1-0.9
	C4,1037.5,4,1038.1,3.8,1038.7z M5.1,1041.4c-0.2-0.3-0.3-0.6-0.2-0.9c0.1-0.3,0.2-0.6,0.5-0.8c0.6-0.4,1.4-0.2,1.7,0.3
	c0.2,0.3,0.3,0.6,0.2,0.9c-0.1,0.3-0.2,0.6-0.5,0.8c-0.2,0.2-0.5,0.2-0.7,0.2C5.7,1041.9,5.3,1041.7,5.1,1041.4z M8.1,1045.4
	c-0.2,0.2-0.5,0.2-0.7,0.2c-0.4,0-0.8-0.2-1-0.5c-0.2-0.3-0.3-0.6-0.2-0.9c0.1-0.3,0.2-0.6,0.5-0.8c0.6-0.4,1.4-0.2,1.7,0.3
	c0.2,0.3,0.3,0.6,0.2,0.9C8.6,1044.9,8.4,1045.2,8.1,1045.4z"/>
<polygon fill="#777777" points="0,1088.5 10,1078.1 7.5,1075.5 0,1083.3 -7.5,1075.5 -10,1078.1 "/>
<polygon fill="#777777" points="10,1115 0,1129 -10,1115 "/>
<polygon fill="#777777" points="0,1235.5 10,1245.9 7.5,1248.5 0,1240.7 -7.5,1248.5 -10,1245.9 "/>
<polygon fill="#777777" points="10,1289 0,1275 -10,1289 "/>
<polygon fill="#777777" points="-7.5,1162 2.9,1172 5.5,1169.5 -2.3,1162 5.5,1154.5 2.9,1152 "/>
<polygon fill="#777777" points="6,1212 -8,1202 6,1192 "/>
<path fill-rule="evenodd" clip-rule="evenodd" fill="#777777" d="M0,1312.2c-5.5,0-10,4.5-10,10c0,4.4,2.9,8.2,6.8,9.5
	c0.5,0.1,0.7-0.2,0.7-0.5c0-0.2,0-0.9,0-1.7c-2.8,0.6-3.4-1.3-3.4-1.3c-0.5-1.2-1.1-1.5-1.1-1.5c-0.9-0.6,0.1-0.6,0.1-0.6
	c1,0.1,1.5,1,1.5,1c0.9,1.5,2.3,1.1,2.9,0.8c0.1-0.6,0.3-1.1,0.6-1.3c-2.2-0.3-4.6-1.1-4.6-4.9c0-1.1,0.4-2,1-2.7
	c-0.1-0.3-0.4-1.3,0.1-2.6c0,0,0.8-0.3,2.7,1c0.8-0.2,1.7-0.3,2.5-0.3c0.8,0,1.7,0.1,2.5,0.3c1.9-1.3,2.7-1,2.7-1
	c0.5,1.4,0.2,2.4,0.1,2.6c0.6,0.7,1,1.6,1,2.7c0,3.8-2.3,4.7-4.6,4.9c0.4,0.3,0.7,0.9,0.7,1.9c0,1.3,0,2.4,0,2.7
	c0,0.3,0.2,0.6,0.7,0.5c4-1.3,6.8-5.1,6.8-9.5C10,1316.7,5.5,1312.2,0,1312.2z"/>
</svg>
