<?xml version="1.0" encoding="utf-8"?>
<!-- Generator: Adobe Illustrator 17.1.0, SVG Export Plug-In . SVG Version: 6.00 Build 0)  -->
<!DOCTYPE svg PUBLIC "-//W3C//DTD SVG 1.1//EN" "http://www.w3.org/Graphics/SVG/1.1/DTD/svg11.dtd">
<svg version="1.1" id="Layer_1" xmlns="http://www.w3.org/2000/svg" xmlns:xlink="http://www.w3.org/1999/xlink" x="0px" y="0px"
	 viewBox="0 0 20 20" enable-background="new 0 0 20 20" xml:space="preserve">
<path fill-rule="evenodd" clip-rule="evenodd" fill="#FFFFFF" d="M10,0.2c-5.5,0-10,4.5-10,10c0,4.4,2.9,8.2,6.8,9.5
	c0.5,0.1,0.7-0.2,0.7-0.5c0-0.2,0-0.9,0-1.7c-2.8,0.6-3.4-1.3-3.4-1.3C3.7,15.1,3,14.7,3,14.7c-0.9-0.6,0.1-0.6,0.1-0.6
	c1,0.1,1.5,1,1.5,1C5.5,16.7,7,16.3,7.5,16c0.1-0.6,0.3-1.1,0.6-1.3C6,14.4,3.6,13.6,3.6,9.7c0-1.1,0.4-2,1-2.7
	C4.5,6.8,4.2,5.8,4.7,4.4c0,0,0.8-0.3,2.7,1C8.3,5.2,9.2,5.1,10,5.1c0.8,0,1.7,0.1,2.5,0.3c1.9-1.3,2.7-1,2.7-1
	c0.5,1.4,0.2,2.4,0.1,2.6c0.6,0.7,1,1.6,1,2.7c0,3.8-2.3,4.7-4.6,4.9c0.4,0.3,0.7,0.9,0.7,1.9c0,1.3,0,2.4,0,2.7
	c0,0.3,0.2,0.6,0.7,0.5c4-1.3,6.8-5.1,6.8-9.5C20,4.7,15.5,0.2,10,0.2z"/>
</svg>
