<?xml version="1.0" encoding="utf-8"?>
<!-- Generator: Adobe Illustrator 17.1.0, SVG Export Plug-In . SVG Version: 6.00 Build 0)  -->
<!DOCTYPE svg PUBLIC "-//W3C//DTD SVG 1.1//EN" "http://www.w3.org/Graphics/SVG/1.1/DTD/svg11.dtd">
<svg version="1.1" id="Layer_1" xmlns="http://www.w3.org/2000/svg" xmlns:xlink="http://www.w3.org/1999/xlink" x="0px" y="0px"
	 viewBox="0 0 20 20" enable-background="new 0 0 20 20" xml:space="preserve">
<path fill-rule="evenodd" clip-rule="evenodd" fill="#FFFFFF" d="M15,8c0,0.1,0,0.2,0,0.3c0,3.3-2.5,7.2-7.2,7.2
	c-1.4,0-2.8-0.4-3.9-1.1c0.2,0,0.4,0,0.6,0c1.2,0,2.3-0.4,3.1-1.1c-1.1,0-2-0.8-2.4-1.8c0.2,0,0.3,0,0.5,0c0.2,0,0.5,0,0.7-0.1
	c-1.2-0.2-2-1.2-2-2.5v0c0.3,0.2,0.7,0.3,1.1,0.3C5,8.9,4.5,8.1,4.5,7.2c0-0.5,0.1-0.9,0.3-1.3C6.1,7.5,8,8.5,10.1,8.6
	C10,8.4,10,8.2,10,8c0-1.4,1.1-2.5,2.5-2.5c0.7,0,1.4,0.3,1.8,0.8C14.9,6.2,15.5,6,16,5.7c-0.2,0.6-0.6,1.1-1.1,1.4
	c0.5-0.1,1-0.2,1.4-0.4C16,7.2,15.5,7.6,15,8z M10,0C4.5,0,0,4.5,0,10c0,5.5,4.5,10,10,10s10-4.5,10-10C20,4.5,15.5,0,10,0z"/>
</svg>
