<?xml version="1.0" encoding="utf-8"?>
<!-- Generator: Adobe Illustrator 17.1.0, SVG Export Plug-In . SVG Version: 6.00 Build 0)  -->
<!DOCTYPE svg PUBLIC "-//W3C//DTD SVG 1.1//EN" "http://www.w3.org/Graphics/SVG/1.1/DTD/svg11.dtd">
<svg version="1.1" id="Layer_1" xmlns="http://www.w3.org/2000/svg" xmlns:xlink="http://www.w3.org/1999/xlink" x="0px" y="0px"
	 viewBox="0 0 606 300" enable-background="new 0 0 606 300" xml:space="preserve">
<line fill="none" stroke="#DEDEDD" stroke-miterlimit="10" x1="58.2" y1="0" x2="79.1" y2="55.6"/>
<line fill="none" stroke="#DEDEDD" stroke-miterlimit="10" x1="0" y1="100.2" x2="73.3" y2="66.4"/>
<line fill="none" stroke="#DEDEDD" stroke-miterlimit="10" x1="0" y1="141.2" x2="118" y2="93.5"/>
<line fill="none" stroke="#DEDEDD" stroke-miterlimit="10" x1="69" y1="192.6" x2="178.7" y2="93.5"/>
<line fill="none" stroke="#DEDEDD" stroke-miterlimit="10" x1="140.8" y1="88.4" x2="178.7" y2="88.4"/>
<line fill="none" stroke="#DEDEDD" stroke-miterlimit="10" x1="134.5" y1="100.2" x2="175.3" y2="223.3"/>
<line fill="none" stroke="#DEDEDD" stroke-miterlimit="10" x1="68.7" y1="195.8" x2="452.2" y2="147.1"/>
<line fill="none" stroke="#DEDEDD" stroke-miterlimit="10" x1="0" y1="255.9" x2="61.8" y2="199.6"/>
<line fill="none" stroke="#DEDEDD" stroke-miterlimit="10" x1="0" y1="171.5" x2="63.6" y2="192.3"/>
<line fill="none" stroke="#DEDEDD" stroke-miterlimit="10" x1="185.5" y1="228" x2="341.7" y2="52.6"/>
<line fill="none" stroke="#DEDEDD" stroke-miterlimit="10" x1="185.5" y1="90.7" x2="452.2" y2="143.1"/>
<line fill="none" stroke="#DEDEDD" stroke-miterlimit="10" x1="185.5" y1="85.3" x2="203.5" y2="61.4"/>
<line fill="none" stroke="#DEDEDD" stroke-miterlimit="10" x1="359.6" y1="36" x2="391" y2="0"/>
<line fill="none" stroke="#DEDEDD" stroke-miterlimit="10" x1="207.6" y1="59.7" x2="341.7" y2="44"/>
<line fill="none" stroke="#DEDEDD" stroke-miterlimit="10" x1="208" y1="55.6" x2="240.1" y2="0"/>
<line fill="none" stroke="#DEDEDD" stroke-miterlimit="10" x1="84.1" y1="66.4" x2="121.3" y2="79.2"/>
<line fill="none" stroke="#DEDEDD" stroke-miterlimit="10" x1="458.4" y1="137.7" x2="605.7" y2="54.2"/>
<line fill="none" stroke="#DEDEDD" stroke-miterlimit="10" x1="459.5" y1="149.1" x2="605.7" y2="243.2"/>
<line fill="none" stroke="#DEDEDD" stroke-miterlimit="10" x1="355.9" y1="53.2" x2="605.7" y2="144.4"/>
<line fill="none" stroke="#DEDEDD" stroke-miterlimit="10" x1="360.1" y1="44" x2="605.7" y2="103.1"/>
<line fill="none" stroke="#DEDEDD" stroke-miterlimit="10" x1="187.7" y1="231" x2="605.7" y2="300"/>
<rect x="172.4" y="214.6" fill="#FFFFFF" stroke="#DEDDDD" stroke-miterlimit="10" width="24.8" height="24.8"/>
<rect x="174.2" y="83" fill="#FFFFFF" stroke="#DEDDDD" stroke-miterlimit="10" width="15.3" height="15.3"/>
<rect x="116.7" y="77.6" fill="#FFFFFF" stroke="#DEDDDD" stroke-miterlimit="10" width="24.8" height="24.8"/>
<rect x="338.9" y="31.6" fill="#FFFFFF" stroke="#DEDDDD" stroke-miterlimit="10" width="24.8" height="24.8"/>
<rect x="200.8" y="55.6" fill="#FFFFFF" stroke="#DEDDDD" stroke-miterlimit="10" width="8.1" height="8.1"/>
<rect x="61.8" y="191.8" fill="#FFFFFF" stroke="#DEDDDD" stroke-miterlimit="10" width="8.1" height="8.1"/>
<rect x="71.5" y="52" fill="#FFFFFF" stroke="#DEDDDD" stroke-miterlimit="10" width="15.3" height="15.3"/>
<rect x="446.7" y="135.4" fill="#FFFFFF" stroke="#DEDDDD" stroke-miterlimit="10" width="15.3" height="15.3"/>
</svg>
